<ttFont>
    <TTGlyph name=".notdef" xMin="0" yMin="0" xMax="500" yMax="700">
      <contour>
        <pt x="0" y="700" on="1"/>
        <pt x="500" y="700" on="1"/>
        <pt x="500" y="0" on="1"/>
        <pt x="0" y="0" on="1"/>
      </contour>
      <contour>
        <pt x="420" y="650" on="1"/>
        <pt x="80" y="650" on="1"/>
        <pt x="250" y="395" on="1"/>
      </contour>
      <contour>
        <pt x="220" y="350" on="1"/>
        <pt x="50" y="605" on="1"/>
        <pt x="50" y="95" on="1"/>
      </contour>
      <contour>
        <pt x="450" y="605" on="1"/>
        <pt x="280" y="350" on="1"/>
        <pt x="450" y="95" on="1"/>
      </contour>
      <contour>
        <pt x="420" y="50" on="1"/>
        <pt x="250" y="305" on="1"/>
        <pt x="80" y="50" on="1"/>
      </contour>
    </TTGlyph>
    <TTGlyph name=".ttfautohint" xMin="0" yMin="0" xMax="0" yMax="0">
      <contour>
        <pt x="0" y="0" on="1"/>
      </contour>
    </TTGlyph>
    <TTGlyph name="A" xMin="5" yMin="0" xMax="678" yMax="686">
      <contour>
        <pt x="272" y="686" on="1"/>
        <pt x="412" y="686" on="1"/>
        <pt x="678" y="0" on="1"/>
        <pt x="560" y="0" on="1"/>
        <pt x="497" y="167" on="1"/>
        <pt x="181" y="167" on="1"/>
        <pt x="119" y="0" on="1"/>
        <pt x="5" y="0" on="1"/>
      </contour>
      <contour>
        <pt x="461" y="262" on="1"/>
        <pt x="386" y="463" on="1"/>
        <pt x="341" y="591" on="1"/>
        <pt x="336" y="591" on="1"/>
        <pt x="292" y="465" on="1"/>
        <pt x="216" y="262" on="1"/>
      </contour>
    </TTGlyph>
    <TTGlyph name="AE" xMin="-2" yMin="0" xMax="946" yMax="686">
      <contour>
        <pt x="339" y="686" on="1"/>
        <pt x="940" y="686" on="1"/>
        <pt x="940" y="591" on="1"/>
        <pt x="512" y="591" on="1"/>
        <pt x="566" y="398" on="1"/>
        <pt x="896" y="398" on="1"/>
        <pt x="896" y="303" on="1"/>
        <pt x="592" y="303" on="1"/>
        <pt x="650" y="95" on="1"/>
        <pt x="946" y="95" on="1"/>
        <pt x="946" y="0" on="1"/>
        <pt x="563" y="0" on="1"/>
        <pt x="517" y="167" on="1"/>
        <pt x="190" y="167" on="1"/>
        <pt x="110" y="0" on="1"/>
        <pt x="-2" y="0" on="1"/>
      </contour>
      <contour>
        <pt x="491" y="262" on="1"/>
        <pt x="402" y="591" on="1"/>
        <pt x="397" y="591" on="1"/>
        <pt x="236" y="262" on="1"/>
      </contour>
    </TTGlyph>
    <TTGlyph name="AEacute" xMin="-2" yMin="0" xMax="946" yMax="868">
      <component glyphName=".ttfautohint" x="0" y="0" flags="0x0"/>
      <component glyphName="AE" x="0" y="0" flags="0x0"/>
      <component glyphName="acute" x="382" y="145" flags="0x4"/>
    </TTGlyph>
    <TTGlyph name="Aacute" xMin="5" yMin="0" xMax="678" yMax="868">
      <component glyphName=".ttfautohint" x="5" y="0" flags="0x0"/>
      <component glyphName="A" x="0" y="0" flags="0x0"/>
      <component glyphName="acute" x="224" y="145" flags="0x4"/>
    </TTGlyph>
    <TTGlyph name="Abreve" xMin="5" yMin="0" xMax="678" yMax="868">
      <component glyphName=".ttfautohint" x="5" y="0" flags="0x0"/>
      <component glyphName="A" x="0" y="0" flags="0x0"/>
      <component glyphName="breve" x="175" y="145" flags="0x4"/>
    </TTGlyph>
    <TTGlyph name="Acircumflex" xMin="5" yMin="0" xMax="678" yMax="868">
      <component glyphName=".ttfautohint" x="5" y="0" flags="0x0"/>
      <component glyphName="A" x="0" y="0" flags="0x0"/>
      <component glyphName="circumflex" x="175" y="145" flags="0x4"/>
    </TTGlyph>
    <TTGlyph name="Adieresis" xMin="5" yMin="0" xMax="678" yMax="868">
      <component glyphName=".ttfautohint" x="5" y="0" flags="0x0"/>
      <component glyphName="A" x="0" y="0" flags="0x0"/>
      <component glyphName="dieresis" x="175" y="145" flags="0x4"/>
    </TTGlyph>
    <TTGlyph name="Agrave" xMin="5" yMin="0" xMax="678" yMax="868">
      <component glyphName=".ttfautohint" x="5" y="0" flags="0x0"/>
      <component glyphName="A" x="0" y="0" flags="0x0"/>
      <component glyphName="grave" x="116" y="145" flags="0x4"/>
    </TTGlyph>
    <TTGlyph name="Amacron" xMin="5" yMin="0" xMax="678" yMax="844">
      <component glyphName=".ttfautohint" x="5" y="0" flags="0x0"/>
      <component glyphName="A" x="0" y="0" flags="0x0"/>
      <component glyphName="macron" x="175" y="145" flags="0x4"/>
    </TTGlyph>
    <TTGlyph name="Aogonek" xMin="5" yMin="-182" xMax="679" yMax="686">
      <contour>
        <pt x="568" y="-182" on="0"/>
        <pt x="510" y="-140" on="0"/>
        <pt x="510" y="-93" on="1"/>
        <pt x="510" y="-63" on="0"/>
        <pt x="536" y="-20" on="0"/>
        <pt x="560" y="0" on="1"/>
        <pt x="497" y="167" on="1"/>
        <pt x="181" y="167" on="1"/>
        <pt x="119" y="0" on="1"/>
        <pt x="5" y="0" on="1"/>
        <pt x="272" y="686" on="1"/>
        <pt x="412" y="686" on="1"/>
        <pt x="678" y="0" on="1"/>
        <pt x="633" y="0" on="1"/>
        <pt x="617" y="-13" on="0"/>
        <pt x="596" y="-49" on="0"/>
        <pt x="596" y="-69" on="1"/>
        <pt x="596" y="-116" on="0"/>
        <pt x="645" y="-116" on="1"/>
        <pt x="679" y="-116" on="1"/>
        <pt x="679" y="-168" on="1"/>
        <pt x="643" y="-182" on="0"/>
        <pt x="610" y="-182" on="1"/>
      </contour>
      <contour>
        <pt x="461" y="262" on="1"/>
        <pt x="386" y="463" on="1"/>
        <pt x="341" y="591" on="1"/>
        <pt x="336" y="591" on="1"/>
        <pt x="292" y="465" on="1"/>
        <pt x="216" y="262" on="1"/>
      </contour>
    </TTGlyph>
    <TTGlyph name="Aring" xMin="5" yMin="0" xMax="678" yMax="903">
      <component glyphName=".ttfautohint" x="5" y="0" flags="0x0"/>
      <component glyphName="A" x="0" y="0" flags="0x0"/>
      <component glyphName="ring" x="175" y="145" flags="0x4"/>
    </TTGlyph>
    <TTGlyph name="Aringacute" xMin="5" yMin="0" xMax="678" yMax="993">
      <contour>
        <pt x="382" y="993" on="1"/>
        <pt x="489" y="993" on="1"/>
        <pt x="490" y="990" on="1"/>
        <pt x="382" y="861" on="1"/>
        <pt x="298" y="861" on="1"/>
      </contour>
      <contour>
        <pt x="268" y="676" on="1"/>
        <pt x="244" y="702" on="0"/>
        <pt x="244" y="740" on="1"/>
        <pt x="244" y="782" on="0"/>
        <pt x="297" y="837" on="0"/>
        <pt x="342" y="837" on="1"/>
        <pt x="386" y="837" on="0"/>
        <pt x="439" y="782" on="0"/>
        <pt x="439" y="740" on="1"/>
        <pt x="439" y="701" on="0"/>
        <pt x="416" y="676" on="1"/>
        <pt x="678" y="0" on="1"/>
        <pt x="560" y="0" on="1"/>
        <pt x="497" y="167" on="1"/>
        <pt x="181" y="167" on="1"/>
        <pt x="119" y="0" on="1"/>
        <pt x="5" y="0" on="1"/>
      </contour>
      <contour>
        <pt x="363" y="691" on="0"/>
        <pt x="390" y="719" on="0"/>
        <pt x="390" y="740" on="1"/>
        <pt x="390" y="761" on="0"/>
        <pt x="363" y="789" on="0"/>
        <pt x="342" y="789" on="1"/>
        <pt x="320" y="789" on="0"/>
        <pt x="293" y="761" on="0"/>
        <pt x="293" y="740" on="1"/>
        <pt x="293" y="719" on="0"/>
        <pt x="321" y="691" on="0"/>
        <pt x="342" y="691" on="1"/>
      </contour>
      <contour>
        <pt x="461" y="262" on="1"/>
        <pt x="386" y="463" on="1"/>
        <pt x="341" y="591" on="1"/>
        <pt x="336" y="591" on="1"/>
        <pt x="292" y="465" on="1"/>
        <pt x="216" y="262" on="1"/>
      </contour>
    </TTGlyph>
    <TTGlyph name="Atilde" xMin="5" yMin="0" xMax="678" yMax="868">
      <component glyphName=".ttfautohint" x="5" y="0" flags="0x0"/>
      <component glyphName="A" x="0" y="0" flags="0x0"/>
      <component glyphName="tilde" x="175" y="145" flags="0x4"/>
    </TTGlyph>
    <TTGlyph name="B" xMin="75" yMin="0" xMax="636" yMax="686">
      <contour>
        <pt x="75" y="686" on="1"/>
        <pt x="425" y="686" on="1"/>
        <pt x="481" y="686" on="0"/>
        <pt x="568" y="644" on="0"/>
        <pt x="617" y="567" on="0"/>
        <pt x="617" y="517" on="1"/>
        <pt x="617" y="460" on="0"/>
        <pt x="554" y="376" on="0"/>
        <pt x="503" y="360" on="1"/>
        <pt x="503" y="356" on="1"/>
        <pt x="563" y="343" on="0"/>
        <pt x="636" y="254" on="0"/>
        <pt x="636" y="185" on="1"/>
        <pt x="636" y="93" on="0"/>
        <pt x="520" y="0" on="0"/>
        <pt x="425" y="0" on="1"/>
        <pt x="75" y="0" on="1"/>
      </contour>
      <contour>
        <pt x="400" y="399" on="1"/>
        <pt x="447" y="399" on="0"/>
        <pt x="504" y="452" on="0"/>
        <pt x="504" y="495" on="1"/>
        <pt x="504" y="543" on="0"/>
        <pt x="452" y="591" on="0"/>
        <pt x="407" y="591" on="1"/>
        <pt x="186" y="591" on="1"/>
        <pt x="186" y="399" on="1"/>
      </contour>
      <contour>
        <pt x="417" y="95" on="1"/>
        <pt x="467" y="95" on="0"/>
        <pt x="523" y="145" on="0"/>
        <pt x="523" y="198" on="1"/>
        <pt x="523" y="250" on="0"/>
        <pt x="465" y="304" on="0"/>
        <pt x="409" y="304" on="1"/>
        <pt x="186" y="304" on="1"/>
        <pt x="186" y="95" on="1"/>
      </contour>
    </TTGlyph>
    <TTGlyph name="C" xMin="45" yMin="-12" xMax="678" yMax="698">
      <contour>
        <pt x="215" y="-12" on="0"/>
        <pt x="45" y="164" on="0"/>
        <pt x="45" y="343" on="1"/>
        <pt x="45" y="521" on="0"/>
        <pt x="215" y="698" on="0"/>
        <pt x="379" y="698" on="1"/>
        <pt x="513" y="698" on="0"/>
        <pt x="678" y="564" on="0"/>
        <pt x="678" y="436" on="1"/>
        <pt x="565" y="436" on="1"/>
        <pt x="565" y="517" on="0"/>
        <pt x="465" y="604" on="0"/>
        <pt x="380" y="604" on="1"/>
        <pt x="267" y="604" on="0"/>
        <pt x="160" y="481" on="0"/>
        <pt x="159" y="349" on="1"/>
        <pt x="159" y="338" on="1"/>
        <pt x="159" y="205" on="0"/>
        <pt x="267" y="82" on="0"/>
        <pt x="380" y="82" on="1"/>
        <pt x="468" y="82" on="0"/>
        <pt x="569" y="167" on="0"/>
        <pt x="569" y="248" on="1"/>
        <pt x="678" y="248" on="1"/>
        <pt x="678" y="119" on="0"/>
        <pt x="514" y="-12" on="0"/>
        <pt x="379" y="-12" on="1"/>
      </contour>
    </TTGlyph>
    <TTGlyph name="Cacute" xMin="45" yMin="-12" xMax="678" yMax="868">
      <component glyphName=".ttfautohint" x="45" y="0" flags="0x0"/>
      <component glyphName="C" x="0" y="0" flags="0x0"/>
      <component glyphName="acute" x="243" y="145" flags="0x4"/>
    </TTGlyph>
    <TTGlyph name="Cacute.loclPLK" xMin="45" yMin="-12" xMax="678" yMax="868">
      <component glyphName=".ttfautohint" x="45" y="0" flags="0x0"/>
      <component glyphName="C" x="0" y="0" flags="0x0"/>
      <component glyphName="acute.loclPLK" x="218" y="145" flags="0x4"/>
    </TTGlyph>
    <TTGlyph name="Ccaron" xMin="45" yMin="-12" xMax="678" yMax="868">
      <component glyphName=".ttfautohint" x="45" y="0" flags="0x0"/>
      <component glyphName="C" x="0" y="0" flags="0x0"/>
      <component glyphName="caron" x="194" y="145" flags="0x4"/>
    </TTGlyph>
    <TTGlyph name="Ccedilla" xMin="45" yMin="-182" xMax="678" yMax="698">
      <contour>
        <pt x="468" y="82" on="0"/>
        <pt x="569" y="167" on="0"/>
        <pt x="569" y="248" on="1"/>
        <pt x="678" y="248" on="1"/>
        <pt x="678" y="126" on="0"/>
        <pt x="531" y="-5" on="0"/>
        <pt x="407" y="-11" on="1"/>
        <pt x="404" y="-35" on="1"/>
        <pt x="446" y="-38" on="0"/>
        <pt x="497" y="-69" on="0"/>
        <pt x="497" y="-101" on="1"/>
        <pt x="497" y="-146" on="0"/>
        <pt x="422" y="-182" on="0"/>
        <pt x="374" y="-182" on="1"/>
        <pt x="321" y="-182" on="0"/>
        <pt x="276" y="-174" on="1"/>
        <pt x="276" y="-125" on="1"/>
        <pt x="372" y="-125" on="1"/>
        <pt x="393" y="-125" on="0"/>
        <pt x="415" y="-114" on="0"/>
        <pt x="415" y="-101" on="1"/>
        <pt x="415" y="-89" on="0"/>
        <pt x="397" y="-77" on="0"/>
        <pt x="375" y="-77" on="1"/>
        <pt x="327" y="-77" on="1"/>
        <pt x="338" y="-11" on="1"/>
        <pt x="194" y="0" on="0"/>
        <pt x="45" y="175" on="0"/>
        <pt x="45" y="343" on="1"/>
        <pt x="45" y="521" on="0"/>
        <pt x="215" y="698" on="0"/>
        <pt x="379" y="698" on="1"/>
        <pt x="513" y="698" on="0"/>
        <pt x="678" y="564" on="0"/>
        <pt x="678" y="436" on="1"/>
        <pt x="565" y="436" on="1"/>
        <pt x="565" y="517" on="0"/>
        <pt x="465" y="604" on="0"/>
        <pt x="380" y="604" on="1"/>
        <pt x="267" y="604" on="0"/>
        <pt x="160" y="481" on="0"/>
        <pt x="159" y="349" on="1"/>
        <pt x="159" y="338" on="1"/>
        <pt x="159" y="205" on="0"/>
        <pt x="267" y="82" on="0"/>
        <pt x="380" y="82" on="1"/>
      </contour>
    </TTGlyph>
    <TTGlyph name="Ccircumflex" xMin="45" yMin="-12" xMax="678" yMax="868">
      <component glyphName=".ttfautohint" x="45" y="0" flags="0x0"/>
      <component glyphName="C" x="0" y="0" flags="0x0"/>
      <component glyphName="circumflex" x="194" y="145" flags="0x4"/>
    </TTGlyph>
    <TTGlyph name="Cdotaccent" xMin="45" yMin="-12" xMax="678" yMax="868">
      <component glyphName=".ttfautohint" x="45" y="0" flags="0x0"/>
      <component glyphName="C" x="0" y="0" flags="0x0"/>
      <component glyphName="dotaccent" x="194" y="145" flags="0x4"/>
    </TTGlyph>
    <TTGlyph name="D" xMin="75" yMin="0" xMax="677" yMax="686">
      <contour>
        <pt x="75" y="686" on="1"/>
        <pt x="339" y="686" on="1"/>
        <pt x="501" y="686" on="0"/>
        <pt x="677" y="516" on="0"/>
        <pt x="677" y="343" on="1"/>
        <pt x="677" y="170" on="0"/>
        <pt x="501" y="0" on="0"/>
        <pt x="339" y="0" on="1"/>
        <pt x="75" y="0" on="1"/>
      </contour>
      <contour>
        <pt x="339" y="95" on="1"/>
        <pt x="448" y="95" on="0"/>
        <pt x="563" y="212" on="0"/>
        <pt x="563" y="337" on="1"/>
        <pt x="563" y="348" on="1"/>
        <pt x="563" y="474" on="0"/>
        <pt x="448" y="591" on="0"/>
        <pt x="339" y="591" on="1"/>
        <pt x="186" y="591" on="1"/>
        <pt x="186" y="95" on="1"/>
      </contour>
    </TTGlyph>
    <TTGlyph name="Dcaron" xMin="75" yMin="0" xMax="677" yMax="868">
      <component glyphName=".ttfautohint" x="75" y="0" flags="0x0"/>
      <component glyphName="D" x="0" y="0" flags="0x0"/>
      <component glyphName="caron" x="194" y="145" flags="0x4"/>
    </TTGlyph>
    <TTGlyph name="Dcroat" xMin="5" yMin="0" xMax="677" yMax="686">
      <component glyphName=".ttfautohint" x="5" y="0" flags="0x0"/>
      <component glyphName="Eth" x="0" y="0" flags="0x0"/>
    </TTGlyph>
    <TTGlyph name="E" xMin="75" yMin="0" xMax="613" yMax="686">
      <contour>
        <pt x="75" y="686" on="1"/>
        <pt x="607" y="686" on="1"/>
        <pt x="607" y="591" on="1"/>
        <pt x="186" y="591" on="1"/>
        <pt x="186" y="398" on="1"/>
        <pt x="563" y="398" on="1"/>
        <pt x="563" y="303" on="1"/>
        <pt x="186" y="303" on="1"/>
        <pt x="186" y="95" on="1"/>
        <pt x="613" y="95" on="1"/>
        <pt x="613" y="0" on="1"/>
        <pt x="75" y="0" on="1"/>
      </contour>
    </TTGlyph>
    <TTGlyph name="Eacute" xMin="75" yMin="0" xMax="613" yMax="868">
      <component glyphName=".ttfautohint" x="75" y="0" flags="0x0"/>
      <component glyphName="E" x="0" y="0" flags="0x0"/>
      <component glyphName="acute" x="216" y="145" flags="0x4"/>
    </TTGlyph>
    <TTGlyph name="Ebreve" xMin="75" yMin="0" xMax="613" yMax="868">
      <component glyphName=".ttfautohint" x="75" y="0" flags="0x0"/>
      <component glyphName="E" x="0" y="0" flags="0x0"/>
      <component glyphName="breve" x="167" y="145" flags="0x4"/>
    </TTGlyph>
    <TTGlyph name="Ecaron" xMin="75" yMin="0" xMax="613" yMax="868">
      <component glyphName=".ttfautohint" x="75" y="0" flags="0x0"/>
      <component glyphName="E" x="0" y="0" flags="0x0"/>
      <component glyphName="caron" x="167" y="145" flags="0x4"/>
    </TTGlyph>
    <TTGlyph name="Ecircumflex" xMin="75" yMin="0" xMax="613" yMax="868">
      <component glyphName=".ttfautohint" x="75" y="0" flags="0x0"/>
      <component glyphName="E" x="0" y="0" flags="0x0"/>
      <component glyphName="circumflex" x="167" y="145" flags="0x4"/>
    </TTGlyph>
    <TTGlyph name="Edieresis" xMin="75" yMin="0" xMax="613" yMax="868">
      <component glyphName=".ttfautohint" x="75" y="0" flags="0x0"/>
      <component glyphName="E" x="0" y="0" flags="0x0"/>
      <component glyphName="dieresis" x="167" y="145" flags="0x4"/>
    </TTGlyph>
    <TTGlyph name="Edotaccent" xMin="75" yMin="0" xMax="613" yMax="868">
      <component glyphName=".ttfautohint" x="75" y="0" flags="0x0"/>
      <component glyphName="E" x="0" y="0" flags="0x0"/>
      <component glyphName="dotaccent" x="167" y="145" flags="0x4"/>
    </TTGlyph>
    <TTGlyph name="Egrave" xMin="75" yMin="0" xMax="613" yMax="868">
      <component glyphName=".ttfautohint" x="75" y="0" flags="0x0"/>
      <component glyphName="E" x="0" y="0" flags="0x0"/>
      <component glyphName="grave" x="108" y="145" flags="0x4"/>
    </TTGlyph>
    <TTGlyph name="Emacron" xMin="75" yMin="0" xMax="613" yMax="844">
      <component glyphName=".ttfautohint" x="75" y="0" flags="0x0"/>
      <component glyphName="E" x="0" y="0" flags="0x0"/>
      <component glyphName="macron" x="167" y="145" flags="0x4"/>
    </TTGlyph>
    <TTGlyph name="Eng" xMin="75" yMin="-182" xMax="647" yMax="686">
      <contour>
        <pt x="491" y="-182" on="0"/>
        <pt x="450" y="-169" on="1"/>
        <pt x="450" y="-100" on="1"/>
        <pt x="496" y="-100" on="1"/>
        <pt x="518" y="-100" on="0"/>
        <pt x="542" y="-76" on="0"/>
        <pt x="542" y="-53" on="1"/>
        <pt x="542" y="0" on="1"/>
        <pt x="215" y="451" on="1"/>
        <pt x="196" y="477" on="1"/>
        <pt x="184" y="494" on="1"/>
        <pt x="179" y="492" on="1"/>
        <pt x="182" y="459" on="0"/>
        <pt x="182" y="441" on="1"/>
        <pt x="180" y="0" on="1"/>
        <pt x="75" y="0" on="1"/>
        <pt x="75" y="686" on="1"/>
        <pt x="177" y="686" on="1"/>
        <pt x="509" y="241" on="1"/>
        <pt x="520" y="226" on="0"/>
        <pt x="538" y="198" on="1"/>
        <pt x="543" y="200" on="1"/>
        <pt x="542" y="250" on="1"/>
        <pt x="542" y="686" on="1"/>
        <pt x="647" y="686" on="1"/>
        <pt x="647" y="-55" on="1"/>
        <pt x="647" y="-109" on="0"/>
        <pt x="592" y="-182" on="0"/>
        <pt x="528" y="-182" on="1"/>
      </contour>
    </TTGlyph>
    <TTGlyph name="Eogonek" xMin="75" yMin="-182" xMax="613" yMax="686">
      <contour>
        <pt x="507" y="-182" on="0"/>
        <pt x="445" y="-141" on="0"/>
        <pt x="445" y="-96" on="1"/>
        <pt x="445" y="-36" on="0"/>
        <pt x="512" y="0" on="1"/>
        <pt x="75" y="0" on="1"/>
        <pt x="75" y="686" on="1"/>
        <pt x="607" y="686" on="1"/>
        <pt x="607" y="591" on="1"/>
        <pt x="186" y="591" on="1"/>
        <pt x="186" y="398" on="1"/>
        <pt x="563" y="398" on="1"/>
        <pt x="563" y="303" on="1"/>
        <pt x="186" y="303" on="1"/>
        <pt x="186" y="95" on="1"/>
        <pt x="613" y="95" on="1"/>
        <pt x="613" y="0" on="1"/>
        <pt x="578" y="-4" on="0"/>
        <pt x="532" y="-47" on="0"/>
        <pt x="532" y="-69" on="1"/>
        <pt x="532" y="-89" on="0"/>
        <pt x="557" y="-116" on="0"/>
        <pt x="583" y="-116" on="1"/>
        <pt x="613" y="-116" on="1"/>
        <pt x="613" y="-168" on="1"/>
        <pt x="577" y="-182" on="0"/>
        <pt x="546" y="-182" on="1"/>
      </contour>
    </TTGlyph>
    <TTGlyph name="Eth" xMin="5" yMin="0" xMax="677" yMax="686">
      <contour>
        <pt x="501" y="686" on="0"/>
        <pt x="677" y="516" on="0"/>
        <pt x="677" y="343" on="1"/>
        <pt x="677" y="170" on="0"/>
        <pt x="501" y="0" on="0"/>
        <pt x="339" y="0" on="1"/>
        <pt x="75" y="0" on="1"/>
        <pt x="75" y="320" on="1"/>
        <pt x="5" y="320" on="1"/>
        <pt x="5" y="390" on="1"/>
        <pt x="75" y="390" on="1"/>
        <pt x="75" y="686" on="1"/>
        <pt x="339" y="686" on="1"/>
      </contour>
      <contour>
        <pt x="563" y="348" on="1"/>
        <pt x="563" y="474" on="0"/>
        <pt x="448" y="591" on="0"/>
        <pt x="339" y="591" on="1"/>
        <pt x="186" y="591" on="1"/>
        <pt x="186" y="390" on="1"/>
        <pt x="348" y="390" on="1"/>
        <pt x="348" y="320" on="1"/>
        <pt x="186" y="320" on="1"/>
        <pt x="186" y="95" on="1"/>
        <pt x="339" y="95" on="1"/>
        <pt x="448" y="95" on="0"/>
        <pt x="563" y="212" on="0"/>
        <pt x="563" y="337" on="1"/>
      </contour>
    </TTGlyph>
    <TTGlyph name="Euro" xMin="16" yMin="-12" xMax="521" yMax="698">
      <contour>
        <pt x="296" y="-12" on="0"/>
        <pt x="120" y="119" on="0"/>
        <pt x="92" y="238" on="1"/>
        <pt x="16" y="238" on="1"/>
        <pt x="16" y="308" on="1"/>
        <pt x="82" y="308" on="1"/>
        <pt x="81" y="319" on="0"/>
        <pt x="81" y="343" on="1"/>
        <pt x="81" y="366" on="0"/>
        <pt x="82" y="378" on="1"/>
        <pt x="16" y="378" on="1"/>
        <pt x="16" y="448" on="1"/>
        <pt x="92" y="448" on="1"/>
        <pt x="120" y="567" on="0"/>
        <pt x="296" y="698" on="0"/>
        <pt x="428" y="698" on="1"/>
        <pt x="476" y="698" on="0"/>
        <pt x="521" y="686" on="1"/>
        <pt x="521" y="603" on="1"/>
        <pt x="481" y="613" on="0"/>
        <pt x="445" y="613" on="1"/>
        <pt x="357" y="613" on="0"/>
        <pt x="228" y="529" on="0"/>
        <pt x="204" y="448" on="1"/>
        <pt x="450" y="448" on="1"/>
        <pt x="450" y="378" on="1"/>
        <pt x="190" y="378" on="1"/>
        <pt x="188" y="356" on="0"/>
        <pt x="188" y="343" on="1"/>
        <pt x="188" y="330" on="0"/>
        <pt x="190" y="308" on="1"/>
        <pt x="450" y="308" on="1"/>
        <pt x="450" y="238" on="1"/>
        <pt x="204" y="238" on="1"/>
        <pt x="228" y="157" on="0"/>
        <pt x="357" y="73" on="0"/>
        <pt x="445" y="73" on="1"/>
        <pt x="481" y="73" on="0"/>
        <pt x="521" y="83" on="1"/>
        <pt x="521" y="0" on="1"/>
        <pt x="470" y="-12" on="0"/>
        <pt x="428" y="-12" on="1"/>
      </contour>
    </TTGlyph>
    <TTGlyph name="F" xMin="75" yMin="0" xMax="565" yMax="686">
      <contour>
        <pt x="75" y="686" on="1"/>
        <pt x="565" y="686" on="1"/>
        <pt x="565" y="591" on="1"/>
        <pt x="186" y="591" on="1"/>
        <pt x="186" y="388" on="1"/>
        <pt x="528" y="388" on="1"/>
        <pt x="528" y="293" on="1"/>
        <pt x="186" y="293" on="1"/>
        <pt x="186" y="0" on="1"/>
        <pt x="75" y="0" on="1"/>
      </contour>
    </TTGlyph>
    <TTGlyph name="G" xMin="45" yMin="-12" xMax="710" yMax="698">
      <contour>
        <pt x="368" y="362" on="1"/>
        <pt x="710" y="362" on="1"/>
        <pt x="710" y="0" on="1"/>
        <pt x="628" y="0" on="1"/>
        <pt x="619" y="76" on="1"/>
        <pt x="537" y="-12" on="0"/>
        <pt x="383" y="-12" on="1"/>
        <pt x="217" y="-12" on="0"/>
        <pt x="45" y="164" on="0"/>
        <pt x="45" y="343" on="1"/>
        <pt x="45" y="521" on="0"/>
        <pt x="223" y="698" on="0"/>
        <pt x="393" y="698" on="1"/>
        <pt x="485" y="698" on="0"/>
        <pt x="628" y="643" on="0"/>
        <pt x="710" y="532" on="0"/>
        <pt x="710" y="452" on="1"/>
        <pt x="597" y="452" on="1"/>
        <pt x="597" y="526" on="0"/>
        <pt x="486" y="604" on="0"/>
        <pt x="395" y="604" on="1"/>
        <pt x="276" y="604" on="0"/>
        <pt x="160" y="481" on="0"/>
        <pt x="160" y="348" on="1"/>
        <pt x="160" y="337" on="1"/>
        <pt x="160" y="203" on="0"/>
        <pt x="272" y="82" on="0"/>
        <pt x="386" y="82" on="1"/>
        <pt x="491" y="82" on="0"/>
        <pt x="600" y="173" on="0"/>
        <pt x="600" y="262" on="1"/>
        <pt x="600" y="268" on="1"/>
        <pt x="368" y="268" on="1"/>
      </contour>
    </TTGlyph>
    <TTGlyph name="G_tilde.loclGUA" xMin="45" yMin="-12" xMax="710" yMax="868">
      <component glyphName=".ttfautohint" x="45" y="0" flags="0x0"/>
      <component glyphName="G" x="0" y="0" flags="0x0"/>
      <component glyphName="tilde" x="222" y="145" flags="0x4"/>
    </TTGlyph>
    <TTGlyph name="Gbreve" xMin="45" yMin="-12" xMax="710" yMax="868">
      <component glyphName=".ttfautohint" x="45" y="0" flags="0x0"/>
      <component glyphName="G" x="0" y="0" flags="0x0"/>
      <component glyphName="breve" x="222" y="145" flags="0x4"/>
    </TTGlyph>
    <TTGlyph name="Gcaron" xMin="45" yMin="-12" xMax="710" yMax="868">
      <component glyphName=".ttfautohint" x="45" y="0" flags="0x0"/>
      <component glyphName="G" x="0" y="0" flags="0x0"/>
      <component glyphName="caron" x="222" y="145" flags="0x4"/>
    </TTGlyph>
    <TTGlyph name="Gcircumflex" xMin="45" yMin="-12" xMax="710" yMax="868">
      <component glyphName=".ttfautohint" x="45" y="0" flags="0x0"/>
      <component glyphName="G" x="0" y="0" flags="0x0"/>
      <component glyphName="circumflex" x="222" y="145" flags="0x4"/>
    </TTGlyph>
    <TTGlyph name="Gcommaaccent" xMin="45" yMin="-230" xMax="710" yMax="698">
      <component glyphName=".ttfautohint" x="45" y="0" flags="0x0"/>
      <component glyphName="G" x="0" y="0" flags="0x0"/>
      <component glyphName="uni0326" x="517" y="0" flags="0x0"/>
    </TTGlyph>
    <TTGlyph name="Gdotaccent" xMin="45" yMin="-12" xMax="710" yMax="868">
      <component glyphName=".ttfautohint" x="45" y="0" flags="0x0"/>
      <component glyphName="G" x="0" y="0" flags="0x0"/>
      <component glyphName="dotaccent" x="222" y="145" flags="0x4"/>
    </TTGlyph>
    <TTGlyph name="H" xMin="75" yMin="0" xMax="647" yMax="686">
      <contour>
        <pt x="75" y="686" on="1"/>
        <pt x="186" y="686" on="1"/>
        <pt x="186" y="399" on="1"/>
        <pt x="536" y="399" on="1"/>
        <pt x="536" y="686" on="1"/>
        <pt x="647" y="686" on="1"/>
        <pt x="647" y="0" on="1"/>
        <pt x="536" y="0" on="1"/>
        <pt x="536" y="303" on="1"/>
        <pt x="186" y="303" on="1"/>
        <pt x="186" y="0" on="1"/>
        <pt x="75" y="0" on="1"/>
      </contour>
    </TTGlyph>
    <TTGlyph name="Hbar" xMin="8" yMin="0" xMax="714" yMax="686">
      <contour>
        <pt x="75" y="520" on="1"/>
        <pt x="8" y="520" on="1"/>
        <pt x="8" y="598" on="1"/>
        <pt x="75" y="598" on="1"/>
        <pt x="75" y="686" on="1"/>
        <pt x="186" y="686" on="1"/>
        <pt x="186" y="598" on="1"/>
        <pt x="536" y="598" on="1"/>
        <pt x="536" y="686" on="1"/>
        <pt x="647" y="686" on="1"/>
        <pt x="647" y="598" on="1"/>
        <pt x="714" y="598" on="1"/>
        <pt x="714" y="520" on="1"/>
        <pt x="647" y="520" on="1"/>
        <pt x="647" y="0" on="1"/>
        <pt x="536" y="0" on="1"/>
        <pt x="536" y="303" on="1"/>
        <pt x="186" y="303" on="1"/>
        <pt x="186" y="0" on="1"/>
        <pt x="75" y="0" on="1"/>
      </contour>
      <contour>
        <pt x="536" y="399" on="1"/>
        <pt x="536" y="520" on="1"/>
        <pt x="186" y="520" on="1"/>
        <pt x="186" y="399" on="1"/>
      </contour>
    </TTGlyph>
    <TTGlyph name="Hcircumflex" xMin="75" yMin="0" xMax="647" yMax="868">
      <component glyphName=".ttfautohint" x="75" y="0" flags="0x0"/>
      <component glyphName="H" x="0" y="0" flags="0x0"/>
      <component glyphName="circumflex" x="194" y="145" flags="0x4"/>
    </TTGlyph>
    <TTGlyph name="I" xMin="84" yMin="0" xMax="195" yMax="686">
      <contour>
        <pt x="84" y="686" on="1"/>
        <pt x="195" y="686" on="1"/>
        <pt x="195" y="0" on="1"/>
        <pt x="84" y="0" on="1"/>
      </contour>
    </TTGlyph>
    <TTGlyph name="IJ" xMin="84" yMin="-12" xMax="722" yMax="686">
      <component glyphName=".ttfautohint" x="84" y="0" flags="0x0"/>
      <component glyphName="I" x="0" y="0" flags="0x0"/>
      <component glyphName="J" x="278" y="0" flags="0x0"/>
    </TTGlyph>
    <TTGlyph name="Iacute" xMin="84" yMin="0" xMax="288" yMax="868">
      <component glyphName=".ttfautohint" x="84" y="0" flags="0x0"/>
      <component glyphName="I" x="0" y="0" flags="0x0"/>
      <component glyphName="acute" x="21" y="145" flags="0x4"/>
    </TTGlyph>
    <TTGlyph name="Iacute_J.loclNLD" xMin="84" yMin="-12" xMax="816" yMax="868">
      <component glyphName=".ttfautohint" x="84" y="0" flags="0x0"/>
      <component glyphName="I" x="0" y="0" flags="0x0"/>
      <component glyphName="acute" x="21" y="145" flags="0x4"/>
      <component glyphName="J" x="278" y="0" flags="0x0"/>
      <component glyphName="acute" x="549" y="145" flags="0x4"/>
    </TTGlyph>
    <TTGlyph name="Ibreve" xMin="-12" yMin="0" xMax="289" yMax="868">
      <component glyphName=".ttfautohint" x="0" y="0" flags="0x0"/>
      <component glyphName="I" x="0" y="0" flags="0x0"/>
      <component glyphName="breve" x="-28" y="145" flags="0x4"/>
    </TTGlyph>
    <TTGlyph name="Icircumflex" xMin="-15" yMin="0" xMax="292" yMax="868">
      <component glyphName=".ttfautohint" x="0" y="0" flags="0x0"/>
      <component glyphName="I" x="0" y="0" flags="0x0"/>
      <component glyphName="circumflex" x="-28" y="145" flags="0x4"/>
    </TTGlyph>
    <TTGlyph name="Idieresis" xMin="-7" yMin="0" xMax="284" yMax="868">
      <component glyphName=".ttfautohint" x="0" y="0" flags="0x0"/>
      <component glyphName="I" x="0" y="0" flags="0x0"/>
      <component glyphName="dieresis" x="-28" y="145" flags="0x4"/>
    </TTGlyph>
    <TTGlyph name="Idotaccent" xMin="84" yMin="0" xMax="195" yMax="868">
      <component glyphName=".ttfautohint" x="84" y="0" flags="0x0"/>
      <component glyphName="I" x="0" y="0" flags="0x0"/>
      <component glyphName="dotaccent" x="-28" y="145" flags="0x4"/>
    </TTGlyph>
    <TTGlyph name="Igrave" xMin="-12" yMin="0" xMax="195" yMax="868">
      <component glyphName=".ttfautohint" x="0" y="0" flags="0x0"/>
      <component glyphName="I" x="0" y="0" flags="0x0"/>
      <component glyphName="grave" x="-87" y="145" flags="0x4"/>
    </TTGlyph>
    <TTGlyph name="Imacron" xMin="-14" yMin="0" xMax="291" yMax="844">
      <component glyphName=".ttfautohint" x="0" y="0" flags="0x0"/>
      <component glyphName="I" x="0" y="0" flags="0x0"/>
      <component glyphName="macron" x="-28" y="145" flags="0x4"/>
    </TTGlyph>
    <TTGlyph name="Iogonek" xMin="40" yMin="-190" xMax="207" yMax="686">
      <contour>
        <pt x="207" y="-124" on="1"/>
        <pt x="207" y="-176" on="1"/>
        <pt x="173" y="-190" on="0"/>
        <pt x="143" y="-190" on="1"/>
        <pt x="101" y="-190" on="0"/>
        <pt x="40" y="-148" on="0"/>
        <pt x="40" y="-101" on="1"/>
        <pt x="40" y="-69" on="0"/>
        <pt x="66" y="-22" on="0"/>
        <pt x="90" y="0" on="1"/>
        <pt x="84" y="0" on="1"/>
        <pt x="84" y="686" on="1"/>
        <pt x="195" y="686" on="1"/>
        <pt x="195" y="0" on="1"/>
        <pt x="162" y="0" on="1"/>
        <pt x="148" y="-14" on="0"/>
        <pt x="126" y="-51" on="0"/>
        <pt x="126" y="-70" on="1"/>
        <pt x="126" y="-93" on="0"/>
        <pt x="151" y="-124" on="0"/>
        <pt x="177" y="-124" on="1"/>
      </contour>
    </TTGlyph>
    <TTGlyph name="Itilde" xMin="-26" yMin="0" xMax="304" yMax="868">
      <component glyphName=".ttfautohint" x="0" y="0" flags="0x0"/>
      <component glyphName="I" x="0" y="0" flags="0x0"/>
      <component glyphName="tilde" x="-28" y="145" flags="0x4"/>
    </TTGlyph>
    <TTGlyph name="J" xMin="28" yMin="-12" xMax="444" yMax="686">
      <contour>
        <pt x="136" y="-12" on="0"/>
        <pt x="28" y="89" on="0"/>
        <pt x="28" y="186" on="1"/>
        <pt x="28" y="217" on="1"/>
        <pt x="138" y="217" on="1"/>
        <pt x="138" y="183" on="1"/>
        <pt x="138" y="134" on="0"/>
        <pt x="188" y="82" on="0"/>
        <pt x="236" y="82" on="1"/>
        <pt x="284" y="82" on="0"/>
        <pt x="334" y="139" on="0"/>
        <pt x="334" y="194" on="1"/>
        <pt x="334" y="686" on="1"/>
        <pt x="444" y="686" on="1"/>
        <pt x="444" y="197" on="1"/>
        <pt x="444" y="93" on="0"/>
        <pt x="337" y="-12" on="0"/>
        <pt x="236" y="-12" on="1"/>
      </contour>
    </TTGlyph>
    <TTGlyph name="Jcircumflex" xMin="28" yMin="-12" xMax="542" yMax="868">
      <component glyphName=".ttfautohint" x="28" y="0" flags="0x0"/>
      <component glyphName="J" x="0" y="0" flags="0x0"/>
      <component glyphName="circumflex" x="222" y="145" flags="0x4"/>
    </TTGlyph>
    <TTGlyph name="K" xMin="75" yMin="0" xMax="678" yMax="686">
      <contour>
        <pt x="75" y="686" on="1"/>
        <pt x="186" y="686" on="1"/>
        <pt x="186" y="322" on="1"/>
        <pt x="535" y="686" on="1"/>
        <pt x="670" y="686" on="1"/>
        <pt x="407" y="410" on="1"/>
        <pt x="678" y="0" on="1"/>
        <pt x="547" y="0" on="1"/>
        <pt x="332" y="332" on="1"/>
        <pt x="186" y="200" on="1"/>
        <pt x="186" y="0" on="1"/>
        <pt x="75" y="0" on="1"/>
      </contour>
    </TTGlyph>
    <TTGlyph name="Kcommaaccent" xMin="75" yMin="-230" xMax="678" yMax="686">
      <component glyphName=".ttfautohint" x="75" y="0" flags="0x0"/>
      <component glyphName="K" x="0" y="0" flags="0x0"/>
      <component glyphName="uni0326" x="470" y="0" flags="0x0"/>
    </TTGlyph>
    <TTGlyph name="L" xMin="75" yMin="0" xMax="543" yMax="686">
      <contour>
        <pt x="75" y="686" on="1"/>
        <pt x="186" y="686" on="1"/>
        <pt x="186" y="96" on="1"/>
        <pt x="543" y="96" on="1"/>
        <pt x="543" y="0" on="1"/>
        <pt x="75" y="0" on="1"/>
      </contour>
    </TTGlyph>
    <TTGlyph name="Lacute" xMin="75" yMin="0" xMax="543" yMax="868">
      <component glyphName=".ttfautohint" x="75" y="0" flags="0x0"/>
      <component glyphName="L" x="0" y="0" flags="0x0"/>
      <component glyphName="acute" x="13" y="145" flags="0x4"/>
    </TTGlyph>
    <TTGlyph name="Lcaron" xMin="75" yMin="0" xMax="543" yMax="686">
      <contour>
        <pt x="75" y="686" on="1"/>
        <pt x="186" y="686" on="1"/>
        <pt x="186" y="96" on="1"/>
        <pt x="543" y="96" on="1"/>
        <pt x="543" y="0" on="1"/>
        <pt x="75" y="0" on="1"/>
      </contour>
      <contour>
        <pt x="371" y="584" on="1"/>
        <pt x="330" y="584" on="1"/>
        <pt x="330" y="686" on="1"/>
        <pt x="432" y="686" on="1"/>
        <pt x="432" y="593" on="1"/>
        <pt x="383" y="475" on="1"/>
        <pt x="330" y="475" on="1"/>
      </contour>
    </TTGlyph>
    <TTGlyph name="Lcommaaccent" xMin="75" yMin="-230" xMax="543" yMax="686">
      <component glyphName=".ttfautohint" x="75" y="0" flags="0x0"/>
      <component glyphName="L" x="0" y="0" flags="0x0"/>
      <component glyphName="uni0326" x="438" y="0" flags="0x0"/>
    </TTGlyph>
    <TTGlyph name="Ldot" xMin="75" yMin="0" xMax="543" yMax="686">
      <component glyphName=".ttfautohint" x="75" y="0" flags="0x0"/>
      <component glyphName="L" x="0" y="0" flags="0x0"/>
      <component glyphName="periodcentered" x="239" y="110" flags="0x4"/>
    </TTGlyph>
    <TTGlyph name="Lslash" xMin="3" yMin="0" xMax="543" yMax="686">
      <contour>
        <pt x="75" y="259" on="1"/>
        <pt x="3" y="212" on="1"/>
        <pt x="3" y="299" on="1"/>
        <pt x="75" y="347" on="1"/>
        <pt x="75" y="686" on="1"/>
        <pt x="186" y="686" on="1"/>
        <pt x="186" y="420" on="1"/>
        <pt x="345" y="525" on="1"/>
        <pt x="345" y="437" on="1"/>
        <pt x="186" y="332" on="1"/>
        <pt x="186" y="96" on="1"/>
        <pt x="543" y="96" on="1"/>
        <pt x="543" y="0" on="1"/>
        <pt x="75" y="0" on="1"/>
      </contour>
    </TTGlyph>
    <TTGlyph name="M" xMin="75" yMin="0" xMax="758" yMax="686">
      <contour>
        <pt x="75" y="686" on="1"/>
        <pt x="242" y="686" on="1"/>
        <pt x="386" y="246" on="1"/>
        <pt x="395" y="219" on="0"/>
        <pt x="414" y="140" on="0"/>
        <pt x="417" y="127" on="1"/>
        <pt x="421" y="127" on="1"/>
        <pt x="424" y="140" on="0"/>
        <pt x="443" y="223" on="0"/>
        <pt x="451" y="246" on="1"/>
        <pt x="594" y="686" on="1"/>
        <pt x="758" y="686" on="1"/>
        <pt x="758" y="0" on="1"/>
        <pt x="647" y="0" on="1"/>
        <pt x="647" y="448" on="1"/>
        <pt x="647" y="476" on="0"/>
        <pt x="650" y="555" on="0"/>
        <pt x="651" y="571" on="1"/>
        <pt x="644" y="571" on="1"/>
        <pt x="634" y="526" on="0"/>
        <pt x="626" y="500" on="1"/>
        <pt x="461" y="0" on="1"/>
        <pt x="364" y="0" on="1"/>
        <pt x="201" y="500" on="1"/>
        <pt x="196" y="515" on="0"/>
        <pt x="187" y="551" on="1"/>
        <pt x="182" y="571" on="1"/>
        <pt x="177" y="571" on="1"/>
        <pt x="177" y="556" on="0"/>
        <pt x="180" y="479" on="0"/>
        <pt x="180" y="448" on="1"/>
        <pt x="180" y="0" on="1"/>
        <pt x="75" y="0" on="1"/>
      </contour>
    </TTGlyph>
    <TTGlyph name="N" xMin="75" yMin="0" xMax="647" yMax="686">
      <contour>
        <pt x="75" y="686" on="1"/>
        <pt x="177" y="686" on="1"/>
        <pt x="509" y="240" on="1"/>
        <pt x="520" y="225" on="0"/>
        <pt x="538" y="197" on="1"/>
        <pt x="543" y="199" on="1"/>
        <pt x="542" y="249" on="1"/>
        <pt x="542" y="686" on="1"/>
        <pt x="647" y="686" on="1"/>
        <pt x="647" y="0" on="1"/>
        <pt x="547" y="0" on="1"/>
        <pt x="214" y="451" on="1"/>
        <pt x="206" y="461" on="0"/>
        <pt x="188" y="489" on="0"/>
        <pt x="184" y="495" on="1"/>
        <pt x="179" y="494" on="1"/>
        <pt x="180" y="443" on="1"/>
        <pt x="180" y="0" on="1"/>
        <pt x="75" y="0" on="1"/>
      </contour>
    </TTGlyph>
    <TTGlyph name="Nacute" xMin="75" yMin="0" xMax="647" yMax="868">
      <component glyphName=".ttfautohint" x="75" y="0" flags="0x0"/>
      <component glyphName="N" x="0" y="0" flags="0x0"/>
      <component glyphName="acute" x="243" y="145" flags="0x4"/>
    </TTGlyph>
    <TTGlyph name="Nacute.loclPLK" xMin="75" yMin="0" xMax="647" yMax="868">
      <component glyphName=".ttfautohint" x="75" y="0" flags="0x0"/>
      <component glyphName="N" x="0" y="0" flags="0x0"/>
      <component glyphName="acute.loclPLK" x="218" y="145" flags="0x4"/>
    </TTGlyph>
    <TTGlyph name="Ncaron" xMin="75" yMin="0" xMax="647" yMax="868">
      <component glyphName=".ttfautohint" x="75" y="0" flags="0x0"/>
      <component glyphName="N" x="0" y="0" flags="0x0"/>
      <component glyphName="caron" x="194" y="145" flags="0x4"/>
    </TTGlyph>
    <TTGlyph name="Ncommaaccent" xMin="75" yMin="-230" xMax="647" yMax="686">
      <component glyphName=".ttfautohint" x="75" y="0" flags="0x0"/>
      <component glyphName="N" x="0" y="0" flags="0x0"/>
      <component glyphName="uni0326" x="489" y="0" flags="0x0"/>
    </TTGlyph>
    <TTGlyph name="Ntilde" xMin="75" yMin="0" xMax="647" yMax="868">
      <component glyphName=".ttfautohint" x="75" y="0" flags="0x0"/>
      <component glyphName="N" x="0" y="0" flags="0x0"/>
      <component glyphName="tilde" x="194" y="145" flags="0x4"/>
    </TTGlyph>
    <TTGlyph name="O" xMin="45" yMin="-12" xMax="734" yMax="698">
      <contour>
        <pt x="225" y="-12" on="0"/>
        <pt x="45" y="167" on="0"/>
        <pt x="45" y="343" on="1"/>
        <pt x="45" y="519" on="0"/>
        <pt x="225" y="698" on="0"/>
        <pt x="389" y="698" on="1"/>
        <pt x="554" y="698" on="0"/>
        <pt x="734" y="519" on="0"/>
        <pt x="734" y="343" on="1"/>
        <pt x="734" y="167" on="0"/>
        <pt x="554" y="-12" on="0"/>
        <pt x="389" y="-12" on="1"/>
      </contour>
      <contour>
        <pt x="620" y="82" on="0"/>
        <pt x="620" y="336" on="1"/>
        <pt x="620" y="348" on="1"/>
        <pt x="619" y="604" on="0"/>
        <pt x="389" y="604" on="1"/>
        <pt x="160" y="604" on="0"/>
        <pt x="159" y="348" on="1"/>
        <pt x="159" y="336" on="1"/>
        <pt x="159" y="82" on="0"/>
        <pt x="389" y="82" on="1"/>
      </contour>
    </TTGlyph>
    <TTGlyph name="OE" xMin="45" yMin="-12" xMax="946" yMax="698">
      <contour>
        <pt x="188" y="-12" on="0"/>
        <pt x="45" y="168" on="0"/>
        <pt x="45" y="343" on="1"/>
        <pt x="45" y="518" on="0"/>
        <pt x="188" y="698" on="0"/>
        <pt x="319" y="698" on="1"/>
        <pt x="433" y="698" on="0"/>
        <pt x="502" y="617" on="1"/>
        <pt x="502" y="686" on="1"/>
        <pt x="939" y="686" on="1"/>
        <pt x="939" y="593" on="1"/>
        <pt x="612" y="593" on="1"/>
        <pt x="612" y="397" on="1"/>
        <pt x="887" y="397" on="1"/>
        <pt x="887" y="304" on="1"/>
        <pt x="612" y="304" on="1"/>
        <pt x="612" y="93" on="1"/>
        <pt x="946" y="93" on="1"/>
        <pt x="946" y="0" on="1"/>
        <pt x="502" y="0" on="1"/>
        <pt x="502" y="69" on="1"/>
        <pt x="433" y="-12" on="0"/>
        <pt x="319" y="-12" on="1"/>
      </contour>
      <contour>
        <pt x="417" y="82" on="0"/>
        <pt x="502" y="205" on="0"/>
        <pt x="502" y="343" on="1"/>
        <pt x="502" y="481" on="0"/>
        <pt x="417" y="604" on="0"/>
        <pt x="337" y="604" on="1"/>
        <pt x="246" y="604" on="0"/>
        <pt x="159" y="481" on="0"/>
        <pt x="159" y="343" on="1"/>
        <pt x="159" y="205" on="0"/>
        <pt x="246" y="82" on="0"/>
        <pt x="337" y="82" on="1"/>
      </contour>
    </TTGlyph>
    <TTGlyph name="Oacute" xMin="45" yMin="-12" xMax="734" yMax="868">
      <component glyphName=".ttfautohint" x="45" y="0" flags="0x0"/>
      <component glyphName="O" x="0" y="0" flags="0x0"/>
      <component glyphName="acute" x="271" y="145" flags="0x4"/>
    </TTGlyph>
    <TTGlyph name="Oacute.loclPLK" xMin="45" yMin="-12" xMax="734" yMax="868">
      <component glyphName=".ttfautohint" x="45" y="0" flags="0x0"/>
      <component glyphName="O" x="0" y="0" flags="0x0"/>
      <component glyphName="acute.loclPLK" x="246" y="145" flags="0x4"/>
    </TTGlyph>
    <TTGlyph name="Obreve" xMin="45" yMin="-12" xMax="734" yMax="868">
      <component glyphName=".ttfautohint" x="45" y="0" flags="0x0"/>
      <component glyphName="O" x="0" y="0" flags="0x0"/>
      <component glyphName="breve" x="222" y="145" flags="0x4"/>
    </TTGlyph>
    <TTGlyph name="Ocircumflex" xMin="45" yMin="-12" xMax="734" yMax="868">
      <component glyphName=".ttfautohint" x="45" y="0" flags="0x0"/>
      <component glyphName="O" x="0" y="0" flags="0x0"/>
      <component glyphName="circumflex" x="222" y="145" flags="0x4"/>
    </TTGlyph>
    <TTGlyph name="Odieresis" xMin="45" yMin="-12" xMax="734" yMax="868">
      <component glyphName=".ttfautohint" x="45" y="0" flags="0x0"/>
      <component glyphName="O" x="0" y="0" flags="0x0"/>
      <component glyphName="dieresis" x="222" y="145" flags="0x4"/>
    </TTGlyph>
    <TTGlyph name="Ograve" xMin="45" yMin="-12" xMax="734" yMax="868">
      <component glyphName=".ttfautohint" x="45" y="0" flags="0x0"/>
      <component glyphName="O" x="0" y="0" flags="0x0"/>
      <component glyphName="grave" x="163" y="145" flags="0x4"/>
    </TTGlyph>
    <TTGlyph name="Ohorn" xMin="45" yMin="-12" xMax="784" yMax="828">
      <contour>
        <pt x="784" y="635" on="0"/>
        <pt x="663" y="587" on="1"/>
        <pt x="734" y="497" on="0"/>
        <pt x="734" y="343" on="1"/>
        <pt x="734" y="167" on="0"/>
        <pt x="554" y="-12" on="0"/>
        <pt x="389" y="-12" on="1"/>
        <pt x="225" y="-12" on="0"/>
        <pt x="45" y="167" on="0"/>
        <pt x="45" y="343" on="1"/>
        <pt x="45" y="519" on="0"/>
        <pt x="225" y="698" on="0"/>
        <pt x="389" y="698" on="1"/>
        <pt x="531" y="698" on="0"/>
        <pt x="615" y="633" on="1"/>
        <pt x="692" y="653" on="0"/>
        <pt x="711" y="711" on="1"/>
        <pt x="652" y="711" on="1"/>
        <pt x="652" y="828" on="1"/>
        <pt x="784" y="828" on="1"/>
        <pt x="784" y="774" on="1"/>
      </contour>
      <contour>
        <pt x="620" y="348" on="1"/>
        <pt x="619" y="604" on="0"/>
        <pt x="389" y="604" on="1"/>
        <pt x="160" y="604" on="0"/>
        <pt x="159" y="348" on="1"/>
        <pt x="159" y="336" on="1"/>
        <pt x="159" y="82" on="0"/>
        <pt x="389" y="82" on="1"/>
        <pt x="620" y="82" on="0"/>
        <pt x="620" y="336" on="1"/>
      </contour>
    </TTGlyph>
    <TTGlyph name="Ohungarumlaut" xMin="45" yMin="-12" xMax="734" yMax="868">
      <component glyphName=".ttfautohint" x="45" y="0" flags="0x0"/>
      <component glyphName="O" x="0" y="0" flags="0x0"/>
      <component glyphName="hungarumlaut" x="250" y="145" flags="0x4"/>
    </TTGlyph>
    <TTGlyph name="Omacron" xMin="45" yMin="-12" xMax="734" yMax="844">
      <component glyphName=".ttfautohint" x="45" y="0" flags="0x0"/>
      <component glyphName="O" x="0" y="0" flags="0x0"/>
      <component glyphName="macron" x="222" y="145" flags="0x4"/>
    </TTGlyph>
    <TTGlyph name="Oslash" xMin="45" yMin="-49" xMax="734" yMax="735">
      <contour>
        <pt x="140" y="73" on="1"/>
        <pt x="45" y="163" on="0"/>
        <pt x="45" y="343" on="1"/>
        <pt x="45" y="519" on="0"/>
        <pt x="225" y="698" on="0"/>
        <pt x="389" y="698" on="1"/>
        <pt x="505" y="698" on="0"/>
        <pt x="583" y="654" on="1"/>
        <pt x="645" y="735" on="1"/>
        <pt x="732" y="735" on="1"/>
        <pt x="639" y="613" on="1"/>
        <pt x="734" y="521" on="0"/>
        <pt x="734" y="343" on="1"/>
        <pt x="734" y="167" on="0"/>
        <pt x="554" y="-12" on="0"/>
        <pt x="389" y="-12" on="1"/>
        <pt x="275" y="-12" on="0"/>
        <pt x="196" y="31" on="1"/>
        <pt x="135" y="-49" on="1"/>
        <pt x="47" y="-49" on="1"/>
      </contour>
      <contour>
        <pt x="522" y="573" on="1"/>
        <pt x="469" y="604" on="0"/>
        <pt x="389" y="604" on="1"/>
        <pt x="159" y="604" on="0"/>
        <pt x="159" y="350" on="1"/>
        <pt x="159" y="338" on="1"/>
        <pt x="159" y="222" on="0"/>
        <pt x="206" y="160" on="1"/>
      </contour>
      <contour>
        <pt x="620" y="82" on="0"/>
        <pt x="620" y="336" on="1"/>
        <pt x="620" y="348" on="1"/>
        <pt x="620" y="460" on="0"/>
        <pt x="573" y="526" on="1"/>
        <pt x="258" y="112" on="1"/>
        <pt x="308" y="82" on="0"/>
        <pt x="389" y="82" on="1"/>
      </contour>
    </TTGlyph>
    <TTGlyph name="Oslashacute" xMin="45" yMin="-49" xMax="734" yMax="868">
      <component glyphName=".ttfautohint" x="45" y="0" flags="0x0"/>
      <component glyphName="Oslash" x="0" y="0" flags="0x0"/>
      <component glyphName="acute" x="271" y="145" flags="0x4"/>
    </TTGlyph>
    <TTGlyph name="Otilde" xMin="45" yMin="-12" xMax="734" yMax="868">
      <component glyphName=".ttfautohint" x="45" y="0" flags="0x0"/>
      <component glyphName="O" x="0" y="0" flags="0x0"/>
      <component glyphName="tilde" x="222" y="145" flags="0x4"/>
    </TTGlyph>
    <TTGlyph name="P" xMin="75" yMin="0" xMax="626" yMax="686">
      <contour>
        <pt x="75" y="686" on="1"/>
        <pt x="407" y="686" on="1"/>
        <pt x="514" y="686" on="0"/>
        <pt x="626" y="571" on="0"/>
        <pt x="626" y="472" on="1"/>
        <pt x="626" y="373" on="0"/>
        <pt x="509" y="255" on="0"/>
        <pt x="404" y="255" on="1"/>
        <pt x="186" y="255" on="1"/>
        <pt x="186" y="0" on="1"/>
        <pt x="75" y="0" on="1"/>
      </contour>
      <contour>
        <pt x="400" y="350" on="1"/>
        <pt x="453" y="350" on="0"/>
        <pt x="514" y="415" on="0"/>
        <pt x="514" y="472" on="1"/>
        <pt x="514" y="529" on="0"/>
        <pt x="456" y="591" on="0"/>
        <pt x="400" y="591" on="1"/>
        <pt x="186" y="591" on="1"/>
        <pt x="186" y="350" on="1"/>
      </contour>
    </TTGlyph>
    <TTGlyph name="Q" xMin="45" yMin="-130" xMax="734" yMax="698">
      <contour>
        <pt x="430" y="-10" on="1"/>
        <pt x="404" y="-12" on="0"/>
        <pt x="389" y="-12" on="1"/>
        <pt x="225" y="-12" on="0"/>
        <pt x="45" y="167" on="0"/>
        <pt x="45" y="343" on="1"/>
        <pt x="45" y="519" on="0"/>
        <pt x="225" y="698" on="0"/>
        <pt x="389" y="698" on="1"/>
        <pt x="554" y="698" on="0"/>
        <pt x="734" y="519" on="0"/>
        <pt x="734" y="343" on="1"/>
        <pt x="734" y="217" on="0"/>
        <pt x="639" y="52" on="0"/>
        <pt x="550" y="16" on="1"/>
        <pt x="701" y="-130" on="1"/>
        <pt x="549" y="-130" on="1"/>
      </contour>
      <contour>
        <pt x="620" y="82" on="0"/>
        <pt x="620" y="336" on="1"/>
        <pt x="620" y="348" on="1"/>
        <pt x="619" y="604" on="0"/>
        <pt x="389" y="604" on="1"/>
        <pt x="160" y="604" on="0"/>
        <pt x="159" y="348" on="1"/>
        <pt x="159" y="336" on="1"/>
        <pt x="159" y="82" on="0"/>
        <pt x="389" y="82" on="1"/>
      </contour>
    </TTGlyph>
    <TTGlyph name="R" xMin="75" yMin="0" xMax="681" yMax="686">
      <contour>
        <pt x="75" y="686" on="1"/>
        <pt x="434" y="686" on="1"/>
        <pt x="541" y="686" on="0"/>
        <pt x="653" y="578" on="0"/>
        <pt x="653" y="485" on="1"/>
        <pt x="653" y="414" on="0"/>
        <pt x="589" y="314" on="0"/>
        <pt x="529" y="291" on="1"/>
        <pt x="681" y="0" on="1"/>
        <pt x="560" y="0" on="1"/>
        <pt x="419" y="275" on="1"/>
        <pt x="186" y="275" on="1"/>
        <pt x="186" y="0" on="1"/>
        <pt x="75" y="0" on="1"/>
      </contour>
      <contour>
        <pt x="427" y="369" on="1"/>
        <pt x="480" y="369" on="0"/>
        <pt x="541" y="430" on="0"/>
        <pt x="541" y="484" on="1"/>
        <pt x="541" y="535" on="0"/>
        <pt x="483" y="591" on="0"/>
        <pt x="427" y="591" on="1"/>
        <pt x="186" y="591" on="1"/>
        <pt x="186" y="369" on="1"/>
      </contour>
    </TTGlyph>
    <TTGlyph name="Racute" xMin="75" yMin="0" xMax="681" yMax="868">
      <component glyphName=".ttfautohint" x="75" y="0" flags="0x0"/>
      <component glyphName="R" x="0" y="0" flags="0x0"/>
      <component glyphName="acute" x="243" y="145" flags="0x4"/>
    </TTGlyph>
    <TTGlyph name="Rcaron" xMin="75" yMin="0" xMax="681" yMax="868">
      <component glyphName=".ttfautohint" x="75" y="0" flags="0x0"/>
      <component glyphName="R" x="0" y="0" flags="0x0"/>
      <component glyphName="caron" x="194" y="145" flags="0x4"/>
    </TTGlyph>
    <TTGlyph name="Rcommaaccent" xMin="75" yMin="-230" xMax="681" yMax="686">
      <component glyphName=".ttfautohint" x="75" y="0" flags="0x0"/>
      <component glyphName="R" x="0" y="0" flags="0x0"/>
      <component glyphName="uni0326" x="489" y="0" flags="0x0"/>
    </TTGlyph>
    <TTGlyph name="S" xMin="47" yMin="-12" xMax="618" yMax="698">
      <contour>
        <pt x="207" y="-12" on="0"/>
        <pt x="47" y="91" on="0"/>
        <pt x="47" y="196" on="1"/>
        <pt x="48" y="217" on="1"/>
        <pt x="158" y="217" on="1"/>
        <pt x="158" y="215" on="0"/>
        <pt x="156" y="204" on="0"/>
        <pt x="156" y="197" on="1"/>
        <pt x="156" y="141" on="0"/>
        <pt x="250" y="82" on="0"/>
        <pt x="330" y="82" on="1"/>
        <pt x="418" y="82" on="0"/>
        <pt x="508" y="134" on="0"/>
        <pt x="508" y="183" on="1"/>
        <pt x="508" y="218" on="0"/>
        <pt x="459" y="263" on="0"/>
        <pt x="384" y="290" on="0"/>
        <pt x="320" y="307" on="1"/>
        <pt x="239" y="328" on="0"/>
        <pt x="136" y="369" on="0"/>
        <pt x="64" y="448" on="0"/>
        <pt x="64" y="512" on="1"/>
        <pt x="64" y="603" on="0"/>
        <pt x="214" y="698" on="0"/>
        <pt x="334" y="698" on="1"/>
        <pt x="452" y="698" on="0"/>
        <pt x="599" y="600" on="0"/>
        <pt x="599" y="502" on="1"/>
        <pt x="599" y="490" on="1"/>
        <pt x="491" y="490" on="1"/>
        <pt x="491" y="503" on="1"/>
        <pt x="491" y="551" on="0"/>
        <pt x="405" y="604" on="0"/>
        <pt x="336" y="604" on="1"/>
        <pt x="262" y="604" on="0"/>
        <pt x="175" y="560" on="0"/>
        <pt x="175" y="518" on="1"/>
        <pt x="175" y="487" on="0"/>
        <pt x="223" y="446" on="0"/>
        <pt x="295" y="420" on="0"/>
        <pt x="357" y="404" on="1"/>
        <pt x="441" y="382" on="0"/>
        <pt x="544" y="342" on="0"/>
        <pt x="618" y="263" on="0"/>
        <pt x="618" y="199" on="1"/>
        <pt x="618" y="89" on="0"/>
        <pt x="464" y="-12" on="0"/>
        <pt x="331" y="-12" on="1"/>
      </contour>
    </TTGlyph>
    <TTGlyph name="Sacute" xMin="47" yMin="-12" xMax="618" yMax="868">
      <component glyphName=".ttfautohint" x="47" y="0" flags="0x0"/>
      <component glyphName="S" x="0" y="0" flags="0x0"/>
      <component glyphName="acute" x="216" y="145" flags="0x4"/>
    </TTGlyph>
    <TTGlyph name="Sacute.loclPLK" xMin="47" yMin="-12" xMax="618" yMax="868">
      <component glyphName=".ttfautohint" x="47" y="0" flags="0x0"/>
      <component glyphName="S" x="0" y="0" flags="0x0"/>
      <component glyphName="acute.loclPLK" x="191" y="145" flags="0x4"/>
    </TTGlyph>
    <TTGlyph name="Scaron" xMin="47" yMin="-12" xMax="618" yMax="868">
      <component glyphName=".ttfautohint" x="47" y="0" flags="0x0"/>
      <component glyphName="S" x="0" y="0" flags="0x0"/>
      <component glyphName="caron" x="167" y="145" flags="0x4"/>
    </TTGlyph>
    <TTGlyph name="Scedilla" xMin="47" yMin="-182" xMax="618" yMax="698">
      <contour>
        <pt x="284" y="-182" on="0"/>
        <pt x="239" y="-174" on="1"/>
        <pt x="239" y="-125" on="1"/>
        <pt x="335" y="-125" on="1"/>
        <pt x="356" y="-125" on="0"/>
        <pt x="377" y="-115" on="0"/>
        <pt x="377" y="-101" on="1"/>
        <pt x="377" y="-89" on="0"/>
        <pt x="360" y="-77" on="0"/>
        <pt x="338" y="-77" on="1"/>
        <pt x="290" y="-77" on="1"/>
        <pt x="301" y="-11" on="1"/>
        <pt x="188" y="-5" on="0"/>
        <pt x="47" y="98" on="0"/>
        <pt x="47" y="196" on="1"/>
        <pt x="48" y="217" on="1"/>
        <pt x="158" y="217" on="1"/>
        <pt x="158" y="215" on="0"/>
        <pt x="156" y="204" on="0"/>
        <pt x="156" y="197" on="1"/>
        <pt x="156" y="141" on="0"/>
        <pt x="250" y="82" on="0"/>
        <pt x="330" y="82" on="1"/>
        <pt x="418" y="82" on="0"/>
        <pt x="508" y="134" on="0"/>
        <pt x="508" y="183" on="1"/>
        <pt x="508" y="218" on="0"/>
        <pt x="459" y="263" on="0"/>
        <pt x="384" y="290" on="0"/>
        <pt x="320" y="307" on="1"/>
        <pt x="239" y="328" on="0"/>
        <pt x="136" y="369" on="0"/>
        <pt x="64" y="448" on="0"/>
        <pt x="64" y="512" on="1"/>
        <pt x="64" y="603" on="0"/>
        <pt x="214" y="698" on="0"/>
        <pt x="334" y="698" on="1"/>
        <pt x="452" y="698" on="0"/>
        <pt x="599" y="600" on="0"/>
        <pt x="599" y="502" on="1"/>
        <pt x="599" y="490" on="1"/>
        <pt x="491" y="490" on="1"/>
        <pt x="491" y="503" on="1"/>
        <pt x="491" y="551" on="0"/>
        <pt x="405" y="604" on="0"/>
        <pt x="336" y="604" on="1"/>
        <pt x="262" y="604" on="0"/>
        <pt x="175" y="560" on="0"/>
        <pt x="175" y="518" on="1"/>
        <pt x="175" y="487" on="0"/>
        <pt x="223" y="446" on="0"/>
        <pt x="295" y="420" on="0"/>
        <pt x="357" y="404" on="1"/>
        <pt x="441" y="382" on="0"/>
        <pt x="544" y="342" on="0"/>
        <pt x="618" y="263" on="0"/>
        <pt x="618" y="199" on="1"/>
        <pt x="618" y="97" on="0"/>
        <pt x="486" y="-4" on="0"/>
        <pt x="370" y="-11" on="1"/>
        <pt x="366" y="-35" on="1"/>
        <pt x="408" y="-37" on="0"/>
        <pt x="460" y="-69" on="0"/>
        <pt x="460" y="-101" on="1"/>
        <pt x="460" y="-146" on="0"/>
        <pt x="385" y="-182" on="0"/>
        <pt x="337" y="-182" on="1"/>
      </contour>
    </TTGlyph>
    <TTGlyph name="Scircumflex" xMin="47" yMin="-12" xMax="618" yMax="868">
      <component glyphName=".ttfautohint" x="47" y="0" flags="0x0"/>
      <component glyphName="S" x="0" y="0" flags="0x0"/>
      <component glyphName="circumflex" x="167" y="145" flags="0x4"/>
    </TTGlyph>
    <TTGlyph name="Scommaaccent" xMin="47" yMin="-230" xMax="618" yMax="698">
      <component glyphName=".ttfautohint" x="47" y="0" flags="0x0"/>
      <component glyphName="S" x="0" y="0" flags="0x0"/>
      <component glyphName="uni0326" x="462" y="0" flags="0x0"/>
    </TTGlyph>
    <TTGlyph name="T" xMin="22" yMin="0" xMax="589" yMax="686">
      <contour>
        <pt x="250" y="590" on="1"/>
        <pt x="22" y="590" on="1"/>
        <pt x="22" y="686" on="1"/>
        <pt x="589" y="686" on="1"/>
        <pt x="589" y="590" on="1"/>
        <pt x="361" y="590" on="1"/>
        <pt x="361" y="0" on="1"/>
        <pt x="250" y="0" on="1"/>
      </contour>
    </TTGlyph>
    <TTGlyph name="Tbar" xMin="22" yMin="0" xMax="589" yMax="686">
      <contour>
        <pt x="250" y="372" on="1"/>
        <pt x="150" y="372" on="1"/>
        <pt x="150" y="450" on="1"/>
        <pt x="250" y="450" on="1"/>
        <pt x="250" y="590" on="1"/>
        <pt x="22" y="590" on="1"/>
        <pt x="22" y="686" on="1"/>
        <pt x="589" y="686" on="1"/>
        <pt x="589" y="590" on="1"/>
        <pt x="361" y="590" on="1"/>
        <pt x="361" y="450" on="1"/>
        <pt x="461" y="450" on="1"/>
        <pt x="461" y="372" on="1"/>
        <pt x="361" y="372" on="1"/>
        <pt x="361" y="0" on="1"/>
        <pt x="250" y="0" on="1"/>
      </contour>
    </TTGlyph>
    <TTGlyph name="Tcaron" xMin="22" yMin="0" xMax="589" yMax="868">
      <component glyphName=".ttfautohint" x="22" y="0" flags="0x0"/>
      <component glyphName="T" x="0" y="0" flags="0x0"/>
      <component glyphName="caron" x="139" y="145" flags="0x4"/>
    </TTGlyph>
    <TTGlyph name="Thorn" xMin="75" yMin="0" xMax="626" yMax="686">
      <contour>
        <pt x="75" y="686" on="1"/>
        <pt x="186" y="686" on="1"/>
        <pt x="186" y="571" on="1"/>
        <pt x="407" y="571" on="1"/>
        <pt x="514" y="571" on="0"/>
        <pt x="626" y="456" on="0"/>
        <pt x="626" y="357" on="1"/>
        <pt x="626" y="257" on="0"/>
        <pt x="508" y="139" on="0"/>
        <pt x="404" y="139" on="1"/>
        <pt x="186" y="139" on="1"/>
        <pt x="186" y="0" on="1"/>
        <pt x="75" y="0" on="1"/>
      </contour>
      <contour>
        <pt x="400" y="235" on="1"/>
        <pt x="453" y="235" on="0"/>
        <pt x="514" y="300" on="0"/>
        <pt x="514" y="356" on="1"/>
        <pt x="514" y="413" on="0"/>
        <pt x="456" y="475" on="0"/>
        <pt x="400" y="475" on="1"/>
        <pt x="186" y="475" on="1"/>
        <pt x="186" y="235" on="1"/>
      </contour>
    </TTGlyph>
    <TTGlyph name="U" xMin="75" yMin="-12" xMax="647" yMax="686">
      <contour>
        <pt x="224" y="-12" on="0"/>
        <pt x="75" y="120" on="0"/>
        <pt x="75" y="254" on="1"/>
        <pt x="75" y="686" on="1"/>
        <pt x="186" y="686" on="1"/>
        <pt x="186" y="252" on="1"/>
        <pt x="186" y="169" on="0"/>
        <pt x="277" y="82" on="0"/>
        <pt x="360" y="82" on="1"/>
        <pt x="444" y="82" on="0"/>
        <pt x="536" y="169" on="0"/>
        <pt x="536" y="252" on="1"/>
        <pt x="536" y="686" on="1"/>
        <pt x="647" y="686" on="1"/>
        <pt x="647" y="254" on="1"/>
        <pt x="647" y="120" on="0"/>
        <pt x="498" y="-12" on="0"/>
        <pt x="360" y="-12" on="1"/>
      </contour>
    </TTGlyph>
    <TTGlyph name="Uacute" xMin="75" yMin="-12" xMax="647" yMax="868">
      <component glyphName=".ttfautohint" x="75" y="0" flags="0x0"/>
      <component glyphName="U" x="0" y="0" flags="0x0"/>
      <component glyphName="acute" x="243" y="145" flags="0x4"/>
    </TTGlyph>
    <TTGlyph name="Ubreve" xMin="75" yMin="-12" xMax="647" yMax="868">
      <component glyphName=".ttfautohint" x="75" y="0" flags="0x0"/>
      <component glyphName="U" x="0" y="0" flags="0x0"/>
      <component glyphName="breve" x="194" y="145" flags="0x4"/>
    </TTGlyph>
    <TTGlyph name="Ucircumflex" xMin="75" yMin="-12" xMax="647" yMax="868">
      <component glyphName=".ttfautohint" x="75" y="0" flags="0x0"/>
      <component glyphName="U" x="0" y="0" flags="0x0"/>
      <component glyphName="circumflex" x="194" y="145" flags="0x4"/>
    </TTGlyph>
    <TTGlyph name="Udieresis" xMin="75" yMin="-12" xMax="647" yMax="868">
      <component glyphName=".ttfautohint" x="75" y="0" flags="0x0"/>
      <component glyphName="U" x="0" y="0" flags="0x0"/>
      <component glyphName="dieresis" x="194" y="145" flags="0x4"/>
    </TTGlyph>
    <TTGlyph name="Ugrave" xMin="75" yMin="-12" xMax="647" yMax="868">
      <component glyphName=".ttfautohint" x="75" y="0" flags="0x0"/>
      <component glyphName="U" x="0" y="0" flags="0x0"/>
      <component glyphName="grave" x="135" y="145" flags="0x4"/>
    </TTGlyph>
    <TTGlyph name="Uhorn" xMin="75" yMin="-12" xMax="760" yMax="868">
      <contour>
        <pt x="760" y="868" on="1"/>
        <pt x="760" y="814" on="1"/>
        <pt x="760" y="679" on="0"/>
        <pt x="647" y="631" on="1"/>
        <pt x="647" y="254" on="1"/>
        <pt x="647" y="120" on="0"/>
        <pt x="498" y="-12" on="0"/>
        <pt x="360" y="-12" on="1"/>
        <pt x="224" y="-12" on="0"/>
        <pt x="75" y="120" on="0"/>
        <pt x="75" y="254" on="1"/>
        <pt x="75" y="686" on="1"/>
        <pt x="186" y="686" on="1"/>
        <pt x="186" y="252" on="1"/>
        <pt x="186" y="169" on="0"/>
        <pt x="277" y="82" on="0"/>
        <pt x="360" y="82" on="1"/>
        <pt x="444" y="82" on="0"/>
        <pt x="536" y="169" on="0"/>
        <pt x="536" y="252" on="1"/>
        <pt x="536" y="686" on="1"/>
        <pt x="628" y="686" on="1"/>
        <pt x="674" y="707" on="0"/>
        <pt x="687" y="751" on="1"/>
        <pt x="628" y="751" on="1"/>
        <pt x="628" y="868" on="1"/>
      </contour>
    </TTGlyph>
    <TTGlyph name="Uhungarumlaut" xMin="75" yMin="-12" xMax="647" yMax="868">
      <component glyphName=".ttfautohint" x="75" y="0" flags="0x0"/>
      <component glyphName="U" x="0" y="0" flags="0x0"/>
      <component glyphName="hungarumlaut" x="222" y="145" flags="0x4"/>
    </TTGlyph>
    <TTGlyph name="Umacron" xMin="75" yMin="-12" xMax="647" yMax="844">
      <component glyphName=".ttfautohint" x="75" y="0" flags="0x0"/>
      <component glyphName="U" x="0" y="0" flags="0x0"/>
      <component glyphName="macron" x="194" y="145" flags="0x4"/>
    </TTGlyph>
    <TTGlyph name="Uogonek" xMin="75" yMin="-182" xMax="647" yMax="686">
      <contour>
        <pt x="390" y="-182" on="0"/>
        <pt x="329" y="-140" on="0"/>
        <pt x="329" y="-93" on="1"/>
        <pt x="329" y="-47" on="0"/>
        <pt x="359" y="-12" on="1"/>
        <pt x="223" y="-11" on="0"/>
        <pt x="75" y="120" on="0"/>
        <pt x="75" y="254" on="1"/>
        <pt x="75" y="686" on="1"/>
        <pt x="186" y="686" on="1"/>
        <pt x="186" y="252" on="1"/>
        <pt x="186" y="169" on="0"/>
        <pt x="277" y="82" on="0"/>
        <pt x="360" y="82" on="1"/>
        <pt x="444" y="82" on="0"/>
        <pt x="536" y="169" on="0"/>
        <pt x="536" y="252" on="1"/>
        <pt x="536" y="686" on="1"/>
        <pt x="647" y="686" on="1"/>
        <pt x="647" y="254" on="1"/>
        <pt x="647" y="140" on="0"/>
        <pt x="539" y="12" on="0"/>
        <pt x="438" y="-5" on="1"/>
        <pt x="415" y="-34" on="0"/>
        <pt x="415" y="-62" on="1"/>
        <pt x="415" y="-85" on="0"/>
        <pt x="440" y="-116" on="0"/>
        <pt x="466" y="-116" on="1"/>
        <pt x="496" y="-116" on="1"/>
        <pt x="496" y="-168" on="1"/>
        <pt x="462" y="-182" on="0"/>
        <pt x="432" y="-182" on="1"/>
      </contour>
    </TTGlyph>
    <TTGlyph name="Uring" xMin="75" yMin="-12" xMax="647" yMax="903">
      <component glyphName=".ttfautohint" x="75" y="0" flags="0x0"/>
      <component glyphName="U" x="0" y="0" flags="0x0"/>
      <component glyphName="ring" x="194" y="145" flags="0x4"/>
    </TTGlyph>
    <TTGlyph name="Utilde" xMin="75" yMin="-12" xMax="647" yMax="868">
      <component glyphName=".ttfautohint" x="75" y="0" flags="0x0"/>
      <component glyphName="U" x="0" y="0" flags="0x0"/>
      <component glyphName="tilde" x="194" y="145" flags="0x4"/>
    </TTGlyph>
    <TTGlyph name="V" xMin="12" yMin="0" xMax="654" yMax="686">
      <contour>
        <pt x="12" y="686" on="1"/>
        <pt x="132" y="686" on="1"/>
        <pt x="297" y="225" on="1"/>
        <pt x="308" y="193" on="1"/>
        <pt x="334" y="117" on="1"/>
        <pt x="339" y="117" on="1"/>
        <pt x="361" y="180" on="1"/>
        <pt x="365" y="194" on="0"/>
        <pt x="373" y="217" on="0"/>
        <pt x="376" y="226" on="1"/>
        <pt x="540" y="686" on="1"/>
        <pt x="654" y="686" on="1"/>
        <pt x="402" y="0" on="1"/>
        <pt x="265" y="0" on="1"/>
      </contour>
    </TTGlyph>
    <TTGlyph name="W" xMin="8" yMin="0" xMax="936" yMax="686">
      <contour>
        <pt x="8" y="686" on="1"/>
        <pt x="125" y="686" on="1"/>
        <pt x="251" y="221" on="1"/>
        <pt x="258" y="194" on="0"/>
        <pt x="271" y="131" on="0"/>
        <pt x="274" y="119" on="1"/>
        <pt x="279" y="119" on="1"/>
        <pt x="298" y="221" on="1"/>
        <pt x="402" y="686" on="1"/>
        <pt x="550" y="686" on="1"/>
        <pt x="657" y="221" on="1"/>
        <pt x="663" y="192" on="0"/>
        <pt x="675" y="131" on="0"/>
        <pt x="677" y="119" on="1"/>
        <pt x="682" y="119" on="1"/>
        <pt x="685" y="131" on="0"/>
        <pt x="698" y="194" on="0"/>
        <pt x="705" y="221" on="1"/>
        <pt x="829" y="686" on="1"/>
        <pt x="936" y="686" on="1"/>
        <pt x="743" y="0" on="1"/>
        <pt x="604" y="0" on="1"/>
        <pt x="494" y="468" on="1"/>
        <pt x="488" y="494" on="0"/>
        <pt x="475" y="564" on="0"/>
        <pt x="473" y="575" on="1"/>
        <pt x="468" y="575" on="1"/>
        <pt x="466" y="563" on="0"/>
        <pt x="454" y="490" on="0"/>
        <pt x="449" y="468" on="1"/>
        <pt x="340" y="0" on="1"/>
        <pt x="201" y="0" on="1"/>
      </contour>
    </TTGlyph>
    <TTGlyph name="Wacute" xMin="8" yMin="0" xMax="936" yMax="868">
      <component glyphName=".ttfautohint" x="8" y="0" flags="0x0"/>
      <component glyphName="W" x="0" y="0" flags="0x0"/>
      <component glyphName="acute" x="354" y="145" flags="0x4"/>
    </TTGlyph>
    <TTGlyph name="Wcircumflex" xMin="8" yMin="0" xMax="936" yMax="868">
      <component glyphName=".ttfautohint" x="8" y="0" flags="0x0"/>
      <component glyphName="W" x="0" y="0" flags="0x0"/>
      <component glyphName="circumflex" x="305" y="145" flags="0x4"/>
    </TTGlyph>
    <TTGlyph name="Wdieresis" xMin="8" yMin="0" xMax="936" yMax="868">
      <component glyphName=".ttfautohint" x="8" y="0" flags="0x0"/>
      <component glyphName="W" x="0" y="0" flags="0x0"/>
      <component glyphName="dieresis" x="305" y="145" flags="0x4"/>
    </TTGlyph>
    <TTGlyph name="Wgrave" xMin="8" yMin="0" xMax="936" yMax="868">
      <component glyphName=".ttfautohint" x="8" y="0" flags="0x0"/>
      <component glyphName="W" x="0" y="0" flags="0x0"/>
      <component glyphName="grave" x="246" y="145" flags="0x4"/>
    </TTGlyph>
    <TTGlyph name="X" xMin="3" yMin="0" xMax="663" yMax="686">
      <contour>
        <pt x="263" y="359" on="1"/>
        <pt x="27" y="686" on="1"/>
        <pt x="163" y="686" on="1"/>
        <pt x="331" y="448" on="1"/>
        <pt x="339" y="448" on="1"/>
        <pt x="508" y="686" on="1"/>
        <pt x="638" y="686" on="1"/>
        <pt x="402" y="361" on="1"/>
        <pt x="663" y="0" on="1"/>
        <pt x="528" y="0" on="1"/>
        <pt x="334" y="274" on="1"/>
        <pt x="327" y="274" on="1"/>
        <pt x="133" y="0" on="1"/>
        <pt x="3" y="0" on="1"/>
      </contour>
    </TTGlyph>
    <TTGlyph name="Y" xMin="11" yMin="0" xMax="657" yMax="686">
      <contour>
        <pt x="279" y="282" on="1"/>
        <pt x="11" y="686" on="1"/>
        <pt x="141" y="686" on="1"/>
        <pt x="335" y="382" on="1"/>
        <pt x="340" y="382" on="1"/>
        <pt x="533" y="686" on="1"/>
        <pt x="657" y="686" on="1"/>
        <pt x="390" y="282" on="1"/>
        <pt x="390" y="0" on="1"/>
        <pt x="279" y="0" on="1"/>
      </contour>
    </TTGlyph>
    <TTGlyph name="Y.loclGUA" xMin="75" yMin="-12" xMax="592" yMax="686">
      <contour>
        <pt x="210" y="-12" on="0"/>
        <pt x="75" y="74" on="0"/>
        <pt x="75" y="160" on="1"/>
        <pt x="75" y="168" on="1"/>
        <pt x="186" y="168" on="1"/>
        <pt x="186" y="127" on="0"/>
        <pt x="263" y="82" on="0"/>
        <pt x="327" y="82" on="1"/>
        <pt x="481" y="82" on="0"/>
        <pt x="481" y="243" on="1"/>
        <pt x="481" y="292" on="1"/>
        <pt x="475" y="292" on="1"/>
        <pt x="423" y="201" on="0"/>
        <pt x="293" y="201" on="1"/>
        <pt x="187" y="201" on="0"/>
        <pt x="75" y="315" on="0"/>
        <pt x="75" y="430" on="1"/>
        <pt x="75" y="686" on="1"/>
        <pt x="186" y="686" on="1"/>
        <pt x="186" y="425" on="1"/>
        <pt x="186" y="361" on="0"/>
        <pt x="252" y="295" on="0"/>
        <pt x="315" y="295" on="1"/>
        <pt x="393" y="295" on="0"/>
        <pt x="481" y="394" on="0"/>
        <pt x="481" y="488" on="1"/>
        <pt x="481" y="686" on="1"/>
        <pt x="592" y="686" on="1"/>
        <pt x="592" y="253" on="1"/>
        <pt x="592" y="117" on="0"/>
        <pt x="456" y="-12" on="0"/>
        <pt x="325" y="-12" on="1"/>
      </contour>
    </TTGlyph>
    <TTGlyph name="Yacute" xMin="11" yMin="0" xMax="657" yMax="868">
      <component glyphName=".ttfautohint" x="11" y="0" flags="0x0"/>
      <component glyphName="Y" x="0" y="0" flags="0x0"/>
      <component glyphName="acute" x="216" y="145" flags="0x4"/>
    </TTGlyph>
    <TTGlyph name="Yacute.loclGUA" xMin="75" yMin="-12" xMax="592" yMax="868">
      <component glyphName=".ttfautohint" x="75" y="0" flags="0x0"/>
      <component glyphName="Y.loclGUA" x="0" y="0" flags="0x0"/>
      <component glyphName="acute" x="216" y="145" flags="0x4"/>
    </TTGlyph>
    <TTGlyph name="Ycircumflex" xMin="11" yMin="0" xMax="657" yMax="868">
      <component glyphName=".ttfautohint" x="11" y="0" flags="0x0"/>
      <component glyphName="Y" x="0" y="0" flags="0x0"/>
      <component glyphName="circumflex" x="167" y="145" flags="0x4"/>
    </TTGlyph>
    <TTGlyph name="Ycircumflex.loclGUA" xMin="75" yMin="-12" xMax="592" yMax="868">
      <component glyphName=".ttfautohint" x="75" y="0" flags="0x0"/>
      <component glyphName="Y.loclGUA" x="0" y="0" flags="0x0"/>
      <component glyphName="circumflex" x="167" y="145" flags="0x4"/>
    </TTGlyph>
    <TTGlyph name="Ydieresis" xMin="11" yMin="0" xMax="657" yMax="868">
      <component glyphName=".ttfautohint" x="11" y="0" flags="0x0"/>
      <component glyphName="Y" x="0" y="0" flags="0x0"/>
      <component glyphName="dieresis" x="167" y="145" flags="0x4"/>
    </TTGlyph>
    <TTGlyph name="Ydieresis.loclGUA" xMin="75" yMin="-12" xMax="592" yMax="868">
      <component glyphName=".ttfautohint" x="75" y="0" flags="0x0"/>
      <component glyphName="Y.loclGUA" x="0" y="0" flags="0x0"/>
      <component glyphName="dieresis" x="167" y="145" flags="0x4"/>
    </TTGlyph>
    <TTGlyph name="Ygrave" xMin="11" yMin="0" xMax="657" yMax="868">
      <component glyphName=".ttfautohint" x="11" y="0" flags="0x0"/>
      <component glyphName="Y" x="0" y="0" flags="0x0"/>
      <component glyphName="grave" x="108" y="145" flags="0x4"/>
    </TTGlyph>
    <TTGlyph name="Ygrave.loclGUA" xMin="75" yMin="-12" xMax="592" yMax="868">
      <component glyphName=".ttfautohint" x="75" y="0" flags="0x0"/>
      <component glyphName="Y.loclGUA" x="0" y="0" flags="0x0"/>
      <component glyphName="grave" x="108" y="145" flags="0x4"/>
    </TTGlyph>
    <TTGlyph name="Z" xMin="21" yMin="0" xMax="588" yMax="686">
      <contour>
        <pt x="21" y="55" on="1"/>
        <pt x="413" y="591" on="1"/>
        <pt x="47" y="591" on="1"/>
        <pt x="47" y="686" on="1"/>
        <pt x="579" y="686" on="1"/>
        <pt x="579" y="631" on="1"/>
        <pt x="187" y="95" on="1"/>
        <pt x="588" y="95" on="1"/>
        <pt x="588" y="0" on="1"/>
        <pt x="21" y="0" on="1"/>
      </contour>
    </TTGlyph>
    <TTGlyph name="Zacute" xMin="21" yMin="0" xMax="588" yMax="868">
      <component glyphName=".ttfautohint" x="21" y="0" flags="0x0"/>
      <component glyphName="Z" x="0" y="0" flags="0x0"/>
      <component glyphName="acute" x="188" y="145" flags="0x4"/>
    </TTGlyph>
    <TTGlyph name="Zacute.loclPLK" xMin="21" yMin="0" xMax="588" yMax="868">
      <component glyphName=".ttfautohint" x="21" y="0" flags="0x0"/>
      <component glyphName="Z" x="0" y="0" flags="0x0"/>
      <component glyphName="acute.loclPLK" x="163" y="145" flags="0x4"/>
    </TTGlyph>
    <TTGlyph name="Zcaron" xMin="21" yMin="0" xMax="588" yMax="868">
      <component glyphName=".ttfautohint" x="21" y="0" flags="0x0"/>
      <component glyphName="Z" x="0" y="0" flags="0x0"/>
      <component glyphName="caron" x="139" y="145" flags="0x4"/>
    </TTGlyph>
    <TTGlyph name="Zdotaccent" xMin="21" yMin="0" xMax="588" yMax="868">
      <component glyphName=".ttfautohint" x="21" y="0" flags="0x0"/>
      <component glyphName="Z" x="0" y="0" flags="0x0"/>
      <component glyphName="dotaccent" x="139" y="145" flags="0x4"/>
    </TTGlyph>
    <TTGlyph name="a" xMin="34" yMin="-12" xMax="548" yMax="538">
      <contour>
        <pt x="139" y="-12" on="0"/>
        <pt x="34" y="52" on="0"/>
        <pt x="34" y="136" on="1"/>
        <pt x="34" y="237" on="0"/>
        <pt x="210" y="315" on="0"/>
        <pt x="374" y="315" on="1"/>
        <pt x="374" y="367" on="1"/>
        <pt x="374" y="410" on="0"/>
        <pt x="329" y="455" on="0"/>
        <pt x="268" y="455" on="1"/>
        <pt x="209" y="455" on="0"/>
        <pt x="160" y="413" on="0"/>
        <pt x="160" y="383" on="1"/>
        <pt x="160" y="370" on="1"/>
        <pt x="60" y="370" on="1"/>
        <pt x="59" y="376" on="0"/>
        <pt x="59" y="392" on="1"/>
        <pt x="59" y="461" on="0"/>
        <pt x="175" y="538" on="0"/>
        <pt x="272" y="538" on="1"/>
        <pt x="374" y="538" on="0"/>
        <pt x="477" y="454" on="0"/>
        <pt x="477" y="377" on="1"/>
        <pt x="477" y="108" on="1"/>
        <pt x="477" y="90" on="0"/>
        <pt x="497" y="73" on="0"/>
        <pt x="512" y="73" on="1"/>
        <pt x="548" y="73" on="1"/>
        <pt x="548" y="4" on="1"/>
        <pt x="522" y="-9" on="0"/>
        <pt x="477" y="-9" on="1"/>
        <pt x="441" y="-9" on="0"/>
        <pt x="392" y="30" on="0"/>
        <pt x="384" y="64" on="1"/>
        <pt x="377" y="64" on="1"/>
        <pt x="349" y="28" on="0"/>
        <pt x="262" y="-12" on="0"/>
        <pt x="204" y="-12" on="1"/>
      </contour>
      <contour>
        <pt x="293" y="72" on="0"/>
        <pt x="374" y="143" on="0"/>
        <pt x="374" y="205" on="1"/>
        <pt x="374" y="237" on="1"/>
        <pt x="260" y="237" on="0"/>
        <pt x="140" y="198" on="0"/>
        <pt x="140" y="144" on="1"/>
        <pt x="140" y="107" on="0"/>
        <pt x="187" y="72" on="0"/>
        <pt x="234" y="72" on="1"/>
      </contour>
    </TTGlyph>
    <TTGlyph name="aacute" xMin="34" yMin="-12" xMax="548" yMax="723">
      <component glyphName=".ttfautohint" x="34" y="0" flags="0x0"/>
      <component glyphName="a" x="0" y="0" flags="0x0"/>
      <component glyphName="acute" x="160" y="0" flags="0x0"/>
    </TTGlyph>
    <TTGlyph name="abreve" xMin="34" yMin="-12" xMax="548" yMax="723">
      <component glyphName=".ttfautohint" x="34" y="0" flags="0x0"/>
      <component glyphName="a" x="0" y="0" flags="0x0"/>
      <component glyphName="breve" x="111" y="0" flags="0x0"/>
    </TTGlyph>
    <TTGlyph name="acircumflex" xMin="34" yMin="-12" xMax="548" yMax="723">
      <component glyphName=".ttfautohint" x="34" y="0" flags="0x0"/>
      <component glyphName="a" x="0" y="0" flags="0x0"/>
      <component glyphName="circumflex" x="111" y="0" flags="0x0"/>
    </TTGlyph>
    <TTGlyph name="acute" xMin="75" yMin="591" xMax="267" yMax="723">
      <contour>
        <pt x="159" y="723" on="1"/>
        <pt x="266" y="723" on="1"/>
        <pt x="267" y="720" on="1"/>
        <pt x="159" y="591" on="1"/>
        <pt x="75" y="591" on="1"/>
      </contour>
    </TTGlyph>
    <TTGlyph name="acute.loclPLK" xMin="100" yMin="591" xMax="233" yMax="723">
      <contour>
        <pt x="127" y="723" on="1"/>
        <pt x="232" y="723" on="1"/>
        <pt x="233" y="721" on="1"/>
        <pt x="185" y="591" on="1"/>
        <pt x="100" y="591" on="1"/>
      </contour>
    </TTGlyph>
    <TTGlyph name="adieresis" xMin="34" yMin="-12" xMax="548" yMax="723">
      <component glyphName=".ttfautohint" x="34" y="0" flags="0x0"/>
      <component glyphName="a" x="0" y="0" flags="0x0"/>
      <component glyphName="dieresis" x="111" y="0" flags="0x0"/>
    </TTGlyph>
    <TTGlyph name="ae" xMin="34" yMin="-12" xMax="851" yMax="538">
      <contour>
        <pt x="151" y="-12" on="0"/>
        <pt x="34" y="52" on="0"/>
        <pt x="34" y="136" on="1"/>
        <pt x="34" y="237" on="0"/>
        <pt x="214" y="315" on="0"/>
        <pt x="383" y="315" on="1"/>
        <pt x="383" y="367" on="1"/>
        <pt x="383" y="409" on="0"/>
        <pt x="334" y="455" on="0"/>
        <pt x="271" y="455" on="1"/>
        <pt x="211" y="455" on="0"/>
        <pt x="160" y="413" on="0"/>
        <pt x="160" y="383" on="1"/>
        <pt x="160" y="370" on="1"/>
        <pt x="60" y="370" on="1"/>
        <pt x="59" y="376" on="0"/>
        <pt x="59" y="392" on="1"/>
        <pt x="59" y="461" on="0"/>
        <pt x="177" y="538" on="0"/>
        <pt x="276" y="538" on="1"/>
        <pt x="397" y="538" on="0"/>
        <pt x="450" y="471" on="1"/>
        <pt x="511" y="538" on="0"/>
        <pt x="627" y="538" on="1"/>
        <pt x="739" y="538" on="0"/>
        <pt x="851" y="413" on="0"/>
        <pt x="851" y="277" on="1"/>
        <pt x="851" y="237" on="1"/>
        <pt x="486" y="237" on="1"/>
        <pt x="490" y="152" on="0"/>
        <pt x="557" y="71" on="0"/>
        <pt x="627" y="71" on="1"/>
        <pt x="682" y="71" on="0"/>
        <pt x="750" y="125" on="0"/>
        <pt x="750" y="181" on="1"/>
        <pt x="851" y="181" on="1"/>
        <pt x="851" y="87" on="0"/>
        <pt x="726" y="-12" on="0"/>
        <pt x="627" y="-12" on="1"/>
        <pt x="490" y="-12" on="0"/>
        <pt x="431" y="71" on="1"/>
        <pt x="396" y="31" on="0"/>
        <pt x="290" y="-12" on="0"/>
        <pt x="224" y="-12" on="1"/>
      </contour>
      <contour>
        <pt x="744" y="315" on="1"/>
        <pt x="744" y="455" on="0"/>
        <pt x="627" y="455" on="1"/>
        <pt x="562" y="455" on="0"/>
        <pt x="495" y="388" on="0"/>
        <pt x="488" y="315" on="1"/>
      </contour>
      <contour>
        <pt x="301" y="72" on="0"/>
        <pt x="383" y="139" on="0"/>
        <pt x="383" y="205" on="1"/>
        <pt x="383" y="237" on="1"/>
        <pt x="265" y="237" on="0"/>
        <pt x="140" y="198" on="0"/>
        <pt x="140" y="144" on="1"/>
        <pt x="140" y="107" on="0"/>
        <pt x="189" y="72" on="0"/>
        <pt x="237" y="72" on="1"/>
      </contour>
    </TTGlyph>
    <TTGlyph name="aeacute" xMin="34" yMin="-12" xMax="851" yMax="723">
      <component glyphName=".ttfautohint" x="34" y="0" flags="0x0"/>
      <component glyphName="ae" x="0" y="0" flags="0x0"/>
      <component glyphName="acute" x="327" y="0" flags="0x0"/>
    </TTGlyph>
    <TTGlyph name="agrave" xMin="34" yMin="-12" xMax="548" yMax="723">
      <component glyphName=".ttfautohint" x="34" y="0" flags="0x0"/>
      <component glyphName="a" x="0" y="0" flags="0x0"/>
      <component glyphName="grave" x="52" y="0" flags="0x0"/>
    </TTGlyph>
    <TTGlyph name="amacron" xMin="34" yMin="-12" xMax="548" yMax="699">
      <component glyphName=".ttfautohint" x="34" y="0" flags="0x0"/>
      <component glyphName="a" x="0" y="0" flags="0x0"/>
      <component glyphName="macron" x="111" y="0" flags="0x0"/>
    </TTGlyph>
    <TTGlyph name="ampersand" xMin="43" yMin="-12" xMax="661" yMax="698">
      <contour>
        <pt x="230" y="-12" on="0"/>
        <pt x="110" y="35" on="0"/>
        <pt x="43" y="124" on="0"/>
        <pt x="43" y="184" on="1"/>
        <pt x="43" y="251" on="0"/>
        <pt x="112" y="334" on="0"/>
        <pt x="171" y="352" on="1"/>
        <pt x="171" y="356" on="1"/>
        <pt x="117" y="380" on="0"/>
        <pt x="59" y="452" on="0"/>
        <pt x="59" y="510" on="1"/>
        <pt x="59" y="600" on="0"/>
        <pt x="199" y="698" on="0"/>
        <pt x="318" y="698" on="1"/>
        <pt x="393" y="698" on="0"/>
        <pt x="508" y="651" on="0"/>
        <pt x="573" y="566" on="0"/>
        <pt x="573" y="510" on="1"/>
        <pt x="573" y="489" on="1"/>
        <pt x="470" y="489" on="1"/>
        <pt x="470" y="501" on="1"/>
        <pt x="470" y="556" on="0"/>
        <pt x="388" y="612" on="0"/>
        <pt x="317" y="612" on="1"/>
        <pt x="248" y="612" on="0"/>
        <pt x="164" y="556" on="0"/>
        <pt x="164" y="501" on="1"/>
        <pt x="164" y="449" on="0"/>
        <pt x="241" y="391" on="0"/>
        <pt x="297" y="391" on="1"/>
        <pt x="360" y="391" on="1"/>
        <pt x="360" y="306" on="1"/>
        <pt x="299" y="306" on="1"/>
        <pt x="149" y="306" on="0"/>
        <pt x="149" y="192" on="1"/>
        <pt x="149" y="132" on="0"/>
        <pt x="235" y="74" on="0"/>
        <pt x="314" y="74" on="1"/>
        <pt x="470" y="74" on="0"/>
        <pt x="470" y="194" on="1"/>
        <pt x="470" y="391" on="1"/>
        <pt x="661" y="391" on="1"/>
        <pt x="661" y="305" on="1"/>
        <pt x="573" y="305" on="1"/>
        <pt x="573" y="197" on="1"/>
        <pt x="573" y="100" on="0"/>
        <pt x="436" y="-12" on="0"/>
        <pt x="307" y="-12" on="1"/>
      </contour>
    </TTGlyph>
    <TTGlyph name="aogonek" xMin="34" yMin="-182" xMax="548" yMax="538">
      <contour>
        <pt x="438" y="-182" on="0"/>
        <pt x="381" y="-141" on="0"/>
        <pt x="381" y="-96" on="1"/>
        <pt x="381" y="-65" on="0"/>
        <pt x="409" y="-20" on="0"/>
        <pt x="434" y="0" on="1"/>
        <pt x="395" y="16" on="0"/>
        <pt x="384" y="64" on="1"/>
        <pt x="377" y="64" on="1"/>
        <pt x="349" y="28" on="0"/>
        <pt x="262" y="-12" on="0"/>
        <pt x="204" y="-12" on="1"/>
        <pt x="139" y="-12" on="0"/>
        <pt x="34" y="52" on="0"/>
        <pt x="34" y="136" on="1"/>
        <pt x="34" y="237" on="0"/>
        <pt x="210" y="315" on="0"/>
        <pt x="374" y="315" on="1"/>
        <pt x="374" y="367" on="1"/>
        <pt x="374" y="410" on="0"/>
        <pt x="329" y="455" on="0"/>
        <pt x="268" y="455" on="1"/>
        <pt x="209" y="455" on="0"/>
        <pt x="160" y="413" on="0"/>
        <pt x="160" y="383" on="1"/>
        <pt x="160" y="370" on="1"/>
        <pt x="60" y="370" on="1"/>
        <pt x="59" y="376" on="0"/>
        <pt x="59" y="392" on="1"/>
        <pt x="59" y="461" on="0"/>
        <pt x="175" y="538" on="0"/>
        <pt x="272" y="538" on="1"/>
        <pt x="374" y="538" on="0"/>
        <pt x="477" y="454" on="0"/>
        <pt x="477" y="377" on="1"/>
        <pt x="477" y="108" on="1"/>
        <pt x="477" y="90" on="0"/>
        <pt x="497" y="73" on="0"/>
        <pt x="512" y="73" on="1"/>
        <pt x="548" y="73" on="1"/>
        <pt x="548" y="4" on="1"/>
        <pt x="513" y="-6" on="0"/>
        <pt x="467" y="-35" on="0"/>
        <pt x="467" y="-68" on="1"/>
        <pt x="467" y="-88" on="0"/>
        <pt x="492" y="-116" on="0"/>
        <pt x="519" y="-116" on="1"/>
        <pt x="548" y="-116" on="1"/>
        <pt x="548" y="-168" on="1"/>
        <pt x="511" y="-182" on="0"/>
        <pt x="479" y="-182" on="1"/>
      </contour>
      <contour>
        <pt x="293" y="72" on="0"/>
        <pt x="374" y="143" on="0"/>
        <pt x="374" y="205" on="1"/>
        <pt x="374" y="237" on="1"/>
        <pt x="260" y="237" on="0"/>
        <pt x="140" y="198" on="0"/>
        <pt x="140" y="144" on="1"/>
        <pt x="140" y="107" on="0"/>
        <pt x="187" y="72" on="0"/>
        <pt x="234" y="72" on="1"/>
      </contour>
    </TTGlyph>
    <TTGlyph name="approxequal" xMin="35" yMin="52" xMax="514" yMax="450">
      <contour>
        <pt x="35" y="366" on="1"/>
        <pt x="35" y="369" on="0"/>
        <pt x="71" y="406" on="0"/>
        <pt x="132" y="438" on="0"/>
        <pt x="173" y="438" on="1"/>
        <pt x="197" y="438" on="0"/>
        <pt x="241" y="423" on="0"/>
        <pt x="273" y="408" on="1"/>
        <pt x="304" y="393" on="0"/>
        <pt x="350" y="378" on="0"/>
        <pt x="375" y="378" on="1"/>
        <pt x="411" y="378" on="0"/>
        <pt x="473" y="410" on="0"/>
        <pt x="514" y="448" on="0"/>
        <pt x="514" y="450" on="1"/>
        <pt x="514" y="349" on="1"/>
        <pt x="514" y="346" on="0"/>
        <pt x="478" y="309" on="0"/>
        <pt x="416" y="277" on="0"/>
        <pt x="375" y="277" on="1"/>
        <pt x="351" y="277" on="0"/>
        <pt x="307" y="292" on="0"/>
        <pt x="275" y="307" on="1"/>
        <pt x="244" y="322" on="0"/>
        <pt x="198" y="337" on="0"/>
        <pt x="173" y="337" on="1"/>
        <pt x="137" y="337" on="0"/>
        <pt x="76" y="305" on="0"/>
        <pt x="35" y="267" on="0"/>
        <pt x="35" y="265" on="1"/>
      </contour>
      <contour>
        <pt x="35" y="153" on="1"/>
        <pt x="35" y="156" on="0"/>
        <pt x="71" y="193" on="0"/>
        <pt x="132" y="225" on="0"/>
        <pt x="173" y="225" on="1"/>
        <pt x="197" y="225" on="0"/>
        <pt x="241" y="210" on="0"/>
        <pt x="273" y="195" on="1"/>
        <pt x="304" y="180" on="0"/>
        <pt x="350" y="165" on="0"/>
        <pt x="375" y="165" on="1"/>
        <pt x="411" y="165" on="0"/>
        <pt x="473" y="197" on="0"/>
        <pt x="514" y="235" on="0"/>
        <pt x="514" y="237" on="1"/>
        <pt x="514" y="136" on="1"/>
        <pt x="514" y="133" on="0"/>
        <pt x="478" y="96" on="0"/>
        <pt x="416" y="64" on="0"/>
        <pt x="375" y="64" on="1"/>
        <pt x="351" y="64" on="0"/>
        <pt x="307" y="79" on="0"/>
        <pt x="275" y="94" on="1"/>
        <pt x="244" y="109" on="0"/>
        <pt x="198" y="124" on="0"/>
        <pt x="173" y="124" on="1"/>
        <pt x="137" y="124" on="0"/>
        <pt x="76" y="92" on="0"/>
        <pt x="35" y="54" on="0"/>
        <pt x="35" y="52" on="1"/>
      </contour>
    </TTGlyph>
    <TTGlyph name="aring" xMin="34" yMin="-12" xMax="548" yMax="758">
      <component glyphName=".ttfautohint" x="34" y="0" flags="0x0"/>
      <component glyphName="a" x="0" y="0" flags="0x0"/>
      <component glyphName="ring" x="111" y="0" flags="0x0"/>
    </TTGlyph>
    <TTGlyph name="aringacute" xMin="34" yMin="-12" xMax="548" yMax="912">
      <component glyphName=".ttfautohint" x="34" y="0" flags="0x0"/>
      <component glyphName="a" x="0" y="0" flags="0x0"/>
      <component glyphName="ring" x="111" y="0" flags="0x0"/>
      <component glyphName="acute" x="161" y="189" flags="0x4"/>
    </TTGlyph>
    <TTGlyph name="arrowboth" xMin="42" yMin="76" xMax="959" yMax="429">
      <contour>
        <pt x="42" y="242" on="1"/>
        <pt x="42" y="263" on="1"/>
        <pt x="239" y="429" on="1"/>
        <pt x="284" y="429" on="1"/>
        <pt x="231" y="295" on="1"/>
        <pt x="774" y="295" on="1"/>
        <pt x="717" y="429" on="1"/>
        <pt x="762" y="429" on="1"/>
        <pt x="959" y="263" on="1"/>
        <pt x="959" y="242" on="1"/>
        <pt x="762" y="76" on="1"/>
        <pt x="717" y="76" on="1"/>
        <pt x="774" y="210" on="1"/>
        <pt x="231" y="210" on="1"/>
        <pt x="284" y="76" on="1"/>
        <pt x="239" y="76" on="1"/>
      </contour>
    </TTGlyph>
    <TTGlyph name="arrowdown" xMin="74" yMin="-208" xMax="428" yMax="710">
      <contour>
        <pt x="74" y="-11" on="1"/>
        <pt x="74" y="34" on="1"/>
        <pt x="209" y="-22" on="1"/>
        <pt x="209" y="710" on="1"/>
        <pt x="293" y="710" on="1"/>
        <pt x="293" y="-22" on="1"/>
        <pt x="428" y="34" on="1"/>
        <pt x="428" y="-11" on="1"/>
        <pt x="261" y="-208" on="1"/>
        <pt x="240" y="-208" on="1"/>
      </contour>
    </TTGlyph>
    <TTGlyph name="arrowleft" xMin="42" yMin="76" xMax="960" yMax="429">
      <contour>
        <pt x="42" y="242" on="1"/>
        <pt x="42" y="263" on="1"/>
        <pt x="239" y="429" on="1"/>
        <pt x="284" y="429" on="1"/>
        <pt x="228" y="294" on="1"/>
        <pt x="960" y="294" on="1"/>
        <pt x="960" y="210" on="1"/>
        <pt x="228" y="210" on="1"/>
        <pt x="284" y="76" on="1"/>
        <pt x="239" y="76" on="1"/>
      </contour>
    </TTGlyph>
    <TTGlyph name="arrowright" xMin="41" yMin="76" xMax="959" yMax="429">
      <contour>
        <pt x="774" y="210" on="1"/>
        <pt x="41" y="210" on="1"/>
        <pt x="41" y="294" on="1"/>
        <pt x="774" y="294" on="1"/>
        <pt x="717" y="429" on="1"/>
        <pt x="762" y="429" on="1"/>
        <pt x="959" y="263" on="1"/>
        <pt x="959" y="242" on="1"/>
        <pt x="762" y="76" on="1"/>
        <pt x="717" y="76" on="1"/>
      </contour>
    </TTGlyph>
    <TTGlyph name="arrowup" xMin="74" yMin="-208" xMax="427" yMax="710">
      <contour>
        <pt x="209" y="525" on="1"/>
        <pt x="74" y="468" on="1"/>
        <pt x="74" y="513" on="1"/>
        <pt x="240" y="710" on="1"/>
        <pt x="261" y="710" on="1"/>
        <pt x="427" y="513" on="1"/>
        <pt x="427" y="468" on="1"/>
        <pt x="293" y="525" on="1"/>
        <pt x="293" y="-208" on="1"/>
        <pt x="209" y="-208" on="1"/>
      </contour>
    </TTGlyph>
    <TTGlyph name="arrowupdn" xMin="73" yMin="-206" xMax="426" yMax="711">
      <contour>
        <pt x="73" y="-9" on="1"/>
        <pt x="73" y="36" on="1"/>
        <pt x="207" y="-21" on="1"/>
        <pt x="207" y="522" on="1"/>
        <pt x="73" y="469" on="1"/>
        <pt x="73" y="514" on="1"/>
        <pt x="239" y="711" on="1"/>
        <pt x="260" y="711" on="1"/>
        <pt x="426" y="514" on="1"/>
        <pt x="426" y="469" on="1"/>
        <pt x="291" y="522" on="1"/>
        <pt x="291" y="-21" on="1"/>
        <pt x="426" y="36" on="1"/>
        <pt x="426" y="-9" on="1"/>
        <pt x="260" y="-206" on="1"/>
        <pt x="239" y="-206" on="1"/>
      </contour>
    </TTGlyph>
    <TTGlyph name="arrowupdnbse" xMin="72" yMin="-233" xMax="427" yMax="711">
      <contour>
        <pt x="73" y="72" on="1"/>
        <pt x="73" y="117" on="1"/>
        <pt x="207" y="61" on="1"/>
        <pt x="207" y="522" on="1"/>
        <pt x="73" y="469" on="1"/>
        <pt x="73" y="514" on="1"/>
        <pt x="239" y="711" on="1"/>
        <pt x="260" y="711" on="1"/>
        <pt x="426" y="514" on="1"/>
        <pt x="426" y="469" on="1"/>
        <pt x="291" y="522" on="1"/>
        <pt x="291" y="61" on="1"/>
        <pt x="426" y="117" on="1"/>
        <pt x="426" y="72" on="1"/>
        <pt x="260" y="-125" on="1"/>
        <pt x="239" y="-125" on="1"/>
      </contour>
      <contour>
        <pt x="72" y="-173" on="1"/>
        <pt x="427" y="-173" on="1"/>
        <pt x="427" y="-233" on="1"/>
        <pt x="72" y="-233" on="1"/>
      </contour>
    </TTGlyph>
    <TTGlyph name="asciicircum" xMin="25" yMin="294" xMax="445" yMax="686">
      <contour>
        <pt x="181" y="686" on="1"/>
        <pt x="288" y="686" on="1"/>
        <pt x="445" y="294" on="1"/>
        <pt x="349" y="294" on="1"/>
        <pt x="234" y="595" on="1"/>
        <pt x="121" y="294" on="1"/>
        <pt x="25" y="294" on="1"/>
      </contour>
    </TTGlyph>
    <TTGlyph name="asciitilde" xMin="41" yMin="207" xMax="543" yMax="393">
      <contour>
        <pt x="41" y="308" on="1"/>
        <pt x="41" y="311" on="0"/>
        <pt x="78" y="349" on="0"/>
        <pt x="143" y="381" on="0"/>
        <pt x="186" y="381" on="1"/>
        <pt x="211" y="381" on="0"/>
        <pt x="256" y="366" on="0"/>
        <pt x="291" y="351" on="1"/>
        <pt x="323" y="336" on="0"/>
        <pt x="372" y="320" on="0"/>
        <pt x="398" y="320" on="1"/>
        <pt x="436" y="320" on="0"/>
        <pt x="500" y="352" on="0"/>
        <pt x="543" y="391" on="0"/>
        <pt x="543" y="393" on="1"/>
        <pt x="543" y="292" on="1"/>
        <pt x="543" y="289" on="0"/>
        <pt x="506" y="251" on="0"/>
        <pt x="441" y="219" on="0"/>
        <pt x="398" y="219" on="1"/>
        <pt x="373" y="219" on="0"/>
        <pt x="328" y="234" on="0"/>
        <pt x="293" y="249" on="1"/>
        <pt x="261" y="264" on="0"/>
        <pt x="212" y="280" on="0"/>
        <pt x="186" y="280" on="1"/>
        <pt x="148" y="280" on="0"/>
        <pt x="84" y="248" on="0"/>
        <pt x="41" y="209" on="0"/>
        <pt x="41" y="207" on="1"/>
      </contour>
    </TTGlyph>
    <TTGlyph name="asterisk" xMin="31" yMin="362" xMax="354" yMax="686">
      <contour>
        <pt x="168" y="481" on="1"/>
        <pt x="72" y="407" on="1"/>
        <pt x="31" y="478" on="1"/>
        <pt x="143" y="524" on="1"/>
        <pt x="31" y="571" on="1"/>
        <pt x="72" y="641" on="1"/>
        <pt x="168" y="567" on="1"/>
        <pt x="151" y="686" on="1"/>
        <pt x="234" y="686" on="1"/>
        <pt x="217" y="568" on="1"/>
        <pt x="313" y="641" on="1"/>
        <pt x="354" y="571" on="1"/>
        <pt x="242" y="524" on="1"/>
        <pt x="354" y="478" on="1"/>
        <pt x="313" y="407" on="1"/>
        <pt x="217" y="481" on="1"/>
        <pt x="234" y="362" on="1"/>
        <pt x="151" y="362" on="1"/>
      </contour>
    </TTGlyph>
    <TTGlyph name="at" xMin="51" yMin="-153" xMax="956" yMax="698">
      <contour>
        <pt x="274" y="-153" on="0"/>
        <pt x="51" y="51" on="0"/>
        <pt x="51" y="262" on="1"/>
        <pt x="51" y="415" on="0"/>
        <pt x="175" y="610" on="0"/>
        <pt x="385" y="698" on="0"/>
        <pt x="518" y="698" on="1"/>
        <pt x="718" y="698" on="0"/>
        <pt x="956" y="513" on="0"/>
        <pt x="956" y="321" on="1"/>
        <pt x="956" y="215" on="0"/>
        <pt x="885" y="81" on="0"/>
        <pt x="778" y="22" on="0"/>
        <pt x="724" y="22" on="1"/>
        <pt x="672" y="22" on="0"/>
        <pt x="620" y="59" on="0"/>
        <pt x="612" y="84" on="1"/>
        <pt x="607" y="84" on="1"/>
        <pt x="554" y="21" on="0"/>
        <pt x="455" y="21" on="1"/>
        <pt x="397" y="21" on="0"/>
        <pt x="304" y="79" on="0"/>
        <pt x="304" y="155" on="1"/>
        <pt x="304" y="247" on="0"/>
        <pt x="460" y="318" on="0"/>
        <pt x="604" y="318" on="1"/>
        <pt x="604" y="368" on="1"/>
        <pt x="604" y="406" on="0"/>
        <pt x="564" y="446" on="0"/>
        <pt x="512" y="446" on="1"/>
        <pt x="463" y="446" on="0"/>
        <pt x="420" y="407" on="0"/>
        <pt x="420" y="380" on="1"/>
        <pt x="420" y="368" on="1"/>
        <pt x="328" y="368" on="1"/>
        <pt x="327" y="374" on="0"/>
        <pt x="327" y="388" on="1"/>
        <pt x="327" y="451" on="0"/>
        <pt x="431" y="521" on="0"/>
        <pt x="517" y="521" on="1"/>
        <pt x="607" y="521" on="0"/>
        <pt x="698" y="447" on="0"/>
        <pt x="698" y="378" on="1"/>
        <pt x="698" y="134" on="1"/>
        <pt x="698" y="95" on="0"/>
        <pt x="745" y="95" on="1"/>
        <pt x="802" y="95" on="0"/>
        <pt x="884" y="202" on="0"/>
        <pt x="884" y="322" on="1"/>
        <pt x="884" y="480" on="0"/>
        <pt x="687" y="633" on="0"/>
        <pt x="517" y="633" on="1"/>
        <pt x="331" y="633" on="0"/>
        <pt x="124" y="445" on="0"/>
        <pt x="124" y="261" on="1"/>
        <pt x="124" y="86" on="0"/>
        <pt x="298" y="-88" on="0"/>
        <pt x="479" y="-88" on="1"/>
        <pt x="520" y="-88" on="0"/>
        <pt x="635" y="-69" on="0"/>
        <pt x="665" y="-56" on="1"/>
        <pt x="665" y="-126" on="1"/>
        <pt x="631" y="-137" on="0"/>
        <pt x="518" y="-153" on="0"/>
        <pt x="479" y="-153" on="1"/>
      </contour>
      <contour>
        <pt x="534" y="97" on="0"/>
        <pt x="604" y="159" on="0"/>
        <pt x="604" y="212" on="1"/>
        <pt x="604" y="247" on="1"/>
        <pt x="505" y="247" on="0"/>
        <pt x="400" y="212" on="0"/>
        <pt x="400" y="163" on="1"/>
        <pt x="400" y="128" on="0"/>
        <pt x="440" y="97" on="0"/>
        <pt x="482" y="97" on="1"/>
      </contour>
    </TTGlyph>
    <TTGlyph name="atilde" xMin="34" yMin="-12" xMax="548" yMax="723">
      <component glyphName=".ttfautohint" x="34" y="0" flags="0x0"/>
      <component glyphName="a" x="0" y="0" flags="0x0"/>
      <component glyphName="tilde" x="111" y="0" flags="0x0"/>
    </TTGlyph>
    <TTGlyph name="b" xMin="68" yMin="-12" xMax="537" yMax="723">
      <contour>
        <pt x="277" y="-12" on="0"/>
        <pt x="192" y="30" on="0"/>
        <pt x="167" y="70" on="1"/>
        <pt x="160" y="70" on="1"/>
        <pt x="150" y="0" on="1"/>
        <pt x="68" y="0" on="1"/>
        <pt x="68" y="723" on="1"/>
        <pt x="171" y="723" on="1"/>
        <pt x="171" y="466" on="1"/>
        <pt x="177" y="466" on="1"/>
        <pt x="227" y="538" on="0"/>
        <pt x="336" y="538" on="1"/>
        <pt x="429" y="538" on="0"/>
        <pt x="537" y="401" on="0"/>
        <pt x="537" y="263" on="1"/>
        <pt x="537" y="123" on="0"/>
        <pt x="429" y="-12" on="0"/>
        <pt x="329" y="-12" on="1"/>
      </contour>
      <contour>
        <pt x="371" y="75" on="0"/>
        <pt x="431" y="159" on="0"/>
        <pt x="431" y="257" on="1"/>
        <pt x="431" y="266" on="1"/>
        <pt x="431" y="366" on="0"/>
        <pt x="371" y="451" on="0"/>
        <pt x="300" y="451" on="1"/>
        <pt x="233" y="451" on="0"/>
        <pt x="171" y="357" on="0"/>
        <pt x="171" y="265" on="1"/>
        <pt x="171" y="257" on="1"/>
        <pt x="171" y="167" on="0"/>
        <pt x="233" y="75" on="0"/>
        <pt x="300" y="75" on="1"/>
      </contour>
    </TTGlyph>
    <TTGlyph name="backslash" xMin="1" yMin="-49" xMax="277" yMax="735">
      <contour>
        <pt x="1" y="735" on="1"/>
        <pt x="79" y="735" on="1"/>
        <pt x="277" y="-49" on="1"/>
        <pt x="198" y="-49" on="1"/>
      </contour>
    </TTGlyph>
    <TTGlyph name="bar" xMin="91" yMin="-173" xMax="175" yMax="723">
      <contour>
        <pt x="91" y="723" on="1"/>
        <pt x="175" y="723" on="1"/>
        <pt x="175" y="-173" on="1"/>
        <pt x="91" y="-173" on="1"/>
      </contour>
    </TTGlyph>
    <TTGlyph name="braceleft" xMin="37" yMin="-159" xMax="308" yMax="735">
      <contour>
        <pt x="219" y="-159" on="0"/>
        <pt x="124" y="-98" on="0"/>
        <pt x="124" y="-11" on="1"/>
        <pt x="124" y="185" on="1"/>
        <pt x="124" y="216" on="0"/>
        <pt x="73" y="245" on="0"/>
        <pt x="37" y="245" on="1"/>
        <pt x="37" y="331" on="1"/>
        <pt x="73" y="331" on="0"/>
        <pt x="124" y="360" on="0"/>
        <pt x="124" y="391" on="1"/>
        <pt x="124" y="587" on="1"/>
        <pt x="124" y="674" on="0"/>
        <pt x="219" y="735" on="0"/>
        <pt x="308" y="735" on="1"/>
        <pt x="308" y="672" on="1"/>
        <pt x="270" y="672" on="0"/>
        <pt x="216" y="642" on="0"/>
        <pt x="215" y="604" on="1"/>
        <pt x="211" y="488" on="1"/>
        <pt x="210" y="464" on="0"/>
        <pt x="208" y="419" on="0"/>
        <pt x="208" y="401" on="1"/>
        <pt x="206" y="347" on="0"/>
        <pt x="159" y="293" on="0"/>
        <pt x="107" y="293" on="1"/>
        <pt x="107" y="283" on="1"/>
        <pt x="159" y="283" on="0"/>
        <pt x="206" y="229" on="0"/>
        <pt x="208" y="175" on="1"/>
        <pt x="208" y="157" on="0"/>
        <pt x="210" y="112" on="0"/>
        <pt x="211" y="88" on="1"/>
        <pt x="215" y="-28" on="1"/>
        <pt x="216" y="-66" on="0"/>
        <pt x="269" y="-96" on="0"/>
        <pt x="308" y="-96" on="1"/>
        <pt x="308" y="-159" on="1"/>
      </contour>
    </TTGlyph>
    <TTGlyph name="braceright" xMin="43" yMin="-159" xMax="314" yMax="735">
      <contour>
        <pt x="43" y="-96" on="1"/>
        <pt x="82" y="-96" on="0"/>
        <pt x="135" y="-66" on="0"/>
        <pt x="136" y="-28" on="1"/>
        <pt x="140" y="88" on="1"/>
        <pt x="141" y="112" on="0"/>
        <pt x="143" y="157" on="0"/>
        <pt x="143" y="175" on="1"/>
        <pt x="145" y="229" on="0"/>
        <pt x="192" y="283" on="0"/>
        <pt x="244" y="283" on="1"/>
        <pt x="244" y="293" on="1"/>
        <pt x="192" y="293" on="0"/>
        <pt x="145" y="347" on="0"/>
        <pt x="143" y="401" on="1"/>
        <pt x="143" y="419" on="0"/>
        <pt x="141" y="464" on="0"/>
        <pt x="140" y="488" on="1"/>
        <pt x="136" y="604" on="1"/>
        <pt x="135" y="642" on="0"/>
        <pt x="81" y="672" on="0"/>
        <pt x="43" y="672" on="1"/>
        <pt x="43" y="735" on="1"/>
        <pt x="132" y="735" on="0"/>
        <pt x="227" y="674" on="0"/>
        <pt x="227" y="587" on="1"/>
        <pt x="227" y="391" on="1"/>
        <pt x="227" y="360" on="0"/>
        <pt x="278" y="331" on="0"/>
        <pt x="314" y="331" on="1"/>
        <pt x="314" y="245" on="1"/>
        <pt x="278" y="245" on="0"/>
        <pt x="227" y="216" on="0"/>
        <pt x="227" y="185" on="1"/>
        <pt x="227" y="-11" on="1"/>
        <pt x="227" y="-98" on="0"/>
        <pt x="132" y="-159" on="0"/>
        <pt x="43" y="-159" on="1"/>
      </contour>
    </TTGlyph>
    <TTGlyph name="bracketleft" xMin="65" yMin="-161" xMax="262" yMax="735">
      <contour>
        <pt x="65" y="735" on="1"/>
        <pt x="262" y="735" on="1"/>
        <pt x="262" y="661" on="1"/>
        <pt x="156" y="661" on="1"/>
        <pt x="156" y="-87" on="1"/>
        <pt x="262" y="-87" on="1"/>
        <pt x="262" y="-161" on="1"/>
        <pt x="65" y="-161" on="1"/>
      </contour>
    </TTGlyph>
    <TTGlyph name="bracketright" xMin="33" yMin="-161" xMax="229" yMax="735">
      <contour>
        <pt x="33" y="-87" on="1"/>
        <pt x="139" y="-87" on="1"/>
        <pt x="139" y="661" on="1"/>
        <pt x="33" y="661" on="1"/>
        <pt x="33" y="735" on="1"/>
        <pt x="229" y="735" on="1"/>
        <pt x="229" y="-161" on="1"/>
        <pt x="33" y="-161" on="1"/>
      </contour>
    </TTGlyph>
    <TTGlyph name="breve" xMin="16" yMin="600" xMax="317" yMax="723">
      <contour>
        <pt x="88" y="600" on="0"/>
        <pt x="16" y="673" on="0"/>
        <pt x="16" y="723" on="1"/>
        <pt x="86" y="723" on="1"/>
        <pt x="90" y="703" on="0"/>
        <pt x="126" y="672" on="0"/>
        <pt x="166" y="672" on="1"/>
        <pt x="206" y="672" on="0"/>
        <pt x="244" y="703" on="0"/>
        <pt x="247" y="723" on="1"/>
        <pt x="317" y="723" on="1"/>
        <pt x="317" y="673" on="0"/>
        <pt x="244" y="600" on="0"/>
        <pt x="166" y="600" on="1"/>
      </contour>
    </TTGlyph>
    <TTGlyph name="brokenbar" xMin="91" yMin="-173" xMax="175" yMax="723">
      <contour>
        <pt x="91" y="723" on="1"/>
        <pt x="175" y="723" on="1"/>
        <pt x="175" y="357" on="1"/>
        <pt x="91" y="357" on="1"/>
      </contour>
      <contour>
        <pt x="91" y="193" on="1"/>
        <pt x="175" y="193" on="1"/>
        <pt x="175" y="-173" on="1"/>
        <pt x="91" y="-173" on="1"/>
      </contour>
    </TTGlyph>
    <TTGlyph name="bullet" xMin="48" yMin="216" xMax="303" yMax="471">
      <contour>
        <pt x="141" y="216" on="0"/>
        <pt x="82" y="250" on="0"/>
        <pt x="48" y="309" on="0"/>
        <pt x="48" y="343" on="1"/>
        <pt x="48" y="377" on="0"/>
        <pt x="82" y="436" on="0"/>
        <pt x="141" y="471" on="0"/>
        <pt x="175" y="471" on="1"/>
        <pt x="209" y="471" on="0"/>
        <pt x="268" y="436" on="0"/>
        <pt x="303" y="377" on="0"/>
        <pt x="303" y="343" on="1"/>
        <pt x="303" y="309" on="0"/>
        <pt x="268" y="250" on="0"/>
        <pt x="209" y="216" on="0"/>
        <pt x="175" y="216" on="1"/>
      </contour>
    </TTGlyph>
    <TTGlyph name="c" xMin="36" yMin="-12" xMax="488" yMax="538">
      <contour>
        <pt x="152" y="-12" on="0"/>
        <pt x="36" y="122" on="0"/>
        <pt x="36" y="263" on="1"/>
        <pt x="36" y="404" on="0"/>
        <pt x="153" y="538" on="0"/>
        <pt x="274" y="538" on="1"/>
        <pt x="381" y="538" on="0"/>
        <pt x="488" y="433" on="0"/>
        <pt x="488" y="330" on="1"/>
        <pt x="384" y="330" on="1"/>
        <pt x="384" y="394" on="0"/>
        <pt x="333" y="454" on="0"/>
        <pt x="273" y="454" on="1"/>
        <pt x="205" y="454" on="0"/>
        <pt x="142" y="364" on="0"/>
        <pt x="142" y="265" on="1"/>
        <pt x="142" y="258" on="1"/>
        <pt x="142" y="160" on="0"/>
        <pt x="205" y="72" on="0"/>
        <pt x="275" y="72" on="1"/>
        <pt x="334" y="72" on="0"/>
        <pt x="389" y="135" on="0"/>
        <pt x="389" y="196" on="1"/>
        <pt x="488" y="196" on="1"/>
        <pt x="488" y="102" on="0"/>
        <pt x="380" y="-12" on="0"/>
        <pt x="274" y="-12" on="1"/>
      </contour>
    </TTGlyph>
    <TTGlyph name="cacute" xMin="36" yMin="-12" xMax="488" yMax="723">
      <component glyphName=".ttfautohint" x="36" y="0" flags="0x0"/>
      <component glyphName="c" x="0" y="0" flags="0x0"/>
      <component glyphName="acute" x="141" y="0" flags="0x0"/>
    </TTGlyph>
    <TTGlyph name="cacute.loclPLK" xMin="36" yMin="-12" xMax="488" yMax="723">
      <component glyphName=".ttfautohint" x="36" y="0" flags="0x0"/>
      <component glyphName="c" x="0" y="0" flags="0x0"/>
      <component glyphName="acute.loclPLK" x="116" y="0" flags="0x0"/>
    </TTGlyph>
    <TTGlyph name="caron" xMin="13" yMin="588" xMax="320" yMax="723">
      <contour>
        <pt x="13" y="723" on="1"/>
        <pt x="110" y="723" on="1"/>
        <pt x="167" y="647" on="1"/>
        <pt x="223" y="723" on="1"/>
        <pt x="320" y="723" on="1"/>
        <pt x="215" y="588" on="1"/>
        <pt x="119" y="588" on="1"/>
      </contour>
    </TTGlyph>
    <TTGlyph name="ccaron" xMin="36" yMin="-12" xMax="488" yMax="723">
      <component glyphName=".ttfautohint" x="36" y="0" flags="0x0"/>
      <component glyphName="c" x="0" y="0" flags="0x0"/>
      <component glyphName="caron" x="92" y="0" flags="0x0"/>
    </TTGlyph>
    <TTGlyph name="ccedilla" xMin="36" yMin="-182" xMax="488" yMax="538">
      <contour>
        <pt x="334" y="72" on="0"/>
        <pt x="389" y="135" on="0"/>
        <pt x="389" y="196" on="1"/>
        <pt x="488" y="196" on="1"/>
        <pt x="488" y="105" on="0"/>
        <pt x="388" y="-7" on="0"/>
        <pt x="290" y="-12" on="1"/>
        <pt x="286" y="-35" on="1"/>
        <pt x="328" y="-37" on="0"/>
        <pt x="380" y="-69" on="0"/>
        <pt x="380" y="-101" on="1"/>
        <pt x="380" y="-146" on="0"/>
        <pt x="305" y="-182" on="0"/>
        <pt x="257" y="-182" on="1"/>
        <pt x="204" y="-182" on="0"/>
        <pt x="159" y="-174" on="1"/>
        <pt x="159" y="-125" on="1"/>
        <pt x="255" y="-125" on="1"/>
        <pt x="276" y="-125" on="0"/>
        <pt x="297" y="-115" on="0"/>
        <pt x="297" y="-101" on="1"/>
        <pt x="297" y="-88" on="0"/>
        <pt x="279" y="-77" on="0"/>
        <pt x="257" y="-77" on="1"/>
        <pt x="210" y="-77" on="1"/>
        <pt x="222" y="-9" on="1"/>
        <pt x="127" y="5" on="0"/>
        <pt x="36" y="138" on="0"/>
        <pt x="36" y="263" on="1"/>
        <pt x="36" y="404" on="0"/>
        <pt x="153" y="538" on="0"/>
        <pt x="274" y="538" on="1"/>
        <pt x="381" y="538" on="0"/>
        <pt x="488" y="433" on="0"/>
        <pt x="488" y="330" on="1"/>
        <pt x="384" y="330" on="1"/>
        <pt x="384" y="394" on="0"/>
        <pt x="333" y="454" on="0"/>
        <pt x="273" y="454" on="1"/>
        <pt x="205" y="454" on="0"/>
        <pt x="142" y="364" on="0"/>
        <pt x="142" y="265" on="1"/>
        <pt x="142" y="258" on="1"/>
        <pt x="142" y="160" on="0"/>
        <pt x="205" y="72" on="0"/>
        <pt x="275" y="72" on="1"/>
      </contour>
    </TTGlyph>
    <TTGlyph name="ccircumflex" xMin="36" yMin="-12" xMax="488" yMax="723">
      <component glyphName=".ttfautohint" x="36" y="0" flags="0x0"/>
      <component glyphName="c" x="0" y="0" flags="0x0"/>
      <component glyphName="circumflex" x="92" y="0" flags="0x0"/>
    </TTGlyph>
    <TTGlyph name="cdotaccent" xMin="36" yMin="-12" xMax="488" yMax="723">
      <component glyphName=".ttfautohint" x="36" y="0" flags="0x0"/>
      <component glyphName="c" x="0" y="0" flags="0x0"/>
      <component glyphName="dotaccent" x="92" y="0" flags="0x0"/>
    </TTGlyph>
    <TTGlyph name="cedilla" xMin="50" yMin="-182" xMax="271" yMax="11">
      <contour>
        <pt x="95" y="-182" on="0"/>
        <pt x="50" y="-174" on="1"/>
        <pt x="50" y="-125" on="1"/>
        <pt x="146" y="-125" on="1"/>
        <pt x="167" y="-125" on="0"/>
        <pt x="188" y="-115" on="0"/>
        <pt x="188" y="-101" on="1"/>
        <pt x="188" y="-88" on="0"/>
        <pt x="170" y="-77" on="0"/>
        <pt x="148" y="-77" on="1"/>
        <pt x="101" y="-77" on="1"/>
        <pt x="116" y="11" on="1"/>
        <pt x="185" y="11" on="1"/>
        <pt x="177" y="-35" on="1"/>
        <pt x="219" y="-37" on="0"/>
        <pt x="271" y="-69" on="0"/>
        <pt x="271" y="-101" on="1"/>
        <pt x="271" y="-146" on="0"/>
        <pt x="196" y="-182" on="0"/>
        <pt x="148" y="-182" on="1"/>
      </contour>
    </TTGlyph>
    <TTGlyph name="cent" xMin="46" yMin="-49" xMax="499" yMax="723">
      <contour>
        <pt x="258" y="68" on="1"/>
        <pt x="149" y="75" on="0"/>
        <pt x="46" y="208" on="0"/>
        <pt x="46" y="342" on="1"/>
        <pt x="46" y="476" on="0"/>
        <pt x="150" y="610" on="0"/>
        <pt x="258" y="616" on="1"/>
        <pt x="258" y="723" on="1"/>
        <pt x="309" y="723" on="1"/>
        <pt x="309" y="616" on="1"/>
        <pt x="403" y="610" on="0"/>
        <pt x="499" y="505" on="0"/>
        <pt x="499" y="409" on="1"/>
        <pt x="394" y="409" on="1"/>
        <pt x="394" y="466" on="0"/>
        <pt x="355" y="525" on="0"/>
        <pt x="309" y="531" on="1"/>
        <pt x="309" y="153" on="1"/>
        <pt x="355" y="159" on="0"/>
        <pt x="399" y="220" on="0"/>
        <pt x="399" y="275" on="1"/>
        <pt x="499" y="275" on="1"/>
        <pt x="499" y="187" on="0"/>
        <pt x="403" y="75" on="0"/>
        <pt x="309" y="68" on="1"/>
        <pt x="309" y="-49" on="1"/>
        <pt x="258" y="-49" on="1"/>
      </contour>
      <contour>
        <pt x="258" y="531" on="1"/>
        <pt x="203" y="524" on="0"/>
        <pt x="152" y="435" on="0"/>
        <pt x="152" y="348" on="1"/>
        <pt x="152" y="337" on="1"/>
        <pt x="152" y="250" on="0"/>
        <pt x="203" y="161" on="0"/>
        <pt x="258" y="153" on="1"/>
      </contour>
    </TTGlyph>
    <TTGlyph name="circumflex" xMin="13" yMin="588" xMax="320" yMax="723">
      <contour>
        <pt x="119" y="723" on="1"/>
        <pt x="215" y="723" on="1"/>
        <pt x="320" y="588" on="1"/>
        <pt x="223" y="588" on="1"/>
        <pt x="167" y="664" on="1"/>
        <pt x="110" y="588" on="1"/>
        <pt x="13" y="588" on="1"/>
      </contour>
    </TTGlyph>
    <TTGlyph name="colon" xMin="92" yMin="0" xMax="204" yMax="526">
      <contour>
        <pt x="92" y="526" on="1"/>
        <pt x="204" y="526" on="1"/>
        <pt x="204" y="409" on="1"/>
        <pt x="92" y="409" on="1"/>
      </contour>
      <contour>
        <pt x="92" y="117" on="1"/>
        <pt x="204" y="117" on="1"/>
        <pt x="204" y="0" on="1"/>
        <pt x="92" y="0" on="1"/>
      </contour>
    </TTGlyph>
    <TTGlyph name="comma" xMin="83" yMin="-141" xMax="195" yMax="117">
      <contour>
        <pt x="128" y="0" on="1"/>
        <pt x="83" y="0" on="1"/>
        <pt x="83" y="117" on="1"/>
        <pt x="195" y="117" on="1"/>
        <pt x="195" y="10" on="1"/>
        <pt x="141" y="-141" on="1"/>
        <pt x="83" y="-141" on="1"/>
      </contour>
    </TTGlyph>
    <TTGlyph name="copyright" xMin="13" yMin="-12" xMax="723" yMax="698">
      <contour>
        <pt x="272" y="-12" on="0"/>
        <pt x="109" y="84" on="0"/>
        <pt x="13" y="247" on="0"/>
        <pt x="13" y="343" on="1"/>
        <pt x="13" y="439" on="0"/>
        <pt x="109" y="602" on="0"/>
        <pt x="272" y="698" on="0"/>
        <pt x="368" y="698" on="1"/>
        <pt x="464" y="698" on="0"/>
        <pt x="627" y="602" on="0"/>
        <pt x="723" y="439" on="0"/>
        <pt x="723" y="343" on="1"/>
        <pt x="723" y="247" on="0"/>
        <pt x="627" y="84" on="0"/>
        <pt x="464" y="-12" on="0"/>
        <pt x="368" y="-12" on="1"/>
      </contour>
      <contour>
        <pt x="450" y="40" on="0"/>
        <pt x="588" y="121" on="0"/>
        <pt x="669" y="260" on="0"/>
        <pt x="669" y="343" on="1"/>
        <pt x="669" y="425" on="0"/>
        <pt x="588" y="564" on="0"/>
        <pt x="450" y="646" on="0"/>
        <pt x="368" y="646" on="1"/>
        <pt x="286" y="646" on="0"/>
        <pt x="148" y="564" on="0"/>
        <pt x="67" y="425" on="0"/>
        <pt x="67" y="343" on="1"/>
        <pt x="67" y="260" on="0"/>
        <pt x="148" y="121" on="0"/>
        <pt x="286" y="40" on="0"/>
        <pt x="368" y="40" on="1"/>
      </contour>
      <contour>
        <pt x="276" y="133" on="0"/>
        <pt x="190" y="234" on="0"/>
        <pt x="190" y="342" on="1"/>
        <pt x="190" y="450" on="0"/>
        <pt x="277" y="553" on="0"/>
        <pt x="368" y="553" on="1"/>
        <pt x="450" y="553" on="0"/>
        <pt x="527" y="472" on="0"/>
        <pt x="527" y="392" on="1"/>
        <pt x="456" y="392" on="1"/>
        <pt x="456" y="446" on="0"/>
        <pt x="418" y="494" on="0"/>
        <pt x="368" y="494" on="1"/>
        <pt x="313" y="494" on="0"/>
        <pt x="262" y="423" on="0"/>
        <pt x="262" y="342" on="1"/>
        <pt x="262" y="262" on="0"/>
        <pt x="312" y="191" on="0"/>
        <pt x="368" y="191" on="1"/>
        <pt x="416" y="191" on="0"/>
        <pt x="460" y="242" on="0"/>
        <pt x="460" y="294" on="1"/>
        <pt x="527" y="294" on="1"/>
        <pt x="527" y="224" on="0"/>
        <pt x="449" y="133" on="0"/>
        <pt x="368" y="133" on="1"/>
      </contour>
    </TTGlyph>
    <TTGlyph name="currency" xMin="28" yMin="99" xMax="528" yMax="603">
      <contour>
        <pt x="29" y="144" on="1"/>
        <pt x="83" y="200" on="1"/>
        <pt x="58" y="231" on="0"/>
        <pt x="33" y="309" on="0"/>
        <pt x="33" y="351" on="1"/>
        <pt x="33" y="394" on="0"/>
        <pt x="58" y="473" on="0"/>
        <pt x="83" y="501" on="1"/>
        <pt x="28" y="555" on="1"/>
        <pt x="76" y="603" on="1"/>
        <pt x="133" y="547" on="1"/>
        <pt x="161" y="571" on="0"/>
        <pt x="238" y="598" on="0"/>
        <pt x="278" y="598" on="1"/>
        <pt x="318" y="598" on="0"/>
        <pt x="395" y="571" on="0"/>
        <pt x="423" y="547" on="1"/>
        <pt x="480" y="603" on="1"/>
        <pt x="528" y="555" on="1"/>
        <pt x="473" y="501" on="1"/>
        <pt x="498" y="473" on="0"/>
        <pt x="523" y="394" on="0"/>
        <pt x="523" y="351" on="1"/>
        <pt x="523" y="309" on="0"/>
        <pt x="498" y="231" on="0"/>
        <pt x="473" y="200" on="1"/>
        <pt x="527" y="144" on="1"/>
        <pt x="482" y="99" on="1"/>
        <pt x="427" y="157" on="1"/>
        <pt x="398" y="130" on="0"/>
        <pt x="320" y="102" on="0"/>
        <pt x="278" y="102" on="1"/>
        <pt x="236" y="102" on="0"/>
        <pt x="158" y="130" on="0"/>
        <pt x="129" y="157" on="1"/>
        <pt x="74" y="99" on="1"/>
      </contour>
      <contour>
        <pt x="322" y="181" on="0"/>
        <pt x="397" y="228" on="0"/>
        <pt x="441" y="306" on="0"/>
        <pt x="441" y="351" on="1"/>
        <pt x="441" y="395" on="0"/>
        <pt x="397" y="472" on="0"/>
        <pt x="322" y="519" on="0"/>
        <pt x="278" y="519" on="1"/>
        <pt x="234" y="519" on="0"/>
        <pt x="159" y="472" on="0"/>
        <pt x="115" y="395" on="0"/>
        <pt x="115" y="351" on="1"/>
        <pt x="115" y="306" on="0"/>
        <pt x="159" y="228" on="0"/>
        <pt x="234" y="181" on="0"/>
        <pt x="278" y="181" on="1"/>
      </contour>
    </TTGlyph>
    <TTGlyph name="d" xMin="36" yMin="-12" xMax="505" yMax="723">
      <contour>
        <pt x="144" y="-12" on="0"/>
        <pt x="36" y="123" on="0"/>
        <pt x="36" y="263" on="1"/>
        <pt x="36" y="401" on="0"/>
        <pt x="144" y="538" on="0"/>
        <pt x="237" y="538" on="1"/>
        <pt x="346" y="538" on="0"/>
        <pt x="396" y="466" on="1"/>
        <pt x="402" y="466" on="1"/>
        <pt x="402" y="723" on="1"/>
        <pt x="505" y="723" on="1"/>
        <pt x="505" y="0" on="1"/>
        <pt x="423" y="0" on="1"/>
        <pt x="413" y="70" on="1"/>
        <pt x="406" y="70" on="1"/>
        <pt x="381" y="30" on="0"/>
        <pt x="296" y="-12" on="0"/>
        <pt x="244" y="-12" on="1"/>
      </contour>
      <contour>
        <pt x="340" y="75" on="0"/>
        <pt x="402" y="167" on="0"/>
        <pt x="402" y="257" on="1"/>
        <pt x="402" y="265" on="1"/>
        <pt x="402" y="451" on="0"/>
        <pt x="273" y="451" on="1"/>
        <pt x="202" y="451" on="0"/>
        <pt x="142" y="366" on="0"/>
        <pt x="142" y="266" on="1"/>
        <pt x="142" y="257" on="1"/>
        <pt x="142" y="159" on="0"/>
        <pt x="202" y="75" on="0"/>
        <pt x="273" y="75" on="1"/>
      </contour>
    </TTGlyph>
    <TTGlyph name="dagger" xMin="42" yMin="-171" xMax="513" yMax="686">
      <contour>
        <pt x="247" y="429" on="1"/>
        <pt x="42" y="411" on="1"/>
        <pt x="42" y="510" on="1"/>
        <pt x="247" y="493" on="1"/>
        <pt x="230" y="686" on="1"/>
        <pt x="324" y="686" on="1"/>
        <pt x="307" y="493" on="1"/>
        <pt x="513" y="510" on="1"/>
        <pt x="513" y="411" on="1"/>
        <pt x="307" y="429" on="1"/>
        <pt x="327" y="-171" on="1"/>
        <pt x="227" y="-171" on="1"/>
      </contour>
    </TTGlyph>
    <TTGlyph name="daggerdbl" xMin="42" yMin="-171" xMax="513" yMax="686">
      <contour>
        <pt x="247" y="23" on="1"/>
        <pt x="42" y="6" on="1"/>
        <pt x="42" y="105" on="1"/>
        <pt x="247" y="87" on="1"/>
        <pt x="227" y="260" on="1"/>
        <pt x="247" y="429" on="1"/>
        <pt x="42" y="411" on="1"/>
        <pt x="42" y="510" on="1"/>
        <pt x="247" y="493" on="1"/>
        <pt x="230" y="686" on="1"/>
        <pt x="324" y="686" on="1"/>
        <pt x="307" y="493" on="1"/>
        <pt x="513" y="510" on="1"/>
        <pt x="513" y="411" on="1"/>
        <pt x="307" y="429" on="1"/>
        <pt x="327" y="260" on="1"/>
        <pt x="307" y="87" on="1"/>
        <pt x="513" y="105" on="1"/>
        <pt x="513" y="6" on="1"/>
        <pt x="307" y="23" on="1"/>
        <pt x="324" y="-171" on="1"/>
        <pt x="230" y="-171" on="1"/>
      </contour>
    </TTGlyph>
    <TTGlyph name="dcaron" xMin="36" yMin="-12" xMax="661" yMax="723">
      <contour>
        <pt x="144" y="-12" on="0"/>
        <pt x="36" y="123" on="0"/>
        <pt x="36" y="263" on="1"/>
        <pt x="36" y="401" on="0"/>
        <pt x="144" y="538" on="0"/>
        <pt x="237" y="538" on="1"/>
        <pt x="346" y="538" on="0"/>
        <pt x="396" y="466" on="1"/>
        <pt x="402" y="466" on="1"/>
        <pt x="402" y="723" on="1"/>
        <pt x="505" y="723" on="1"/>
        <pt x="505" y="0" on="1"/>
        <pt x="423" y="0" on="1"/>
        <pt x="413" y="70" on="1"/>
        <pt x="406" y="70" on="1"/>
        <pt x="381" y="30" on="0"/>
        <pt x="296" y="-12" on="0"/>
        <pt x="244" y="-12" on="1"/>
      </contour>
      <contour>
        <pt x="600" y="584" on="1"/>
        <pt x="560" y="584" on="1"/>
        <pt x="560" y="686" on="1"/>
        <pt x="661" y="686" on="1"/>
        <pt x="661" y="593" on="1"/>
        <pt x="612" y="475" on="1"/>
        <pt x="560" y="475" on="1"/>
      </contour>
      <contour>
        <pt x="340" y="75" on="0"/>
        <pt x="402" y="167" on="0"/>
        <pt x="402" y="257" on="1"/>
        <pt x="402" y="265" on="1"/>
        <pt x="402" y="451" on="0"/>
        <pt x="273" y="451" on="1"/>
        <pt x="202" y="451" on="0"/>
        <pt x="142" y="366" on="0"/>
        <pt x="142" y="266" on="1"/>
        <pt x="142" y="257" on="1"/>
        <pt x="142" y="159" on="0"/>
        <pt x="202" y="75" on="0"/>
        <pt x="273" y="75" on="1"/>
      </contour>
    </TTGlyph>
    <TTGlyph name="dcroat" xMin="36" yMin="-12" xMax="568" yMax="723">
      <contour>
        <pt x="568" y="593" on="1"/>
        <pt x="505" y="593" on="1"/>
        <pt x="505" y="0" on="1"/>
        <pt x="423" y="0" on="1"/>
        <pt x="413" y="70" on="1"/>
        <pt x="406" y="70" on="1"/>
        <pt x="381" y="30" on="0"/>
        <pt x="296" y="-12" on="0"/>
        <pt x="244" y="-12" on="1"/>
        <pt x="144" y="-12" on="0"/>
        <pt x="36" y="123" on="0"/>
        <pt x="36" y="263" on="1"/>
        <pt x="36" y="401" on="0"/>
        <pt x="144" y="538" on="0"/>
        <pt x="237" y="538" on="1"/>
        <pt x="346" y="538" on="0"/>
        <pt x="396" y="466" on="1"/>
        <pt x="402" y="466" on="1"/>
        <pt x="402" y="593" on="1"/>
        <pt x="257" y="593" on="1"/>
        <pt x="257" y="658" on="1"/>
        <pt x="402" y="658" on="1"/>
        <pt x="402" y="723" on="1"/>
        <pt x="505" y="723" on="1"/>
        <pt x="505" y="658" on="1"/>
        <pt x="568" y="658" on="1"/>
      </contour>
      <contour>
        <pt x="402" y="265" on="1"/>
        <pt x="402" y="451" on="0"/>
        <pt x="273" y="451" on="1"/>
        <pt x="202" y="451" on="0"/>
        <pt x="142" y="366" on="0"/>
        <pt x="142" y="266" on="1"/>
        <pt x="142" y="257" on="1"/>
        <pt x="142" y="159" on="0"/>
        <pt x="202" y="75" on="0"/>
        <pt x="273" y="75" on="1"/>
        <pt x="340" y="75" on="0"/>
        <pt x="402" y="167" on="0"/>
        <pt x="402" y="257" on="1"/>
      </contour>
    </TTGlyph>
    <TTGlyph name="degree" xMin="57" yMin="415" xMax="340" yMax="698">
      <contour>
        <pt x="160" y="415" on="0"/>
        <pt x="95" y="453" on="0"/>
        <pt x="57" y="518" on="0"/>
        <pt x="57" y="557" on="1"/>
        <pt x="57" y="595" on="0"/>
        <pt x="95" y="660" on="0"/>
        <pt x="160" y="698" on="0"/>
        <pt x="199" y="698" on="1"/>
        <pt x="237" y="698" on="0"/>
        <pt x="302" y="660" on="0"/>
        <pt x="340" y="595" on="0"/>
        <pt x="340" y="557" on="1"/>
        <pt x="340" y="518" on="0"/>
        <pt x="302" y="453" on="0"/>
        <pt x="237" y="415" on="0"/>
        <pt x="199" y="415" on="1"/>
      </contour>
      <contour>
        <pt x="231" y="477" on="0"/>
        <pt x="277" y="524" on="0"/>
        <pt x="277" y="557" on="1"/>
        <pt x="277" y="589" on="0"/>
        <pt x="231" y="635" on="0"/>
        <pt x="199" y="635" on="1"/>
        <pt x="166" y="635" on="0"/>
        <pt x="119" y="589" on="0"/>
        <pt x="119" y="557" on="1"/>
        <pt x="119" y="524" on="0"/>
        <pt x="166" y="477" on="0"/>
        <pt x="199" y="477" on="1"/>
      </contour>
    </TTGlyph>
    <TTGlyph name="dieresis" xMin="21" yMin="621" xMax="312" yMax="723">
      <contour>
        <pt x="21" y="723" on="1"/>
        <pt x="118" y="723" on="1"/>
        <pt x="118" y="621" on="1"/>
        <pt x="21" y="621" on="1"/>
      </contour>
      <contour>
        <pt x="215" y="723" on="1"/>
        <pt x="312" y="723" on="1"/>
        <pt x="312" y="621" on="1"/>
        <pt x="215" y="621" on="1"/>
      </contour>
    </TTGlyph>
    <TTGlyph name="divide" xMin="38" yMin="0" xMax="511" yMax="511">
      <contour>
        <pt x="221" y="511" on="1"/>
        <pt x="327" y="511" on="1"/>
        <pt x="327" y="408" on="1"/>
        <pt x="221" y="408" on="1"/>
      </contour>
      <contour>
        <pt x="38" y="300" on="1"/>
        <pt x="511" y="300" on="1"/>
        <pt x="511" y="211" on="1"/>
        <pt x="38" y="211" on="1"/>
      </contour>
      <contour>
        <pt x="221" y="103" on="1"/>
        <pt x="327" y="103" on="1"/>
        <pt x="327" y="0" on="1"/>
        <pt x="221" y="0" on="1"/>
      </contour>
    </TTGlyph>
    <TTGlyph name="dollar" xMin="50" yMin="-49" xMax="494" yMax="723">
      <contour>
        <pt x="250" y="67" on="1"/>
        <pt x="152" y="72" on="0"/>
        <pt x="50" y="161" on="0"/>
        <pt x="50" y="225" on="1"/>
        <pt x="50" y="238" on="0"/>
        <pt x="51" y="244" on="1"/>
        <pt x="151" y="244" on="1"/>
        <pt x="151" y="235" on="1"/>
        <pt x="151" y="197" on="0"/>
        <pt x="205" y="155" on="0"/>
        <pt x="250" y="149" on="1"/>
        <pt x="250" y="311" on="1"/>
        <pt x="190" y="326" on="0"/>
        <pt x="116" y="356" on="0"/>
        <pt x="64" y="416" on="0"/>
        <pt x="64" y="464" on="1"/>
        <pt x="64" y="530" on="0"/>
        <pt x="164" y="610" on="0"/>
        <pt x="250" y="616" on="1"/>
        <pt x="250" y="723" on="1"/>
        <pt x="301" y="723" on="1"/>
        <pt x="301" y="616" on="1"/>
        <pt x="383" y="611" on="0"/>
        <pt x="481" y="532" on="0"/>
        <pt x="481" y="474" on="1"/>
        <pt x="480" y="453" on="1"/>
        <pt x="381" y="453" on="1"/>
        <pt x="381" y="460" on="1"/>
        <pt x="381" y="488" on="0"/>
        <pt x="341" y="527" on="0"/>
        <pt x="301" y="533" on="1"/>
        <pt x="301" y="393" on="1"/>
        <pt x="360" y="378" on="0"/>
        <pt x="439" y="347" on="0"/>
        <pt x="494" y="284" on="0"/>
        <pt x="494" y="232" on="1"/>
        <pt x="494" y="154" on="0"/>
        <pt x="391" y="74" on="0"/>
        <pt x="301" y="68" on="1"/>
        <pt x="301" y="-49" on="1"/>
        <pt x="250" y="-49" on="1"/>
      </contour>
      <contour>
        <pt x="250" y="534" on="1"/>
        <pt x="206" y="531" on="0"/>
        <pt x="167" y="495" on="0"/>
        <pt x="167" y="472" on="1"/>
        <pt x="167" y="447" on="0"/>
        <pt x="209" y="418" on="0"/>
        <pt x="250" y="406" on="1"/>
      </contour>
      <contour>
        <pt x="341" y="154" on="0"/>
        <pt x="391" y="189" on="0"/>
        <pt x="391" y="218" on="1"/>
        <pt x="391" y="248" on="0"/>
        <pt x="345" y="283" on="0"/>
        <pt x="301" y="297" on="1"/>
        <pt x="301" y="149" on="1"/>
      </contour>
    </TTGlyph>
    <TTGlyph name="dotaccent" xMin="116" yMin="618" xMax="218" yMax="723">
      <contour>
        <pt x="116" y="723" on="1"/>
        <pt x="218" y="723" on="1"/>
        <pt x="218" y="618" on="1"/>
        <pt x="116" y="618" on="1"/>
      </contour>
    </TTGlyph>
    <TTGlyph name="dotbelowcomb" xMin="-217" yMin="-173" xMax="-115" yMax="-68">
      <contour>
        <pt x="-217" y="-68" on="1"/>
        <pt x="-115" y="-68" on="1"/>
        <pt x="-115" y="-173" on="1"/>
        <pt x="-217" y="-173" on="1"/>
      </contour>
    </TTGlyph>
    <TTGlyph name="dotlessi" xMin="88" yMin="0" xMax="191" yMax="526">
      <contour>
        <pt x="88" y="526" on="1"/>
        <pt x="191" y="526" on="1"/>
        <pt x="191" y="0" on="1"/>
        <pt x="88" y="0" on="1"/>
      </contour>
    </TTGlyph>
    <TTGlyph name="e" xMin="38" yMin="-12" xMax="518" yMax="538">
      <contour>
        <pt x="162" y="-12" on="0"/>
        <pt x="38" y="122" on="0"/>
        <pt x="38" y="263" on="1"/>
        <pt x="38" y="404" on="0"/>
        <pt x="162" y="538" on="0"/>
        <pt x="289" y="538" on="1"/>
        <pt x="404" y="538" on="0"/>
        <pt x="518" y="413" on="0"/>
        <pt x="518" y="277" on="1"/>
        <pt x="518" y="237" on="1"/>
        <pt x="144" y="237" on="1"/>
        <pt x="148" y="152" on="0"/>
        <pt x="217" y="71" on="0"/>
        <pt x="290" y="71" on="1"/>
        <pt x="347" y="71" on="0"/>
        <pt x="417" y="125" on="0"/>
        <pt x="417" y="181" on="1"/>
        <pt x="518" y="181" on="1"/>
        <pt x="518" y="87" on="0"/>
        <pt x="391" y="-12" on="0"/>
        <pt x="289" y="-12" on="1"/>
      </contour>
      <contour>
        <pt x="411" y="315" on="1"/>
        <pt x="411" y="455" on="0"/>
        <pt x="289" y="455" on="1"/>
        <pt x="221" y="455" on="0"/>
        <pt x="153" y="388" on="0"/>
        <pt x="146" y="315" on="1"/>
      </contour>
    </TTGlyph>
    <TTGlyph name="eacute" xMin="38" yMin="-12" xMax="518" yMax="723">
      <component glyphName=".ttfautohint" x="38" y="0" flags="0x0"/>
      <component glyphName="e" x="0" y="0" flags="0x0"/>
      <component glyphName="acute" x="160" y="0" flags="0x0"/>
    </TTGlyph>
    <TTGlyph name="ebreve" xMin="38" yMin="-12" xMax="518" yMax="723">
      <component glyphName=".ttfautohint" x="38" y="0" flags="0x0"/>
      <component glyphName="e" x="0" y="0" flags="0x0"/>
      <component glyphName="breve" x="111" y="0" flags="0x0"/>
    </TTGlyph>
    <TTGlyph name="ecaron" xMin="38" yMin="-12" xMax="518" yMax="723">
      <component glyphName=".ttfautohint" x="38" y="0" flags="0x0"/>
      <component glyphName="e" x="0" y="0" flags="0x0"/>
      <component glyphName="caron" x="111" y="0" flags="0x0"/>
    </TTGlyph>
    <TTGlyph name="ecircumflex" xMin="38" yMin="-12" xMax="518" yMax="723">
      <component glyphName=".ttfautohint" x="38" y="0" flags="0x0"/>
      <component glyphName="e" x="0" y="0" flags="0x0"/>
      <component glyphName="circumflex" x="111" y="0" flags="0x0"/>
    </TTGlyph>
    <TTGlyph name="edieresis" xMin="38" yMin="-12" xMax="518" yMax="723">
      <component glyphName=".ttfautohint" x="38" y="0" flags="0x0"/>
      <component glyphName="e" x="0" y="0" flags="0x0"/>
      <component glyphName="dieresis" x="111" y="0" flags="0x0"/>
    </TTGlyph>
    <TTGlyph name="edotaccent" xMin="38" yMin="-12" xMax="518" yMax="723">
      <component glyphName=".ttfautohint" x="38" y="0" flags="0x0"/>
      <component glyphName="e" x="0" y="0" flags="0x0"/>
      <component glyphName="dotaccent" x="111" y="0" flags="0x0"/>
    </TTGlyph>
    <TTGlyph name="egrave" xMin="38" yMin="-12" xMax="518" yMax="723">
      <component glyphName=".ttfautohint" x="38" y="0" flags="0x0"/>
      <component glyphName="e" x="0" y="0" flags="0x0"/>
      <component glyphName="grave" x="52" y="0" flags="0x0"/>
    </TTGlyph>
    <TTGlyph name="eight" xMin="36" yMin="-12" xMax="519" yMax="698">
      <contour>
        <pt x="156" y="-12" on="0"/>
        <pt x="36" y="99" on="0"/>
        <pt x="36" y="188" on="1"/>
        <pt x="36" y="308" on="0"/>
        <pt x="148" y="352" on="1"/>
        <pt x="102" y="376" on="0"/>
        <pt x="54" y="457" on="0"/>
        <pt x="54" y="507" on="1"/>
        <pt x="54" y="561" on="0"/>
        <pt x="105" y="647" on="0"/>
        <pt x="206" y="698" on="0"/>
        <pt x="277" y="698" on="1"/>
        <pt x="349" y="698" on="0"/>
        <pt x="449" y="647" on="0"/>
        <pt x="500" y="561" on="0"/>
        <pt x="500" y="507" on="1"/>
        <pt x="500" y="457" on="0"/>
        <pt x="452" y="376" on="0"/>
        <pt x="406" y="352" on="1"/>
        <pt x="519" y="308" on="0"/>
        <pt x="519" y="188" on="1"/>
        <pt x="519" y="99" on="0"/>
        <pt x="399" y="-12" on="0"/>
        <pt x="277" y="-12" on="1"/>
      </contour>
      <contour>
        <pt x="333" y="393" on="0"/>
        <pt x="397" y="451" on="0"/>
        <pt x="397" y="503" on="1"/>
        <pt x="397" y="555" on="0"/>
        <pt x="333" y="614" on="0"/>
        <pt x="277" y="614" on="1"/>
        <pt x="222" y="614" on="0"/>
        <pt x="158" y="555" on="0"/>
        <pt x="158" y="503" on="1"/>
        <pt x="158" y="451" on="0"/>
        <pt x="221" y="393" on="0"/>
        <pt x="277" y="393" on="1"/>
      </contour>
      <contour>
        <pt x="343" y="72" on="0"/>
        <pt x="413" y="135" on="0"/>
        <pt x="413" y="191" on="1"/>
        <pt x="413" y="246" on="0"/>
        <pt x="343" y="308" on="0"/>
        <pt x="277" y="308" on="1"/>
        <pt x="212" y="308" on="0"/>
        <pt x="143" y="246" on="0"/>
        <pt x="143" y="191" on="1"/>
        <pt x="143" y="135" on="0"/>
        <pt x="212" y="72" on="0"/>
        <pt x="277" y="72" on="1"/>
      </contour>
    </TTGlyph>
    <TTGlyph name="ellipsis" xMin="111" yMin="0" xMax="888" yMax="117">
      <contour>
        <pt x="111" y="117" on="1"/>
        <pt x="223" y="117" on="1"/>
        <pt x="223" y="0" on="1"/>
        <pt x="111" y="0" on="1"/>
      </contour>
      <contour>
        <pt x="444" y="117" on="1"/>
        <pt x="556" y="117" on="1"/>
        <pt x="556" y="0" on="1"/>
        <pt x="444" y="0" on="1"/>
      </contour>
      <contour>
        <pt x="776" y="117" on="1"/>
        <pt x="888" y="117" on="1"/>
        <pt x="888" y="0" on="1"/>
        <pt x="776" y="0" on="1"/>
      </contour>
    </TTGlyph>
    <TTGlyph name="emacron" xMin="38" yMin="-12" xMax="518" yMax="699">
      <component glyphName=".ttfautohint" x="38" y="0" flags="0x0"/>
      <component glyphName="e" x="0" y="0" flags="0x0"/>
      <component glyphName="macron" x="111" y="0" flags="0x0"/>
    </TTGlyph>
    <TTGlyph name="emdash" xMin="0" yMin="229" xMax="1000" yMax="311">
      <contour>
        <pt x="0" y="311" on="1"/>
        <pt x="1000" y="311" on="1"/>
        <pt x="1000" y="229" on="1"/>
        <pt x="0" y="229" on="1"/>
      </contour>
    </TTGlyph>
    <TTGlyph name="endash" xMin="0" yMin="229" xMax="556" yMax="311">
      <contour>
        <pt x="0" y="311" on="1"/>
        <pt x="556" y="311" on="1"/>
        <pt x="556" y="229" on="1"/>
        <pt x="0" y="229" on="1"/>
      </contour>
    </TTGlyph>
    <TTGlyph name="eng" xMin="68" yMin="-182" xMax="508" yMax="538">
      <contour>
        <pt x="353" y="-182" on="0"/>
        <pt x="312" y="-169" on="1"/>
        <pt x="312" y="-100" on="1"/>
        <pt x="359" y="-100" on="1"/>
        <pt x="381" y="-100" on="0"/>
        <pt x="405" y="-76" on="0"/>
        <pt x="405" y="-53" on="1"/>
        <pt x="405" y="344" on="1"/>
        <pt x="405" y="403" on="0"/>
        <pt x="352" y="450" on="0"/>
        <pt x="301" y="450" on="1"/>
        <pt x="266" y="450" on="0"/>
        <pt x="206" y="415" on="0"/>
        <pt x="171" y="351" on="0"/>
        <pt x="171" y="309" on="1"/>
        <pt x="171" y="0" on="1"/>
        <pt x="68" y="0" on="1"/>
        <pt x="68" y="526" on="1"/>
        <pt x="151" y="526" on="1"/>
        <pt x="161" y="456" on="1"/>
        <pt x="168" y="456" on="1"/>
        <pt x="196" y="496" on="0"/>
        <pt x="285" y="538" on="0"/>
        <pt x="341" y="538" on="1"/>
        <pt x="508" y="538" on="0"/>
        <pt x="508" y="357" on="1"/>
        <pt x="508" y="-55" on="1"/>
        <pt x="508" y="-109" on="0"/>
        <pt x="453" y="-182" on="0"/>
        <pt x="389" y="-182" on="1"/>
      </contour>
    </TTGlyph>
    <TTGlyph name="eogonek" xMin="38" yMin="-182" xMax="518" yMax="538">
      <contour>
        <pt x="407" y="-182" on="0"/>
        <pt x="348" y="-136" on="0"/>
        <pt x="348" y="-84" on="1"/>
        <pt x="348" y="-39" on="0"/>
        <pt x="371" y="1" on="1"/>
        <pt x="333" y="-12" on="0"/>
        <pt x="288" y="-12" on="1"/>
        <pt x="161" y="-12" on="0"/>
        <pt x="38" y="122" on="0"/>
        <pt x="38" y="263" on="1"/>
        <pt x="38" y="404" on="0"/>
        <pt x="162" y="538" on="0"/>
        <pt x="289" y="538" on="1"/>
        <pt x="404" y="538" on="0"/>
        <pt x="518" y="413" on="0"/>
        <pt x="518" y="277" on="1"/>
        <pt x="518" y="237" on="1"/>
        <pt x="144" y="237" on="1"/>
        <pt x="148" y="152" on="0"/>
        <pt x="217" y="71" on="0"/>
        <pt x="290" y="71" on="1"/>
        <pt x="347" y="71" on="0"/>
        <pt x="417" y="125" on="0"/>
        <pt x="417" y="181" on="1"/>
        <pt x="518" y="181" on="1"/>
        <pt x="518" y="105" on="0"/>
        <pt x="475" y="57" on="1"/>
        <pt x="459" y="38" on="0"/>
        <pt x="435" y="-18" on="0"/>
        <pt x="435" y="-47" on="1"/>
        <pt x="435" y="-78" on="0"/>
        <pt x="463" y="-116" on="0"/>
        <pt x="491" y="-116" on="1"/>
        <pt x="518" y="-116" on="1"/>
        <pt x="518" y="-168" on="1"/>
        <pt x="481" y="-182" on="0"/>
        <pt x="450" y="-182" on="1"/>
      </contour>
      <contour>
        <pt x="411" y="315" on="1"/>
        <pt x="411" y="455" on="0"/>
        <pt x="289" y="455" on="1"/>
        <pt x="221" y="455" on="0"/>
        <pt x="153" y="388" on="0"/>
        <pt x="146" y="315" on="1"/>
      </contour>
    </TTGlyph>
    <TTGlyph name="equal" xMin="56" yMin="103" xMax="529" yMax="405">
      <contour>
        <pt x="56" y="405" on="1"/>
        <pt x="529" y="405" on="1"/>
        <pt x="529" y="315" on="1"/>
        <pt x="56" y="315" on="1"/>
      </contour>
      <contour>
        <pt x="56" y="192" on="1"/>
        <pt x="529" y="192" on="1"/>
        <pt x="529" y="103" on="1"/>
        <pt x="56" y="103" on="1"/>
      </contour>
    </TTGlyph>
    <TTGlyph name="equivalence" xMin="57" yMin="10" xMax="529" yMax="525">
      <contour>
        <pt x="57" y="525" on="1"/>
        <pt x="529" y="525" on="1"/>
        <pt x="529" y="435" on="1"/>
        <pt x="57" y="435" on="1"/>
      </contour>
      <contour>
        <pt x="57" y="312" on="1"/>
        <pt x="529" y="312" on="1"/>
        <pt x="529" y="222" on="1"/>
        <pt x="57" y="222" on="1"/>
      </contour>
      <contour>
        <pt x="57" y="99" on="1"/>
        <pt x="529" y="99" on="1"/>
        <pt x="529" y="10" on="1"/>
        <pt x="57" y="10" on="1"/>
      </contour>
    </TTGlyph>
    <TTGlyph name="estimated" xMin="45" yMin="-12" xMax="559" yMax="538">
      <contour>
        <pt x="224" y="-12" on="0"/>
        <pt x="107" y="59" on="0"/>
        <pt x="45" y="183" on="0"/>
        <pt x="45" y="263" on="1"/>
        <pt x="45" y="343" on="0"/>
        <pt x="107" y="467" on="0"/>
        <pt x="224" y="538" on="0"/>
        <pt x="302" y="538" on="1"/>
        <pt x="380" y="538" on="0"/>
        <pt x="496" y="465" on="0"/>
        <pt x="559" y="335" on="0"/>
        <pt x="559" y="253" on="1"/>
        <pt x="559" y="248" on="1"/>
        <pt x="153" y="248" on="1"/>
        <pt x="153" y="83" on="1"/>
        <pt x="211" y="30" on="0"/>
        <pt x="302" y="30" on="1"/>
        <pt x="367" y="30" on="0"/>
        <pt x="466" y="88" on="0"/>
        <pt x="492" y="139" on="1"/>
        <pt x="526" y="118" on="1"/>
        <pt x="494" y="57" on="0"/>
        <pt x="379" y="-12" on="0"/>
        <pt x="302" y="-12" on="1"/>
      </contour>
      <contour>
        <pt x="451" y="290" on="1"/>
        <pt x="451" y="441" on="1"/>
        <pt x="391" y="496" on="0"/>
        <pt x="302" y="496" on="1"/>
        <pt x="212" y="496" on="0"/>
        <pt x="153" y="442" on="1"/>
        <pt x="153" y="290" on="1"/>
      </contour>
    </TTGlyph>
    <TTGlyph name="eth" xMin="36" yMin="-12" xMax="537" yMax="723">
      <contour>
        <pt x="161" y="-12" on="0"/>
        <pt x="36" y="122" on="0"/>
        <pt x="36" y="262" on="1"/>
        <pt x="36" y="397" on="0"/>
        <pt x="156" y="535" on="0"/>
        <pt x="261" y="535" on="1"/>
        <pt x="300" y="535" on="0"/>
        <pt x="342" y="521" on="1"/>
        <pt x="344" y="523" on="1"/>
        <pt x="319" y="564" on="0"/>
        <pt x="277" y="607" on="1"/>
        <pt x="121" y="595" on="1"/>
        <pt x="121" y="659" on="1"/>
        <pt x="221" y="666" on="1"/>
        <pt x="208" y="677" on="0"/>
        <pt x="173" y="704" on="1"/>
        <pt x="154" y="719" on="1"/>
        <pt x="156" y="723" on="1"/>
        <pt x="274" y="723" on="1"/>
        <pt x="311" y="695" on="0"/>
        <pt x="332" y="675" on="1"/>
        <pt x="486" y="685" on="1"/>
        <pt x="486" y="621" on="1"/>
        <pt x="393" y="615" on="1"/>
        <pt x="463" y="538" on="0"/>
        <pt x="537" y="365" on="0"/>
        <pt x="537" y="262" on="1"/>
        <pt x="537" y="122" on="0"/>
        <pt x="411" y="-12" on="0"/>
        <pt x="286" y="-12" on="1"/>
      </contour>
      <contour>
        <pt x="362" y="73" on="0"/>
        <pt x="431" y="162" on="0"/>
        <pt x="431" y="259" on="1"/>
        <pt x="431" y="261" on="1"/>
        <pt x="431" y="360" on="0"/>
        <pt x="362" y="450" on="0"/>
        <pt x="286" y="450" on="1"/>
        <pt x="210" y="450" on="0"/>
        <pt x="142" y="363" on="0"/>
        <pt x="142" y="268" on="1"/>
        <pt x="142" y="259" on="1"/>
        <pt x="142" y="162" on="0"/>
        <pt x="210" y="73" on="0"/>
        <pt x="286" y="73" on="1"/>
      </contour>
    </TTGlyph>
    <TTGlyph name="exclam" xMin="85" yMin="0" xMax="211" yMax="686">
      <contour>
        <pt x="103" y="368" on="1"/>
        <pt x="90" y="616" on="0"/>
        <pt x="85" y="686" on="1"/>
        <pt x="211" y="686" on="1"/>
        <pt x="206" y="616" on="0"/>
        <pt x="193" y="368" on="1"/>
        <pt x="182" y="179" on="1"/>
        <pt x="114" y="179" on="1"/>
      </contour>
      <contour>
        <pt x="92" y="117" on="1"/>
        <pt x="204" y="117" on="1"/>
        <pt x="204" y="0" on="1"/>
        <pt x="92" y="0" on="1"/>
      </contour>
    </TTGlyph>
    <TTGlyph name="exclamdbl" xMin="85" yMin="0" xMax="447" yMax="686">
      <component glyphName=".ttfautohint" x="85" y="0" flags="0x0"/>
      <component glyphName="exclam" x="236" y="0" flags="0x0"/>
      <component glyphName="exclam" x="0" y="0" flags="0x0"/>
    </TTGlyph>
    <TTGlyph name="exclamdown" xMin="104" yMin="-160" xMax="230" yMax="526">
      <contour>
        <pt x="111" y="526" on="1"/>
        <pt x="223" y="526" on="1"/>
        <pt x="223" y="409" on="1"/>
        <pt x="111" y="409" on="1"/>
      </contour>
      <contour>
        <pt x="113" y="-19" on="0"/>
        <pt x="123" y="172" on="1"/>
        <pt x="125" y="197" on="0"/>
        <pt x="133" y="347" on="1"/>
        <pt x="201" y="347" on="1"/>
        <pt x="209" y="197" on="0"/>
        <pt x="211" y="172" on="1"/>
        <pt x="221" y="-19" on="0"/>
        <pt x="230" y="-160" on="1"/>
        <pt x="104" y="-160" on="1"/>
      </contour>
    </TTGlyph>
    <TTGlyph name="f" xMin="9" yMin="0" xMax="287" yMax="731">
      <contour>
        <pt x="85" y="441" on="1"/>
        <pt x="9" y="441" on="1"/>
        <pt x="9" y="526" on="1"/>
        <pt x="85" y="526" on="1"/>
        <pt x="85" y="603" on="1"/>
        <pt x="85" y="658" on="0"/>
        <pt x="142" y="731" on="0"/>
        <pt x="208" y="731" on="1"/>
        <pt x="228" y="731" on="0"/>
        <pt x="272" y="723" on="0"/>
        <pt x="287" y="718" on="1"/>
        <pt x="287" y="646" on="1"/>
        <pt x="236" y="646" on="1"/>
        <pt x="188" y="646" on="0"/>
        <pt x="188" y="600" on="1"/>
        <pt x="188" y="526" on="1"/>
        <pt x="287" y="526" on="1"/>
        <pt x="287" y="441" on="1"/>
        <pt x="188" y="441" on="1"/>
        <pt x="188" y="0" on="1"/>
        <pt x="85" y="0" on="1"/>
      </contour>
    </TTGlyph>
    <TTGlyph name="f_f" xMin="9" yMin="0" xMax="582" yMax="731">
      <contour>
        <pt x="483" y="646" on="0"/>
        <pt x="483" y="600" on="1"/>
        <pt x="483" y="526" on="1"/>
        <pt x="582" y="526" on="1"/>
        <pt x="582" y="441" on="1"/>
        <pt x="483" y="441" on="1"/>
        <pt x="483" y="0" on="1"/>
        <pt x="380" y="0" on="1"/>
        <pt x="380" y="441" on="1"/>
        <pt x="188" y="441" on="1"/>
        <pt x="188" y="0" on="1"/>
        <pt x="85" y="0" on="1"/>
        <pt x="85" y="441" on="1"/>
        <pt x="9" y="441" on="1"/>
        <pt x="9" y="526" on="1"/>
        <pt x="85" y="526" on="1"/>
        <pt x="85" y="603" on="1"/>
        <pt x="85" y="658" on="0"/>
        <pt x="142" y="731" on="0"/>
        <pt x="208" y="731" on="1"/>
        <pt x="228" y="731" on="0"/>
        <pt x="272" y="723" on="0"/>
        <pt x="287" y="718" on="1"/>
        <pt x="287" y="646" on="1"/>
        <pt x="236" y="646" on="1"/>
        <pt x="188" y="646" on="0"/>
        <pt x="188" y="600" on="1"/>
        <pt x="188" y="526" on="1"/>
        <pt x="380" y="526" on="1"/>
        <pt x="380" y="603" on="1"/>
        <pt x="380" y="658" on="0"/>
        <pt x="437" y="731" on="0"/>
        <pt x="503" y="731" on="1"/>
        <pt x="523" y="731" on="0"/>
        <pt x="567" y="723" on="0"/>
        <pt x="582" y="718" on="1"/>
        <pt x="582" y="646" on="1"/>
        <pt x="530" y="646" on="1"/>
      </contour>
    </TTGlyph>
    <TTGlyph name="fi" xMin="9" yMin="0" xMax="466" yMax="731">
      <component glyphName=".ttfautohint" x="9" y="0" flags="0x0"/>
      <component glyphName="f" x="0" y="0" flags="0x0"/>
      <component glyphName="i" x="295" y="0" flags="0x0"/>
    </TTGlyph>
    <TTGlyph name="five" xMin="36" yMin="-12" xMax="515" yMax="686">
      <contour>
        <pt x="166" y="-12" on="0"/>
        <pt x="36" y="109" on="0"/>
        <pt x="36" y="213" on="1"/>
        <pt x="142" y="213" on="1"/>
        <pt x="142" y="149" on="0"/>
        <pt x="217" y="72" on="0"/>
        <pt x="276" y="72" on="1"/>
        <pt x="337" y="72" on="0"/>
        <pt x="409" y="150" on="0"/>
        <pt x="409" y="224" on="1"/>
        <pt x="409" y="290" on="0"/>
        <pt x="340" y="362" on="0"/>
        <pt x="282" y="362" on="1"/>
        <pt x="242" y="362" on="0"/>
        <pt x="176" y="323" on="0"/>
        <pt x="156" y="292" on="1"/>
        <pt x="60" y="306" on="1"/>
        <pt x="87" y="686" on="1"/>
        <pt x="480" y="686" on="1"/>
        <pt x="480" y="590" on="1"/>
        <pt x="175" y="590" on="1"/>
        <pt x="161" y="399" on="1"/>
        <pt x="223" y="446" on="0"/>
        <pt x="307" y="446" on="1"/>
        <pt x="399" y="446" on="0"/>
        <pt x="515" y="333" on="0"/>
        <pt x="515" y="224" on="1"/>
        <pt x="515" y="112" on="0"/>
        <pt x="388" y="-12" on="0"/>
        <pt x="276" y="-12" on="1"/>
      </contour>
    </TTGlyph>
    <TTGlyph name="fiveeighths" xMin="40" yMin="-12" xMax="791" yMax="698">
      <contour>
        <pt x="652" y="698" on="1"/>
        <pt x="728" y="698" on="1"/>
        <pt x="182" y="-12" on="1"/>
        <pt x="106" y="-12" on="1"/>
      </contour>
      <contour>
        <pt x="110" y="321" on="0"/>
        <pt x="40" y="385" on="0"/>
        <pt x="40" y="440" on="1"/>
        <pt x="110" y="440" on="1"/>
        <pt x="110" y="412" on="0"/>
        <pt x="143" y="380" on="0"/>
        <pt x="169" y="380" on="1"/>
        <pt x="195" y="380" on="0"/>
        <pt x="226" y="414" on="0"/>
        <pt x="226" y="447" on="1"/>
        <pt x="226" y="477" on="0"/>
        <pt x="193" y="507" on="0"/>
        <pt x="165" y="507" on="1"/>
        <pt x="137" y="507" on="0"/>
        <pt x="113" y="485" on="1"/>
        <pt x="52" y="494" on="1"/>
        <pt x="67" y="686" on="1"/>
        <pt x="279" y="686" on="1"/>
        <pt x="279" y="624" on="1"/>
        <pt x="125" y="624" on="1"/>
        <pt x="120" y="551" on="1"/>
        <pt x="148" y="566" on="0"/>
        <pt x="184" y="566" on="1"/>
        <pt x="234" y="566" on="0"/>
        <pt x="297" y="505" on="0"/>
        <pt x="297" y="447" on="1"/>
        <pt x="297" y="387" on="0"/>
        <pt x="229" y="321" on="0"/>
        <pt x="169" y="321" on="1"/>
      </contour>
      <contour>
        <pt x="597" y="-12" on="0"/>
        <pt x="534" y="48" on="0"/>
        <pt x="534" y="97" on="1"/>
        <pt x="534" y="155" on="0"/>
        <pt x="587" y="180" on="1"/>
        <pt x="565" y="193" on="0"/>
        <pt x="542" y="233" on="0"/>
        <pt x="542" y="256" on="1"/>
        <pt x="542" y="301" on="0"/>
        <pt x="604" y="359" on="0"/>
        <pt x="662" y="359" on="1"/>
        <pt x="720" y="359" on="0"/>
        <pt x="782" y="301" on="0"/>
        <pt x="782" y="256" on="1"/>
        <pt x="782" y="234" on="0"/>
        <pt x="758" y="194" on="0"/>
        <pt x="737" y="180" on="1"/>
        <pt x="763" y="167" on="0"/>
        <pt x="791" y="123" on="0"/>
        <pt x="791" y="97" on="1"/>
        <pt x="791" y="48" on="0"/>
        <pt x="727" y="-12" on="0"/>
        <pt x="662" y="-12" on="1"/>
      </contour>
      <contour>
        <pt x="686" y="207" on="0"/>
        <pt x="713" y="232" on="0"/>
        <pt x="713" y="254" on="1"/>
        <pt x="713" y="276" on="0"/>
        <pt x="686" y="300" on="0"/>
        <pt x="662" y="300" on="1"/>
        <pt x="638" y="300" on="0"/>
        <pt x="611" y="276" on="0"/>
        <pt x="611" y="254" on="1"/>
        <pt x="611" y="232" on="0"/>
        <pt x="638" y="207" on="0"/>
        <pt x="662" y="207" on="1"/>
      </contour>
      <contour>
        <pt x="690" y="47" on="0"/>
        <pt x="721" y="74" on="0"/>
        <pt x="721" y="98" on="1"/>
        <pt x="721" y="122" on="0"/>
        <pt x="690" y="148" on="0"/>
        <pt x="662" y="148" on="1"/>
        <pt x="633" y="148" on="0"/>
        <pt x="603" y="122" on="0"/>
        <pt x="603" y="98" on="1"/>
        <pt x="603" y="74" on="0"/>
        <pt x="633" y="47" on="0"/>
        <pt x="662" y="47" on="1"/>
      </contour>
    </TTGlyph>
    <TTGlyph name="fl" xMin="9" yMin="0" xMax="466" yMax="731">
      <component glyphName=".ttfautohint" x="9" y="0" flags="0x0"/>
      <component glyphName="f" x="0" y="0" flags="0x0"/>
      <component glyphName="l" x="295" y="0" flags="0x0"/>
    </TTGlyph>
    <TTGlyph name="florin" xMin="34" yMin="-183" xMax="522" yMax="731">
      <contour>
        <pt x="90" y="-183" on="0"/>
        <pt x="47" y="-175" on="0"/>
        <pt x="34" y="-170" on="1"/>
        <pt x="49" y="-98" on="1"/>
        <pt x="101" y="-98" on="1"/>
        <pt x="146" y="-98" on="0"/>
        <pt x="157" y="-52" on="1"/>
        <pt x="253" y="395" on="1"/>
        <pt x="176" y="395" on="1"/>
        <pt x="194" y="480" on="1"/>
        <pt x="270" y="480" on="1"/>
        <pt x="297" y="603" on="1"/>
        <pt x="308" y="658" on="0"/>
        <pt x="380" y="731" on="0"/>
        <pt x="447" y="731" on="1"/>
        <pt x="467" y="731" on="0"/>
        <pt x="509" y="723" on="0"/>
        <pt x="522" y="718" on="1"/>
        <pt x="507" y="646" on="1"/>
        <pt x="456" y="646" on="1"/>
        <pt x="410" y="646" on="0"/>
        <pt x="399" y="600" on="1"/>
        <pt x="373" y="480" on="1"/>
        <pt x="472" y="480" on="1"/>
        <pt x="454" y="395" on="1"/>
        <pt x="356" y="395" on="1"/>
        <pt x="260" y="-55" on="1"/>
        <pt x="248" y="-110" on="0"/>
        <pt x="176" y="-183" on="0"/>
        <pt x="110" y="-183" on="1"/>
      </contour>
    </TTGlyph>
    <TTGlyph name="four" xMin="23" yMin="0" xMax="526" yMax="698">
      <contour>
        <pt x="335" y="162" on="1"/>
        <pt x="23" y="162" on="1"/>
        <pt x="23" y="248" on="1"/>
        <pt x="153" y="463" on="0"/>
        <pt x="207" y="698" on="1"/>
        <pt x="317" y="698" on="1"/>
        <pt x="298" y="614" on="0"/>
        <pt x="222" y="428" on="0"/>
        <pt x="143" y="278" on="0"/>
        <pt x="120" y="247" on="1"/>
        <pt x="335" y="247" on="1"/>
        <pt x="335" y="449" on="1"/>
        <pt x="367" y="524" on="0"/>
        <pt x="386" y="596" on="1"/>
        <pt x="438" y="596" on="1"/>
        <pt x="438" y="247" on="1"/>
        <pt x="526" y="247" on="1"/>
        <pt x="526" y="162" on="1"/>
        <pt x="438" y="162" on="1"/>
        <pt x="438" y="0" on="1"/>
        <pt x="335" y="0" on="1"/>
      </contour>
    </TTGlyph>
    <TTGlyph name="fraction" xMin="-228" yMin="-12" xMax="394" yMax="698">
      <contour>
        <pt x="318" y="698" on="1"/>
        <pt x="394" y="698" on="1"/>
        <pt x="-152" y="-12" on="1"/>
        <pt x="-228" y="-12" on="1"/>
      </contour>
    </TTGlyph>
    <TTGlyph name="franc" xMin="73" yMin="0" xMax="547" yMax="686">
      <contour>
        <pt x="73" y="686" on="1"/>
        <pt x="424" y="686" on="1"/>
        <pt x="424" y="596" on="1"/>
        <pt x="180" y="596" on="1"/>
        <pt x="180" y="383" on="1"/>
        <pt x="298" y="383" on="1"/>
        <pt x="298" y="464" on="1"/>
        <pt x="380" y="464" on="1"/>
        <pt x="390" y="383" on="1"/>
        <pt x="396" y="383" on="1"/>
        <pt x="428" y="476" on="0"/>
        <pt x="502" y="476" on="1"/>
        <pt x="519" y="476" on="0"/>
        <pt x="544" y="469" on="0"/>
        <pt x="547" y="468" on="1"/>
        <pt x="547" y="370" on="1"/>
        <pt x="510" y="370" on="1"/>
        <pt x="460" y="370" on="0"/>
        <pt x="401" y="302" on="0"/>
        <pt x="401" y="232" on="1"/>
        <pt x="401" y="0" on="1"/>
        <pt x="298" y="0" on="1"/>
        <pt x="298" y="295" on="1"/>
        <pt x="180" y="295" on="1"/>
        <pt x="180" y="0" on="1"/>
        <pt x="73" y="0" on="1"/>
      </contour>
    </TTGlyph>
    <TTGlyph name="g" xMin="20" yMin="-182" xMax="558" yMax="612">
      <contour>
        <pt x="103" y="-182" on="0"/>
        <pt x="20" y="-120" on="0"/>
        <pt x="20" y="-57" on="1"/>
        <pt x="20" y="21" on="0"/>
        <pt x="104" y="54" on="1"/>
        <pt x="80" y="67" on="0"/>
        <pt x="50" y="108" on="0"/>
        <pt x="50" y="134" on="1"/>
        <pt x="50" y="171" on="0"/>
        <pt x="104" y="214" on="0"/>
        <pt x="139" y="223" on="1"/>
        <pt x="105" y="247" on="0"/>
        <pt x="67" y="317" on="0"/>
        <pt x="67" y="360" on="1"/>
        <pt x="67" y="444" on="0"/>
        <pt x="183" y="538" on="0"/>
        <pt x="286" y="538" on="1"/>
        <pt x="341" y="538" on="0"/>
        <pt x="387" y="521" on="1"/>
        <pt x="450" y="554" on="0"/>
        <pt x="458" y="612" on="1"/>
        <pt x="557" y="612" on="1"/>
        <pt x="557" y="562" on="0"/>
        <pt x="501" y="494" on="0"/>
        <pt x="452" y="483" on="1"/>
        <pt x="506" y="435" on="0"/>
        <pt x="506" y="360" on="1"/>
        <pt x="506" y="277" on="0"/>
        <pt x="390" y="183" on="0"/>
        <pt x="288" y="183" on="1"/>
        <pt x="205" y="183" on="1"/>
        <pt x="181" y="183" on="0"/>
        <pt x="155" y="161" on="0"/>
        <pt x="155" y="144" on="1"/>
        <pt x="155" y="127" on="0"/>
        <pt x="180" y="105" on="0"/>
        <pt x="203" y="105" on="1"/>
        <pt x="423" y="105" on="1"/>
        <pt x="484" y="105" on="0"/>
        <pt x="558" y="29" on="0"/>
        <pt x="558" y="-27" on="1"/>
        <pt x="558" y="-68" on="0"/>
        <pt x="518" y="-139" on="0"/>
        <pt x="438" y="-182" on="0"/>
        <pt x="382" y="-182" on="1"/>
        <pt x="159" y="-182" on="1"/>
      </contour>
      <contour>
        <pt x="344" y="258" on="0"/>
        <pt x="404" y="311" on="0"/>
        <pt x="404" y="360" on="1"/>
        <pt x="404" y="409" on="0"/>
        <pt x="345" y="462" on="0"/>
        <pt x="286" y="462" on="1"/>
        <pt x="228" y="462" on="0"/>
        <pt x="169" y="409" on="0"/>
        <pt x="169" y="360" on="1"/>
        <pt x="169" y="311" on="0"/>
        <pt x="228" y="258" on="0"/>
        <pt x="286" y="258" on="1"/>
      </contour>
      <contour>
        <pt x="383" y="-104" on="1"/>
        <pt x="414" y="-104" on="0"/>
        <pt x="455" y="-70" on="0"/>
        <pt x="455" y="-43" on="1"/>
        <pt x="455" y="-16" on="0"/>
        <pt x="421" y="16" on="0"/>
        <pt x="394" y="16" on="1"/>
        <pt x="183" y="16" on="1"/>
        <pt x="156" y="16" on="0"/>
        <pt x="123" y="-16" on="0"/>
        <pt x="123" y="-43" on="1"/>
        <pt x="123" y="-71" on="0"/>
        <pt x="156" y="-104" on="0"/>
        <pt x="183" y="-104" on="1"/>
      </contour>
    </TTGlyph>
    <TTGlyph name="g_tilde.loclGUA" xMin="20" yMin="-182" xMax="558" yMax="723">
      <component glyphName=".ttfautohint" x="20" y="0" flags="0x0"/>
      <component glyphName="g" x="0" y="0" flags="0x0"/>
      <component glyphName="tilde" x="120" y="0" flags="0x0"/>
    </TTGlyph>
    <TTGlyph name="gbreve" xMin="20" yMin="-182" xMax="558" yMax="723">
      <component glyphName=".ttfautohint" x="20" y="0" flags="0x0"/>
      <component glyphName="g" x="0" y="0" flags="0x0"/>
      <component glyphName="breve" x="120" y="0" flags="0x0"/>
    </TTGlyph>
    <TTGlyph name="gcaron" xMin="20" yMin="-182" xMax="558" yMax="723">
      <component glyphName=".ttfautohint" x="20" y="0" flags="0x0"/>
      <component glyphName="g" x="0" y="0" flags="0x0"/>
      <component glyphName="caron" x="120" y="0" flags="0x0"/>
    </TTGlyph>
    <TTGlyph name="gcircumflex" xMin="20" yMin="-182" xMax="558" yMax="723">
      <contour>
        <pt x="239" y="723" on="1"/>
        <pt x="335" y="723" on="1"/>
        <pt x="439" y="588" on="1"/>
        <pt x="342" y="588" on="1"/>
        <pt x="287" y="664" on="1"/>
        <pt x="231" y="588" on="1"/>
        <pt x="135" y="588" on="1"/>
      </contour>
      <contour>
        <pt x="103" y="-182" on="0"/>
        <pt x="20" y="-120" on="0"/>
        <pt x="20" y="-57" on="1"/>
        <pt x="20" y="21" on="0"/>
        <pt x="104" y="54" on="1"/>
        <pt x="80" y="67" on="0"/>
        <pt x="50" y="108" on="0"/>
        <pt x="50" y="134" on="1"/>
        <pt x="50" y="171" on="0"/>
        <pt x="104" y="214" on="0"/>
        <pt x="139" y="223" on="1"/>
        <pt x="105" y="247" on="0"/>
        <pt x="67" y="317" on="0"/>
        <pt x="67" y="360" on="1"/>
        <pt x="67" y="444" on="0"/>
        <pt x="183" y="538" on="0"/>
        <pt x="286" y="538" on="1"/>
        <pt x="341" y="538" on="0"/>
        <pt x="387" y="521" on="1"/>
        <pt x="426" y="536" on="0"/>
        <pt x="463" y="586" on="0"/>
        <pt x="467" y="612" on="1"/>
        <pt x="557" y="612" on="1"/>
        <pt x="557" y="562" on="0"/>
        <pt x="501" y="494" on="0"/>
        <pt x="452" y="483" on="1"/>
        <pt x="506" y="435" on="0"/>
        <pt x="506" y="360" on="1"/>
        <pt x="506" y="277" on="0"/>
        <pt x="390" y="183" on="0"/>
        <pt x="288" y="183" on="1"/>
        <pt x="205" y="183" on="1"/>
        <pt x="181" y="183" on="0"/>
        <pt x="155" y="161" on="0"/>
        <pt x="155" y="144" on="1"/>
        <pt x="155" y="127" on="0"/>
        <pt x="180" y="105" on="0"/>
        <pt x="203" y="105" on="1"/>
        <pt x="423" y="105" on="1"/>
        <pt x="484" y="105" on="0"/>
        <pt x="558" y="29" on="0"/>
        <pt x="558" y="-27" on="1"/>
        <pt x="558" y="-68" on="0"/>
        <pt x="518" y="-139" on="0"/>
        <pt x="438" y="-182" on="0"/>
        <pt x="382" y="-182" on="1"/>
        <pt x="159" y="-182" on="1"/>
      </contour>
      <contour>
        <pt x="344" y="258" on="0"/>
        <pt x="404" y="311" on="0"/>
        <pt x="404" y="360" on="1"/>
        <pt x="404" y="409" on="0"/>
        <pt x="345" y="462" on="0"/>
        <pt x="286" y="462" on="1"/>
        <pt x="228" y="462" on="0"/>
        <pt x="169" y="409" on="0"/>
        <pt x="169" y="360" on="1"/>
        <pt x="169" y="311" on="0"/>
        <pt x="228" y="258" on="0"/>
        <pt x="286" y="258" on="1"/>
      </contour>
      <contour>
        <pt x="383" y="-104" on="1"/>
        <pt x="414" y="-104" on="0"/>
        <pt x="455" y="-70" on="0"/>
        <pt x="455" y="-43" on="1"/>
        <pt x="455" y="-16" on="0"/>
        <pt x="421" y="16" on="0"/>
        <pt x="394" y="16" on="1"/>
        <pt x="183" y="16" on="1"/>
        <pt x="156" y="16" on="0"/>
        <pt x="123" y="-16" on="0"/>
        <pt x="123" y="-43" on="1"/>
        <pt x="123" y="-71" on="0"/>
        <pt x="156" y="-104" on="0"/>
        <pt x="183" y="-104" on="1"/>
      </contour>
    </TTGlyph>
    <TTGlyph name="gcommaaccent" xMin="20" yMin="-182" xMax="558" yMax="780">
      <contour>
        <pt x="237" y="686" on="1"/>
        <pt x="287" y="780" on="1"/>
        <pt x="340" y="780" on="1"/>
        <pt x="298" y="694" on="1"/>
        <pt x="340" y="694" on="1"/>
        <pt x="340" y="601" on="1"/>
        <pt x="237" y="601" on="1"/>
      </contour>
      <contour>
        <pt x="103" y="-182" on="0"/>
        <pt x="20" y="-120" on="0"/>
        <pt x="20" y="-57" on="1"/>
        <pt x="20" y="21" on="0"/>
        <pt x="104" y="54" on="1"/>
        <pt x="80" y="67" on="0"/>
        <pt x="50" y="108" on="0"/>
        <pt x="50" y="134" on="1"/>
        <pt x="50" y="171" on="0"/>
        <pt x="104" y="214" on="0"/>
        <pt x="139" y="223" on="1"/>
        <pt x="105" y="247" on="0"/>
        <pt x="67" y="317" on="0"/>
        <pt x="67" y="360" on="1"/>
        <pt x="67" y="444" on="0"/>
        <pt x="183" y="538" on="0"/>
        <pt x="286" y="538" on="1"/>
        <pt x="341" y="538" on="0"/>
        <pt x="387" y="521" on="1"/>
        <pt x="450" y="554" on="0"/>
        <pt x="458" y="612" on="1"/>
        <pt x="557" y="612" on="1"/>
        <pt x="557" y="562" on="0"/>
        <pt x="501" y="494" on="0"/>
        <pt x="452" y="483" on="1"/>
        <pt x="506" y="435" on="0"/>
        <pt x="506" y="360" on="1"/>
        <pt x="506" y="277" on="0"/>
        <pt x="390" y="183" on="0"/>
        <pt x="288" y="183" on="1"/>
        <pt x="205" y="183" on="1"/>
        <pt x="181" y="183" on="0"/>
        <pt x="155" y="161" on="0"/>
        <pt x="155" y="144" on="1"/>
        <pt x="155" y="127" on="0"/>
        <pt x="180" y="105" on="0"/>
        <pt x="203" y="105" on="1"/>
        <pt x="423" y="105" on="1"/>
        <pt x="484" y="105" on="0"/>
        <pt x="558" y="29" on="0"/>
        <pt x="558" y="-27" on="1"/>
        <pt x="558" y="-68" on="0"/>
        <pt x="518" y="-139" on="0"/>
        <pt x="438" y="-182" on="0"/>
        <pt x="382" y="-182" on="1"/>
        <pt x="159" y="-182" on="1"/>
      </contour>
      <contour>
        <pt x="344" y="258" on="0"/>
        <pt x="404" y="311" on="0"/>
        <pt x="404" y="360" on="1"/>
        <pt x="404" y="409" on="0"/>
        <pt x="345" y="462" on="0"/>
        <pt x="286" y="462" on="1"/>
        <pt x="228" y="462" on="0"/>
        <pt x="169" y="409" on="0"/>
        <pt x="169" y="360" on="1"/>
        <pt x="169" y="311" on="0"/>
        <pt x="228" y="258" on="0"/>
        <pt x="286" y="258" on="1"/>
      </contour>
      <contour>
        <pt x="383" y="-104" on="1"/>
        <pt x="414" y="-104" on="0"/>
        <pt x="455" y="-70" on="0"/>
        <pt x="455" y="-43" on="1"/>
        <pt x="455" y="-16" on="0"/>
        <pt x="421" y="16" on="0"/>
        <pt x="394" y="16" on="1"/>
        <pt x="183" y="16" on="1"/>
        <pt x="156" y="16" on="0"/>
        <pt x="123" y="-16" on="0"/>
        <pt x="123" y="-43" on="1"/>
        <pt x="123" y="-71" on="0"/>
        <pt x="156" y="-104" on="0"/>
        <pt x="183" y="-104" on="1"/>
      </contour>
    </TTGlyph>
    <TTGlyph name="gdotaccent" xMin="20" yMin="-182" xMax="558" yMax="723">
      <component glyphName=".ttfautohint" x="20" y="0" flags="0x0"/>
      <component glyphName="g" x="0" y="0" flags="0x0"/>
      <component glyphName="dotaccent" x="120" y="0" flags="0x0"/>
    </TTGlyph>
    <TTGlyph name="germandbls" xMin="64" yMin="0" xMax="578" yMax="735">
      <contour>
        <pt x="64" y="514" on="1"/>
        <pt x="64" y="626" on="0"/>
        <pt x="204" y="735" on="0"/>
        <pt x="314" y="735" on="1"/>
        <pt x="387" y="735" on="0"/>
        <pt x="495" y="689" on="0"/>
        <pt x="553" y="608" on="0"/>
        <pt x="553" y="555" on="1"/>
        <pt x="553" y="498" on="0"/>
        <pt x="489" y="413" on="0"/>
        <pt x="436" y="395" on="1"/>
        <pt x="436" y="391" on="1"/>
        <pt x="501" y="372" on="0"/>
        <pt x="578" y="274" on="0"/>
        <pt x="578" y="206" on="1"/>
        <pt x="578" y="148" on="0"/>
        <pt x="521" y="54" on="0"/>
        <pt x="420" y="0" on="0"/>
        <pt x="357" y="0" on="1"/>
        <pt x="244" y="0" on="1"/>
        <pt x="244" y="85" on="1"/>
        <pt x="346" y="85" on="1"/>
        <pt x="401" y="85" on="0"/>
        <pt x="473" y="161" on="0"/>
        <pt x="473" y="214" on="1"/>
        <pt x="473" y="268" on="0"/>
        <pt x="397" y="341" on="0"/>
        <pt x="339" y="341" on="1"/>
        <pt x="244" y="341" on="1"/>
        <pt x="244" y="429" on="1"/>
        <pt x="331" y="429" on="1"/>
        <pt x="380" y="429" on="0"/>
        <pt x="448" y="495" on="0"/>
        <pt x="448" y="543" on="1"/>
        <pt x="448" y="591" on="0"/>
        <pt x="377" y="651" on="0"/>
        <pt x="312" y="651" on="1"/>
        <pt x="244" y="651" on="0"/>
        <pt x="168" y="582" on="0"/>
        <pt x="168" y="518" on="1"/>
        <pt x="168" y="0" on="1"/>
        <pt x="64" y="0" on="1"/>
      </contour>
    </TTGlyph>
    <TTGlyph name="grave" xMin="75" yMin="591" xMax="267" yMax="723">
      <contour>
        <pt x="75" y="720" on="1"/>
        <pt x="76" y="723" on="1"/>
        <pt x="183" y="723" on="1"/>
        <pt x="267" y="591" on="1"/>
        <pt x="183" y="591" on="1"/>
      </contour>
    </TTGlyph>
    <TTGlyph name="greater" xMin="55" yMin="3" xMax="529" yMax="510">
      <contour>
        <pt x="55" y="102" on="1"/>
        <pt x="442" y="256" on="1"/>
        <pt x="55" y="411" on="1"/>
        <pt x="55" y="510" on="1"/>
        <pt x="529" y="313" on="1"/>
        <pt x="529" y="199" on="1"/>
        <pt x="55" y="3" on="1"/>
      </contour>
    </TTGlyph>
    <TTGlyph name="greaterequal" xMin="38" yMin="0" xMax="511" yMax="630">
      <contour>
        <pt x="38" y="222" on="1"/>
        <pt x="424" y="377" on="1"/>
        <pt x="38" y="531" on="1"/>
        <pt x="38" y="630" on="1"/>
        <pt x="511" y="433" on="1"/>
        <pt x="511" y="320" on="1"/>
        <pt x="38" y="124" on="1"/>
      </contour>
      <contour>
        <pt x="38" y="89" on="1"/>
        <pt x="511" y="89" on="1"/>
        <pt x="511" y="0" on="1"/>
        <pt x="38" y="0" on="1"/>
      </contour>
    </TTGlyph>
    <TTGlyph name="guillemotleft" xMin="62" yMin="126" xMax="496" yMax="526">
      <contour>
        <pt x="62" y="326" on="1"/>
        <pt x="213" y="526" on="1"/>
        <pt x="293" y="526" on="1"/>
        <pt x="170" y="326" on="1"/>
        <pt x="293" y="126" on="1"/>
        <pt x="213" y="126" on="1"/>
      </contour>
      <contour>
        <pt x="266" y="326" on="1"/>
        <pt x="417" y="526" on="1"/>
        <pt x="496" y="526" on="1"/>
        <pt x="374" y="326" on="1"/>
        <pt x="496" y="126" on="1"/>
        <pt x="417" y="126" on="1"/>
      </contour>
    </TTGlyph>
    <TTGlyph name="guillemotright" xMin="56" yMin="126" xMax="490" yMax="526">
      <contour>
        <pt x="179" y="326" on="1"/>
        <pt x="56" y="526" on="1"/>
        <pt x="136" y="526" on="1"/>
        <pt x="286" y="326" on="1"/>
        <pt x="136" y="126" on="1"/>
        <pt x="56" y="126" on="1"/>
      </contour>
      <contour>
        <pt x="382" y="326" on="1"/>
        <pt x="260" y="526" on="1"/>
        <pt x="339" y="526" on="1"/>
        <pt x="490" y="326" on="1"/>
        <pt x="339" y="126" on="1"/>
        <pt x="260" y="126" on="1"/>
      </contour>
    </TTGlyph>
    <TTGlyph name="guilsinglleft" xMin="56" yMin="126" xMax="286" yMax="526">
      <contour>
        <pt x="56" y="326" on="1"/>
        <pt x="207" y="526" on="1"/>
        <pt x="286" y="526" on="1"/>
        <pt x="164" y="326" on="1"/>
        <pt x="286" y="126" on="1"/>
        <pt x="207" y="126" on="1"/>
      </contour>
    </TTGlyph>
    <TTGlyph name="guilsinglright" xMin="47" yMin="126" xMax="277" yMax="526">
      <contour>
        <pt x="169" y="326" on="1"/>
        <pt x="47" y="526" on="1"/>
        <pt x="126" y="526" on="1"/>
        <pt x="277" y="326" on="1"/>
        <pt x="126" y="126" on="1"/>
        <pt x="47" y="126" on="1"/>
      </contour>
    </TTGlyph>
    <TTGlyph name="h" xMin="68" yMin="0" xMax="508" yMax="723">
      <contour>
        <pt x="68" y="723" on="1"/>
        <pt x="171" y="723" on="1"/>
        <pt x="171" y="466" on="1"/>
        <pt x="178" y="466" on="1"/>
        <pt x="234" y="538" on="0"/>
        <pt x="341" y="538" on="1"/>
        <pt x="508" y="538" on="0"/>
        <pt x="508" y="357" on="1"/>
        <pt x="508" y="0" on="1"/>
        <pt x="405" y="0" on="1"/>
        <pt x="405" y="344" on="1"/>
        <pt x="405" y="403" on="0"/>
        <pt x="352" y="450" on="0"/>
        <pt x="301" y="450" on="1"/>
        <pt x="266" y="450" on="0"/>
        <pt x="206" y="415" on="0"/>
        <pt x="171" y="351" on="0"/>
        <pt x="171" y="309" on="1"/>
        <pt x="171" y="0" on="1"/>
        <pt x="68" y="0" on="1"/>
      </contour>
    </TTGlyph>
    <TTGlyph name="hbar" xMin="5" yMin="0" xMax="508" yMax="723">
      <contour>
        <pt x="68" y="593" on="1"/>
        <pt x="5" y="593" on="1"/>
        <pt x="5" y="658" on="1"/>
        <pt x="68" y="658" on="1"/>
        <pt x="68" y="723" on="1"/>
        <pt x="171" y="723" on="1"/>
        <pt x="171" y="658" on="1"/>
        <pt x="316" y="658" on="1"/>
        <pt x="316" y="593" on="1"/>
        <pt x="171" y="593" on="1"/>
        <pt x="171" y="466" on="1"/>
        <pt x="178" y="466" on="1"/>
        <pt x="234" y="538" on="0"/>
        <pt x="341" y="538" on="1"/>
        <pt x="508" y="538" on="0"/>
        <pt x="508" y="357" on="1"/>
        <pt x="508" y="0" on="1"/>
        <pt x="405" y="0" on="1"/>
        <pt x="405" y="344" on="1"/>
        <pt x="405" y="403" on="0"/>
        <pt x="352" y="450" on="0"/>
        <pt x="301" y="450" on="1"/>
        <pt x="266" y="450" on="0"/>
        <pt x="206" y="415" on="0"/>
        <pt x="171" y="351" on="0"/>
        <pt x="171" y="309" on="1"/>
        <pt x="171" y="0" on="1"/>
        <pt x="68" y="0" on="1"/>
      </contour>
    </TTGlyph>
    <TTGlyph name="hcircumflex" xMin="-34" yMin="0" xMax="508" yMax="883">
      <component glyphName=".ttfautohint" x="0" y="0" flags="0x0"/>
      <component glyphName="h" x="0" y="0" flags="0x0"/>
      <component glyphName="circumflex" x="-47" y="160" flags="0x4"/>
    </TTGlyph>
    <TTGlyph name="hookabovecomb" xMin="-254" yMin="591" xMax="-79" yMax="735">
      <contour>
        <pt x="-205" y="650" on="1"/>
        <pt x="-192" y="650" on="1"/>
        <pt x="-176" y="650" on="0"/>
        <pt x="-162" y="659" on="0"/>
        <pt x="-162" y="668" on="1"/>
        <pt x="-162" y="678" on="0"/>
        <pt x="-178" y="686" on="0"/>
        <pt x="-194" y="686" on="1"/>
        <pt x="-254" y="686" on="1"/>
        <pt x="-254" y="727" on="1"/>
        <pt x="-219" y="735" on="0"/>
        <pt x="-178" y="735" on="1"/>
        <pt x="-139" y="735" on="0"/>
        <pt x="-79" y="708" on="0"/>
        <pt x="-79" y="675" on="1"/>
        <pt x="-79" y="649" on="0"/>
        <pt x="-117" y="620" on="0"/>
        <pt x="-146" y="618" on="1"/>
        <pt x="-146" y="591" on="1"/>
        <pt x="-205" y="591" on="1"/>
      </contour>
    </TTGlyph>
    <TTGlyph name="house" xMin="77" yMin="0" xMax="527" yMax="563">
      <contour>
        <pt x="77" y="310" on="1"/>
        <pt x="302" y="563" on="1"/>
        <pt x="527" y="310" on="1"/>
        <pt x="527" y="0" on="1"/>
        <pt x="77" y="0" on="1"/>
      </contour>
      <contour>
        <pt x="479" y="49" on="1"/>
        <pt x="479" y="290" on="1"/>
        <pt x="302" y="489" on="1"/>
        <pt x="125" y="290" on="1"/>
        <pt x="125" y="49" on="1"/>
      </contour>
    </TTGlyph>
    <TTGlyph name="hungarumlaut" xMin="21" yMin="591" xMax="347" yMax="723">
      <contour>
        <pt x="88" y="723" on="1"/>
        <pt x="196" y="723" on="1"/>
        <pt x="197" y="720" on="1"/>
        <pt x="106" y="591" on="1"/>
        <pt x="21" y="591" on="1"/>
      </contour>
      <contour>
        <pt x="238" y="723" on="1"/>
        <pt x="346" y="723" on="1"/>
        <pt x="347" y="720" on="1"/>
        <pt x="256" y="591" on="1"/>
        <pt x="171" y="591" on="1"/>
      </contour>
    </TTGlyph>
    <TTGlyph name="hyphen" xMin="36" yMin="218" xMax="297" yMax="322">
      <contour>
        <pt x="36" y="322" on="1"/>
        <pt x="297" y="322" on="1"/>
        <pt x="297" y="218" on="1"/>
        <pt x="36" y="218" on="1"/>
      </contour>
    </TTGlyph>
    <TTGlyph name="i" xMin="68" yMin="0" xMax="171" yMax="723">
      <contour>
        <pt x="68" y="723" on="1"/>
        <pt x="171" y="723" on="1"/>
        <pt x="171" y="617" on="1"/>
        <pt x="68" y="617" on="1"/>
      </contour>
      <contour>
        <pt x="68" y="526" on="1"/>
        <pt x="171" y="526" on="1"/>
        <pt x="171" y="0" on="1"/>
        <pt x="68" y="0" on="1"/>
      </contour>
    </TTGlyph>
    <TTGlyph name="i.loclTRK" xMin="88" yMin="0" xMax="191" yMax="723">
      <component glyphName=".ttfautohint" x="88" y="0" flags="0x0"/>
      <component glyphName="dotlessi" x="0" y="0" flags="0x0"/>
      <component glyphName="dotaccent" x="-28" y="0" flags="0x0"/>
    </TTGlyph>
    <TTGlyph name="iacute" xMin="81" yMin="0" xMax="273" yMax="723">
      <contour>
        <pt x="165" y="723" on="1"/>
        <pt x="272" y="723" on="1"/>
        <pt x="273" y="720" on="1"/>
        <pt x="165" y="591" on="1"/>
        <pt x="81" y="591" on="1"/>
      </contour>
      <contour>
        <pt x="88" y="526" on="1"/>
        <pt x="191" y="526" on="1"/>
        <pt x="191" y="0" on="1"/>
        <pt x="88" y="0" on="1"/>
      </contour>
    </TTGlyph>
    <TTGlyph name="iacute_j.loclNLD" xMin="81" yMin="-182" xMax="547" yMax="723">
      <component glyphName=".ttfautohint" x="81" y="0" flags="0x0"/>
      <component glyphName="iacute" x="0" y="0" flags="0x0"/>
      <component glyphName="uni0237" x="278" y="0" flags="0x0"/>
      <component glyphName="acute" x="280" y="0" flags="0x0"/>
    </TTGlyph>
    <TTGlyph name="ibreve" xMin="-10" yMin="0" xMax="291" yMax="723">
      <contour>
        <pt x="62" y="600" on="0"/>
        <pt x="-10" y="672" on="0"/>
        <pt x="-10" y="723" on="1"/>
        <pt x="60" y="723" on="1"/>
        <pt x="64" y="703" on="0"/>
        <pt x="100" y="672" on="0"/>
        <pt x="140" y="672" on="1"/>
        <pt x="179" y="672" on="0"/>
        <pt x="218" y="703" on="0"/>
        <pt x="221" y="723" on="1"/>
        <pt x="291" y="723" on="1"/>
        <pt x="291" y="673" on="0"/>
        <pt x="218" y="600" on="0"/>
        <pt x="140" y="600" on="1"/>
      </contour>
      <contour>
        <pt x="88" y="526" on="1"/>
        <pt x="191" y="526" on="1"/>
        <pt x="191" y="0" on="1"/>
        <pt x="88" y="0" on="1"/>
      </contour>
    </TTGlyph>
    <TTGlyph name="icircumflex" xMin="-14" yMin="0" xMax="293" yMax="723">
      <contour>
        <pt x="92" y="723" on="1"/>
        <pt x="188" y="723" on="1"/>
        <pt x="293" y="588" on="1"/>
        <pt x="196" y="588" on="1"/>
        <pt x="140" y="664" on="1"/>
        <pt x="83" y="588" on="1"/>
        <pt x="-14" y="588" on="1"/>
      </contour>
      <contour>
        <pt x="88" y="526" on="1"/>
        <pt x="191" y="526" on="1"/>
        <pt x="191" y="0" on="1"/>
        <pt x="88" y="0" on="1"/>
      </contour>
    </TTGlyph>
    <TTGlyph name="idieresis" xMin="-6" yMin="0" xMax="285" yMax="723">
      <contour>
        <pt x="-6" y="723" on="1"/>
        <pt x="90" y="723" on="1"/>
        <pt x="90" y="621" on="1"/>
        <pt x="-6" y="621" on="1"/>
      </contour>
      <contour>
        <pt x="188" y="723" on="1"/>
        <pt x="285" y="723" on="1"/>
        <pt x="285" y="621" on="1"/>
        <pt x="188" y="621" on="1"/>
      </contour>
      <contour>
        <pt x="88" y="526" on="1"/>
        <pt x="191" y="526" on="1"/>
        <pt x="191" y="0" on="1"/>
        <pt x="88" y="0" on="1"/>
      </contour>
    </TTGlyph>
    <TTGlyph name="igrave" xMin="6" yMin="0" xMax="198" yMax="723">
      <contour>
        <pt x="6" y="720" on="1"/>
        <pt x="7" y="723" on="1"/>
        <pt x="114" y="723" on="1"/>
        <pt x="198" y="591" on="1"/>
        <pt x="114" y="591" on="1"/>
      </contour>
      <contour>
        <pt x="88" y="526" on="1"/>
        <pt x="191" y="526" on="1"/>
        <pt x="191" y="0" on="1"/>
        <pt x="88" y="0" on="1"/>
      </contour>
    </TTGlyph>
    <TTGlyph name="ij" xMin="68" yMin="-182" xMax="410" yMax="723">
      <component glyphName=".ttfautohint" x="68" y="0" flags="0x0"/>
      <component glyphName="i" x="0" y="0" flags="0x0"/>
      <component glyphName="j" x="239" y="0" flags="0x0"/>
    </TTGlyph>
    <TTGlyph name="imacron" xMin="4" yMin="0" xMax="274" yMax="716">
      <contour>
        <pt x="4" y="716" on="1"/>
        <pt x="274" y="716" on="1"/>
        <pt x="274" y="639" on="1"/>
        <pt x="4" y="639" on="1"/>
      </contour>
      <contour>
        <pt x="88" y="526" on="1"/>
        <pt x="191" y="526" on="1"/>
        <pt x="191" y="0" on="1"/>
        <pt x="88" y="0" on="1"/>
      </contour>
    </TTGlyph>
    <TTGlyph name="infinity" xMin="47" yMin="141" xMax="665" yMax="454">
      <contour>
        <pt x="129" y="141" on="0"/>
        <pt x="47" y="229" on="0"/>
        <pt x="47" y="297" on="1"/>
        <pt x="47" y="365" on="0"/>
        <pt x="131" y="454" on="0"/>
        <pt x="198" y="454" on="1"/>
        <pt x="245" y="454" on="0"/>
        <pt x="322" y="404" on="0"/>
        <pt x="358" y="359" on="1"/>
        <pt x="394" y="403" on="0"/>
        <pt x="467" y="454" on="0"/>
        <pt x="515" y="454" on="1"/>
        <pt x="581" y="454" on="0"/>
        <pt x="665" y="366" on="0"/>
        <pt x="665" y="299" on="1"/>
        <pt x="665" y="230" on="0"/>
        <pt x="582" y="141" on="0"/>
        <pt x="516" y="141" on="1"/>
        <pt x="428" y="141" on="0"/>
        <pt x="355" y="236" on="1"/>
        <pt x="318" y="191" on="0"/>
        <pt x="243" y="141" on="0"/>
        <pt x="195" y="141" on="1"/>
      </contour>
      <contour>
        <pt x="229" y="216" on="0"/>
        <pt x="281" y="258" on="0"/>
        <pt x="309" y="296" on="1"/>
        <pt x="278" y="337" on="0"/>
        <pt x="229" y="376" on="0"/>
        <pt x="198" y="376" on="1"/>
        <pt x="169" y="376" on="0"/>
        <pt x="127" y="330" on="0"/>
        <pt x="127" y="296" on="1"/>
        <pt x="127" y="263" on="0"/>
        <pt x="169" y="216" on="0"/>
        <pt x="199" y="216" on="1"/>
      </contour>
      <contour>
        <pt x="544" y="216" on="0"/>
        <pt x="585" y="264" on="0"/>
        <pt x="585" y="295" on="1"/>
        <pt x="585" y="329" on="0"/>
        <pt x="543" y="376" on="0"/>
        <pt x="513" y="376" on="1"/>
        <pt x="484" y="376" on="0"/>
        <pt x="435" y="338" on="0"/>
        <pt x="402" y="297" on="1"/>
        <pt x="434" y="255" on="0"/>
        <pt x="486" y="216" on="0"/>
        <pt x="515" y="216" on="1"/>
      </contour>
    </TTGlyph>
    <TTGlyph name="integral" xMin="30" yMin="-141" xMax="252" yMax="859">
      <contour>
        <pt x="30" y="-85" on="1"/>
        <pt x="112" y="-85" on="0"/>
        <pt x="112" y="-27" on="1"/>
        <pt x="108" y="72" on="0"/>
        <pt x="85" y="651" on="0"/>
        <pt x="85" y="747" on="1"/>
        <pt x="85" y="812" on="0"/>
        <pt x="173" y="859" on="0"/>
        <pt x="252" y="859" on="1"/>
        <pt x="252" y="804" on="1"/>
        <pt x="168" y="804" on="0"/>
        <pt x="168" y="747" on="1"/>
        <pt x="173" y="647" on="0"/>
        <pt x="196" y="66" on="0"/>
        <pt x="196" y="-29" on="1"/>
        <pt x="196" y="-94" on="0"/>
        <pt x="109" y="-141" on="0"/>
        <pt x="30" y="-141" on="1"/>
      </contour>
    </TTGlyph>
    <TTGlyph name="integralbt" xMin="184" yMin="-250" xMax="351" yMax="859">
      <contour>
        <pt x="184" y="-195" on="1"/>
        <pt x="268" y="-195" on="0"/>
        <pt x="268" y="-138" on="1"/>
        <pt x="251" y="859" on="1"/>
        <pt x="337" y="859" on="1"/>
        <pt x="351" y="-21" on="0"/>
        <pt x="351" y="-138" on="1"/>
        <pt x="351" y="-203" on="0"/>
        <pt x="263" y="-250" on="0"/>
        <pt x="184" y="-250" on="1"/>
      </contour>
    </TTGlyph>
    <TTGlyph name="integraltp" xMin="253" yMin="-250" xMax="420" yMax="859">
      <contour>
        <pt x="253" y="630" on="0"/>
        <pt x="253" y="747" on="1"/>
        <pt x="253" y="812" on="0"/>
        <pt x="341" y="859" on="0"/>
        <pt x="420" y="859" on="1"/>
        <pt x="420" y="804" on="1"/>
        <pt x="336" y="804" on="0"/>
        <pt x="336" y="747" on="1"/>
        <pt x="353" y="-250" on="1"/>
        <pt x="267" y="-250" on="1"/>
      </contour>
    </TTGlyph>
    <TTGlyph name="intersection" xMin="94" yMin="0" xMax="625" yMax="676">
      <contour>
        <pt x="94" y="410" on="1"/>
        <pt x="94" y="483" on="0"/>
        <pt x="165" y="605" on="0"/>
        <pt x="287" y="676" on="0"/>
        <pt x="359" y="676" on="1"/>
        <pt x="431" y="676" on="0"/>
        <pt x="554" y="605" on="0"/>
        <pt x="625" y="483" on="0"/>
        <pt x="625" y="410" on="1"/>
        <pt x="625" y="0" on="1"/>
        <pt x="546" y="0" on="1"/>
        <pt x="546" y="411" on="1"/>
        <pt x="546" y="463" on="0"/>
        <pt x="496" y="549" on="0"/>
        <pt x="411" y="599" on="0"/>
        <pt x="360" y="599" on="1"/>
        <pt x="309" y="599" on="0"/>
        <pt x="223" y="549" on="0"/>
        <pt x="173" y="463" on="0"/>
        <pt x="173" y="411" on="1"/>
        <pt x="173" y="0" on="1"/>
        <pt x="94" y="0" on="1"/>
      </contour>
    </TTGlyph>
    <TTGlyph name="iogonek" xMin="33" yMin="-190" xMax="200" yMax="723">
      <contour>
        <pt x="190" y="618" on="1"/>
        <pt x="88" y="618" on="1"/>
        <pt x="88" y="723" on="1"/>
        <pt x="190" y="723" on="1"/>
      </contour>
      <contour>
        <pt x="200" y="-124" on="1"/>
        <pt x="200" y="-176" on="1"/>
        <pt x="166" y="-190" on="0"/>
        <pt x="136" y="-190" on="1"/>
        <pt x="94" y="-190" on="0"/>
        <pt x="33" y="-148" on="0"/>
        <pt x="33" y="-101" on="1"/>
        <pt x="33" y="-67" on="0"/>
        <pt x="61" y="-20" on="0"/>
        <pt x="87" y="4" on="1"/>
        <pt x="88" y="4" on="1"/>
        <pt x="88" y="526" on="1"/>
        <pt x="191" y="526" on="1"/>
        <pt x="191" y="0" on="1"/>
        <pt x="155" y="0" on="1"/>
        <pt x="141" y="-14" on="0"/>
        <pt x="119" y="-51" on="0"/>
        <pt x="119" y="-70" on="1"/>
        <pt x="119" y="-93" on="0"/>
        <pt x="144" y="-124" on="0"/>
        <pt x="170" y="-124" on="1"/>
      </contour>
    </TTGlyph>
    <TTGlyph name="itilde" xMin="-26" yMin="0" xMax="304" yMax="723">
      <contour>
        <pt x="-26" y="661" on="0"/>
        <pt x="18" y="723" on="0"/>
        <pt x="63" y="723" on="1"/>
        <pt x="81" y="723" on="0"/>
        <pt x="112" y="715" on="0"/>
        <pt x="139" y="706" on="1"/>
        <pt x="163" y="698" on="0"/>
        <pt x="192" y="690" on="0"/>
        <pt x="208" y="690" on="1"/>
        <pt x="234" y="690" on="0"/>
        <pt x="238" y="723" on="1"/>
        <pt x="304" y="723" on="1"/>
        <pt x="304" y="675" on="0"/>
        <pt x="260" y="613" on="0"/>
        <pt x="215" y="613" on="1"/>
        <pt x="197" y="613" on="0"/>
        <pt x="166" y="621" on="0"/>
        <pt x="139" y="630" on="1"/>
        <pt x="117" y="638" on="0"/>
        <pt x="87" y="646" on="0"/>
        <pt x="71" y="646" on="1"/>
        <pt x="45" y="646" on="0"/>
        <pt x="41" y="613" on="1"/>
        <pt x="-26" y="613" on="1"/>
      </contour>
      <contour>
        <pt x="88" y="526" on="1"/>
        <pt x="191" y="526" on="1"/>
        <pt x="191" y="0" on="1"/>
        <pt x="88" y="0" on="1"/>
      </contour>
    </TTGlyph>
    <TTGlyph name="j" xMin="-24" yMin="-182" xMax="171" yMax="723">
      <contour>
        <pt x="68" y="723" on="1"/>
        <pt x="171" y="723" on="1"/>
        <pt x="171" y="617" on="1"/>
        <pt x="68" y="617" on="1"/>
      </contour>
      <contour>
        <pt x="17" y="-182" on="0"/>
        <pt x="-24" y="-169" on="1"/>
        <pt x="-24" y="-100" on="1"/>
        <pt x="22" y="-100" on="1"/>
        <pt x="68" y="-100" on="0"/>
        <pt x="68" y="-53" on="1"/>
        <pt x="68" y="526" on="1"/>
        <pt x="171" y="526" on="1"/>
        <pt x="171" y="-55" on="1"/>
        <pt x="171" y="-109" on="0"/>
        <pt x="116" y="-182" on="0"/>
        <pt x="53" y="-182" on="1"/>
      </contour>
    </TTGlyph>
    <TTGlyph name="jcircumflex" xMin="-33" yMin="-182" xMax="273" yMax="723">
      <contour>
        <pt x="73" y="723" on="1"/>
        <pt x="168" y="723" on="1"/>
        <pt x="273" y="588" on="1"/>
        <pt x="177" y="588" on="1"/>
        <pt x="121" y="664" on="1"/>
        <pt x="63" y="588" on="1"/>
        <pt x="-33" y="588" on="1"/>
      </contour>
      <contour>
        <pt x="17" y="-182" on="0"/>
        <pt x="-24" y="-169" on="1"/>
        <pt x="-24" y="-100" on="1"/>
        <pt x="22" y="-100" on="1"/>
        <pt x="68" y="-100" on="0"/>
        <pt x="68" y="-53" on="1"/>
        <pt x="68" y="526" on="1"/>
        <pt x="171" y="526" on="1"/>
        <pt x="171" y="-55" on="1"/>
        <pt x="171" y="-109" on="0"/>
        <pt x="116" y="-182" on="0"/>
        <pt x="53" y="-182" on="1"/>
      </contour>
    </TTGlyph>
    <TTGlyph name="k" xMin="68" yMin="0" xMax="513" yMax="723">
      <contour>
        <pt x="68" y="723" on="1"/>
        <pt x="171" y="723" on="1"/>
        <pt x="171" y="283" on="1"/>
        <pt x="379" y="526" on="1"/>
        <pt x="503" y="526" on="1"/>
        <pt x="324" y="321" on="1"/>
        <pt x="513" y="0" on="1"/>
        <pt x="394" y="0" on="1"/>
        <pt x="259" y="246" on="1"/>
        <pt x="171" y="162" on="1"/>
        <pt x="171" y="0" on="1"/>
        <pt x="68" y="0" on="1"/>
      </contour>
    </TTGlyph>
    <TTGlyph name="kcommaaccent" xMin="68" yMin="-230" xMax="513" yMax="723">
      <component glyphName=".ttfautohint" x="68" y="0" flags="0x0"/>
      <component glyphName="k" x="0" y="0" flags="0x0"/>
      <component glyphName="uni0326" x="411" y="0" flags="0x0"/>
    </TTGlyph>
    <TTGlyph name="kgreenlandic" xMin="68" yMin="0" xMax="513" yMax="526">
      <contour>
        <pt x="68" y="526" on="1"/>
        <pt x="171" y="526" on="1"/>
        <pt x="171" y="283" on="1"/>
        <pt x="379" y="526" on="1"/>
        <pt x="503" y="526" on="1"/>
        <pt x="324" y="321" on="1"/>
        <pt x="513" y="0" on="1"/>
        <pt x="394" y="0" on="1"/>
        <pt x="259" y="246" on="1"/>
        <pt x="171" y="162" on="1"/>
        <pt x="171" y="0" on="1"/>
        <pt x="68" y="0" on="1"/>
      </contour>
    </TTGlyph>
    <TTGlyph name="l" xMin="68" yMin="0" xMax="171" yMax="723">
      <contour>
        <pt x="68" y="723" on="1"/>
        <pt x="171" y="723" on="1"/>
        <pt x="171" y="0" on="1"/>
        <pt x="68" y="0" on="1"/>
      </contour>
    </TTGlyph>
    <TTGlyph name="lacute" xMin="68" yMin="0" xMax="269" yMax="883">
      <component glyphName=".ttfautohint" x="68" y="0" flags="0x0"/>
      <component glyphName="l" x="0" y="0" flags="0x0"/>
      <component glyphName="acute" x="2" y="160" flags="0x4"/>
    </TTGlyph>
    <TTGlyph name="lcaron" xMin="68" yMin="0" xMax="325" yMax="723">
      <contour>
        <pt x="68" y="723" on="1"/>
        <pt x="171" y="723" on="1"/>
        <pt x="171" y="0" on="1"/>
        <pt x="68" y="0" on="1"/>
      </contour>
      <contour>
        <pt x="264" y="584" on="1"/>
        <pt x="224" y="584" on="1"/>
        <pt x="224" y="686" on="1"/>
        <pt x="325" y="686" on="1"/>
        <pt x="325" y="593" on="1"/>
        <pt x="276" y="475" on="1"/>
        <pt x="224" y="475" on="1"/>
      </contour>
    </TTGlyph>
    <TTGlyph name="lcommaaccent" xMin="68" yMin="-230" xMax="171" yMax="723">
      <component glyphName=".ttfautohint" x="68" y="0" flags="0x0"/>
      <component glyphName="l" x="0" y="0" flags="0x0"/>
      <component glyphName="uni0326" x="248" y="0" flags="0x0"/>
    </TTGlyph>
    <TTGlyph name="ldot" xMin="68" yMin="0" xMax="334" yMax="723">
      <component glyphName=".ttfautohint" x="68" y="0" flags="0x0"/>
      <component glyphName="l" x="0" y="0" flags="0x0"/>
      <component glyphName="periodcentered" x="112" y="0" flags="0x0"/>
    </TTGlyph>
    <TTGlyph name="less" xMin="55" yMin="3" xMax="529" yMax="510">
      <contour>
        <pt x="55" y="199" on="1"/>
        <pt x="55" y="313" on="1"/>
        <pt x="529" y="510" on="1"/>
        <pt x="529" y="411" on="1"/>
        <pt x="142" y="256" on="1"/>
        <pt x="529" y="102" on="1"/>
        <pt x="529" y="3" on="1"/>
      </contour>
    </TTGlyph>
    <TTGlyph name="lessequal" xMin="38" yMin="0" xMax="511" yMax="630">
      <contour>
        <pt x="38" y="320" on="1"/>
        <pt x="38" y="433" on="1"/>
        <pt x="511" y="630" on="1"/>
        <pt x="511" y="531" on="1"/>
        <pt x="125" y="377" on="1"/>
        <pt x="511" y="222" on="1"/>
        <pt x="511" y="124" on="1"/>
      </contour>
      <contour>
        <pt x="38" y="89" on="1"/>
        <pt x="511" y="89" on="1"/>
        <pt x="511" y="0" on="1"/>
        <pt x="38" y="0" on="1"/>
      </contour>
    </TTGlyph>
    <TTGlyph name="lira" xMin="18" yMin="0" xMax="515" yMax="698">
      <contour>
        <pt x="32" y="89" on="1"/>
        <pt x="103" y="89" on="1"/>
        <pt x="103" y="200" on="1"/>
        <pt x="18" y="200" on="1"/>
        <pt x="18" y="278" on="1"/>
        <pt x="103" y="278" on="1"/>
        <pt x="103" y="347" on="1"/>
        <pt x="18" y="347" on="1"/>
        <pt x="18" y="425" on="1"/>
        <pt x="103" y="425" on="1"/>
        <pt x="103" y="499" on="1"/>
        <pt x="103" y="597" on="0"/>
        <pt x="211" y="698" on="0"/>
        <pt x="309" y="698" on="1"/>
        <pt x="515" y="698" on="0"/>
        <pt x="515" y="504" on="1"/>
        <pt x="515" y="491" on="1"/>
        <pt x="412" y="491" on="1"/>
        <pt x="412" y="507" on="1"/>
        <pt x="412" y="560" on="0"/>
        <pt x="359" y="613" on="0"/>
        <pt x="309" y="613" on="1"/>
        <pt x="207" y="613" on="0"/>
        <pt x="207" y="514" on="1"/>
        <pt x="207" y="425" on="1"/>
        <pt x="369" y="425" on="1"/>
        <pt x="369" y="347" on="1"/>
        <pt x="205" y="347" on="1"/>
        <pt x="205" y="278" on="1"/>
        <pt x="369" y="278" on="1"/>
        <pt x="369" y="200" on="1"/>
        <pt x="205" y="200" on="1"/>
        <pt x="193" y="89" on="1"/>
        <pt x="513" y="89" on="1"/>
        <pt x="513" y="0" on="1"/>
        <pt x="32" y="0" on="1"/>
      </contour>
    </TTGlyph>
    <TTGlyph name="logicalnot" xMin="52" yMin="196" xMax="533" yMax="454">
      <contour>
        <pt x="445" y="359" on="1"/>
        <pt x="52" y="359" on="1"/>
        <pt x="52" y="454" on="1"/>
        <pt x="533" y="454" on="1"/>
        <pt x="533" y="196" on="1"/>
        <pt x="445" y="196" on="1"/>
      </contour>
    </TTGlyph>
    <TTGlyph name="longs" xMin="9" yMin="0" xMax="287" yMax="731">
      <contour>
        <pt x="85" y="441" on="1"/>
        <pt x="9" y="441" on="1"/>
        <pt x="9" y="526" on="1"/>
        <pt x="85" y="526" on="1"/>
        <pt x="85" y="603" on="1"/>
        <pt x="85" y="658" on="0"/>
        <pt x="142" y="731" on="0"/>
        <pt x="208" y="731" on="1"/>
        <pt x="228" y="731" on="0"/>
        <pt x="272" y="723" on="0"/>
        <pt x="287" y="718" on="1"/>
        <pt x="287" y="646" on="1"/>
        <pt x="236" y="646" on="1"/>
        <pt x="188" y="646" on="0"/>
        <pt x="188" y="600" on="1"/>
        <pt x="188" y="0" on="1"/>
        <pt x="85" y="0" on="1"/>
      </contour>
    </TTGlyph>
    <TTGlyph name="lozenge" xMin="54" yMin="-132" xMax="525" yMax="727">
      <contour>
        <pt x="54" y="298" on="1"/>
        <pt x="233" y="727" on="1"/>
        <pt x="347" y="727" on="1"/>
        <pt x="525" y="298" on="1"/>
        <pt x="347" y="-132" on="1"/>
        <pt x="233" y="-132" on="1"/>
      </contour>
      <contour>
        <pt x="424" y="298" on="1"/>
        <pt x="290" y="638" on="1"/>
        <pt x="156" y="298" on="1"/>
        <pt x="290" y="-43" on="1"/>
      </contour>
    </TTGlyph>
    <TTGlyph name="lslash" xMin="0" yMin="0" xMax="238" yMax="723">
      <contour>
        <pt x="68" y="273" on="1"/>
        <pt x="0" y="219" on="1"/>
        <pt x="0" y="304" on="1"/>
        <pt x="68" y="358" on="1"/>
        <pt x="68" y="723" on="1"/>
        <pt x="171" y="723" on="1"/>
        <pt x="171" y="437" on="1"/>
        <pt x="238" y="490" on="1"/>
        <pt x="238" y="405" on="1"/>
        <pt x="171" y="352" on="1"/>
        <pt x="171" y="0" on="1"/>
        <pt x="68" y="0" on="1"/>
      </contour>
    </TTGlyph>
    <TTGlyph name="m" xMin="68" yMin="0" xMax="785" yMax="538">
      <contour>
        <pt x="68" y="526" on="1"/>
        <pt x="151" y="526" on="1"/>
        <pt x="161" y="456" on="1"/>
        <pt x="168" y="456" on="1"/>
        <pt x="195" y="496" on="0"/>
        <pt x="273" y="538" on="0"/>
        <pt x="323" y="538" on="1"/>
        <pt x="425" y="538" on="0"/>
        <pt x="460" y="456" on="1"/>
        <pt x="466" y="456" on="1"/>
        <pt x="493" y="495" on="0"/>
        <pt x="577" y="538" on="0"/>
        <pt x="627" y="538" on="1"/>
        <pt x="701" y="538" on="0"/>
        <pt x="785" y="459" on="0"/>
        <pt x="785" y="371" on="1"/>
        <pt x="785" y="0" on="1"/>
        <pt x="682" y="0" on="1"/>
        <pt x="682" y="351" on="1"/>
        <pt x="682" y="405" on="0"/>
        <pt x="635" y="450" on="0"/>
        <pt x="593" y="450" on="1"/>
        <pt x="544" y="450" on="0"/>
        <pt x="478" y="372" on="0"/>
        <pt x="478" y="309" on="1"/>
        <pt x="478" y="0" on="1"/>
        <pt x="375" y="0" on="1"/>
        <pt x="375" y="351" on="1"/>
        <pt x="375" y="405" on="0"/>
        <pt x="330" y="450" on="0"/>
        <pt x="288" y="450" on="1"/>
        <pt x="239" y="450" on="0"/>
        <pt x="171" y="372" on="0"/>
        <pt x="171" y="309" on="1"/>
        <pt x="171" y="0" on="1"/>
        <pt x="68" y="0" on="1"/>
      </contour>
    </TTGlyph>
    <TTGlyph name="macron" xMin="14" yMin="622" xMax="319" yMax="699">
      <contour>
        <pt x="14" y="699" on="1"/>
        <pt x="319" y="699" on="1"/>
        <pt x="319" y="622" on="1"/>
        <pt x="14" y="622" on="1"/>
      </contour>
    </TTGlyph>
    <TTGlyph name="minus" xMin="56" yMin="211" xMax="528" yMax="300">
      <contour>
        <pt x="56" y="300" on="1"/>
        <pt x="528" y="300" on="1"/>
        <pt x="528" y="211" on="1"/>
        <pt x="56" y="211" on="1"/>
      </contour>
    </TTGlyph>
    <TTGlyph name="minute" xMin="50" yMin="512" xMax="190" yMax="686">
      <contour>
        <pt x="80" y="686" on="1"/>
        <pt x="189" y="686" on="1"/>
        <pt x="190" y="683" on="1"/>
        <pt x="136" y="512" on="1"/>
        <pt x="50" y="512" on="1"/>
      </contour>
    </TTGlyph>
    <TTGlyph name="multiply" xMin="79" yMin="43" xMax="504" yMax="468">
      <contour>
        <pt x="79" y="106" on="1"/>
        <pt x="229" y="255" on="1"/>
        <pt x="79" y="405" on="1"/>
        <pt x="142" y="468" on="1"/>
        <pt x="291" y="318" on="1"/>
        <pt x="441" y="468" on="1"/>
        <pt x="504" y="405" on="1"/>
        <pt x="355" y="255" on="1"/>
        <pt x="504" y="106" on="1"/>
        <pt x="441" y="43" on="1"/>
        <pt x="291" y="192" on="1"/>
        <pt x="142" y="43" on="1"/>
      </contour>
    </TTGlyph>
</ttFont>
